<?xml version="1.0" encoding="UTF-8"?>
<!DOCTYPE svg PUBLIC "-//W3C//DTD SVG 1.1//EN" "http://www.w3.org/Graphics/SVG/1.1/DTD/svg11.dtd">
<svg xmlns="http://www.w3.org/2000/svg" version="1.1" width="1024px" height="768px" style="shape-rendering:geometricPrecision; text-rendering:geometricPrecision; image-rendering:optimizeQuality; fill-rule:evenodd; clip-rule:evenodd" xmlns:xlink="http://www.w3.org/1999/xlink">
<g><path style="opacity:0.584" fill="#74dbde" d="M 583.5,20.5 C 585.134,19.8389 586.967,19.5056 589,19.5C 592.15,19.3603 594.983,20.027 597.5,21.5C 592.87,20.7705 588.203,20.4372 583.5,20.5 Z"/></g>
<g><path style="opacity:1" fill="#09b2bb" d="M 381.5,109.5 C 381.414,108.504 381.748,107.671 382.5,107C 380.954,105.56 380.121,103.727 380,101.5C 379.828,95.3193 379.328,89.3193 378.5,83.5C 378.333,67.1633 378.5,50.8299 379,34.5C 385.375,19.5682 395.875,15.7349 410.5,23C 414.381,25.9276 416.881,29.7609 418,34.5C 418.961,59.2163 418.628,83.883 417,108.5C 410.417,118.779 401.251,121.946 389.5,118C 385.93,115.932 383.263,113.099 381.5,109.5 Z"/></g>
<g><path style="opacity:1" fill="#17b3bc" d="M 583.5,20.5 C 588.203,20.4372 592.87,20.7705 597.5,21.5C 603.165,24.1301 606.998,28.4634 609,34.5C 609.961,58.8831 609.627,83.2164 608,107.5C 598.886,121.04 587.719,123.04 574.5,113.5C 571.762,110.691 570.096,107.358 569.5,103.5C 570.205,79.3135 570.872,54.9802 571.5,30.5C 573.964,25.3732 577.964,22.0399 583.5,20.5 Z"/></g>
<g><path style="opacity:0.853" fill="#43ccd1" d="M 571.5,30.5 C 570.872,54.9802 570.205,79.3135 569.5,103.5C 568.345,81.5728 568.179,59.5728 569,37.5C 569.39,34.8958 570.224,32.5625 571.5,30.5 Z"/></g>
<g><path style="opacity:0.784" fill="#2bc7cf" d="M 555.5,102.5 C 554.504,89.3438 554.171,76.0105 554.5,62.5C 517.5,62.5 480.5,62.5 443.5,62.5C 440.5,62.5 437.5,62.5 434.5,62.5C 433.514,66.97 433.181,71.6367 433.5,76.5C 433.5,78.1667 433.5,79.8333 433.5,81.5C 433.5,83.8333 433.5,86.1667 433.5,88.5C 433.5,89.8333 433.5,91.1667 433.5,92.5C 433.167,92.5 432.833,92.5 432.5,92.5C 432.5,82.1667 432.5,71.8333 432.5,61.5C 473.5,61.5 514.5,61.5 555.5,61.5C 555.5,75.1667 555.5,88.8333 555.5,102.5 Z"/></g>
<g><path style="opacity:1" fill="#09b2bb" d="M 369.5,117.5 C 368.05,116.342 367.05,116.842 366.5,119C 367.293,120.085 367.96,121.252 368.5,122.5C 368.209,126.722 367.876,131.222 367.5,136C 371.555,141.301 374.555,146.801 376.5,152.5C 375.141,154.306 375.475,155.806 377.5,157C 375.122,157.974 375.456,158.641 378.5,159C 376.233,160.081 376.066,161.581 378,163.5C 381,166.167 384,168.833 387,171.5C 388.685,169.012 390.019,169.345 391,172.5C 391.333,172.167 391.667,171.833 392,171.5C 396.943,174.237 402.109,176.404 407.5,178C 365.835,178.5 324.168,178.667 282.5,178.5C 282.83,159.992 282.497,141.659 281.5,123.5C 281.5,121.167 281.5,118.833 281.5,116.5C 287.025,87.1402 304.358,68.9736 333.5,62C 344.161,61.5002 354.828,61.3335 365.5,61.5C 365.333,76.837 365.5,92.1703 366,107.5C 366.895,110.951 368.062,114.284 369.5,117.5 Z"/></g>
<g><path style="opacity:1" fill="#02abb8" d="M 434.5,62.5 C 437.5,62.5 440.5,62.5 443.5,62.5C 442.048,63.3019 440.382,63.8019 438.5,64C 440.167,64.3333 441.833,64.6667 443.5,65C 450.368,72.5963 456.868,80.4297 463,88.5C 465.074,92.8972 467.241,97.2306 469.5,101.5C 469.069,102.293 468.735,103.127 468.5,104C 469.527,106.315 470.527,108.648 471.5,111C 471.484,118.197 471.484,125.363 471.5,132.5C 469.311,139.098 467.477,145.431 466,151.5C 465.086,150.346 464.253,150.513 463.5,152C 463.833,152.333 464.167,152.667 464.5,153C 460.592,158.797 455.592,164.464 449.5,170C 445.804,168.793 442.971,169.959 441,173.5C 439.284,172.448 438.284,173.114 438,175.5C 435.047,175.578 432.047,175.245 429,174.5C 424.289,175.039 419.456,176.205 414.5,178C 511.166,178.5 607.833,178.667 704.5,178.5C 704.426,156.638 704.426,134.971 704.5,113.5C 705.468,135.467 705.801,157.467 705.5,179.5C 564.167,179.5 422.833,179.5 281.5,179.5C 281.5,160.833 281.5,142.167 281.5,123.5C 282.497,141.659 282.83,159.992 282.5,178.5C 324.168,178.667 365.835,178.5 407.5,178C 402.109,176.404 396.943,174.237 392,171.5C 391.667,171.833 391.333,172.167 391,172.5C 390.019,169.345 388.685,169.012 387,171.5C 384,168.833 381,166.167 378,163.5C 376.066,161.581 376.233,160.081 378.5,159C 375.456,158.641 375.122,157.974 377.5,157C 375.475,155.806 375.141,154.306 376.5,152.5C 374.555,146.801 371.555,141.301 367.5,136C 367.876,131.222 368.209,126.722 368.5,122.5C 367.96,121.252 367.293,120.085 366.5,119C 367.05,116.842 368.05,116.342 369.5,117.5C 372.471,120.808 375.471,124.141 378.5,127.5C 377.178,127.67 376.011,127.337 375,126.5C 376.206,138.48 381.039,148.646 389.5,157C 389.167,157.333 388.833,157.667 388.5,158C 398.181,165.388 408.847,169.221 420.5,169.5C 437.359,168.597 449.859,160.597 458,145.5C 460.046,141.67 461.212,137.836 461.5,134C 461.538,127.994 461.371,121.827 461,115.5C 460.122,97.4912 451.622,83.4912 435.5,73.5C 434.511,69.8927 434.177,66.226 434.5,62.5 Z"/></g>
<g><path style="opacity:1" fill="#01b1bb" d="M 624.5,61.5 C 655.968,56.83 680.468,67.4966 698,93.5C 700.397,97.624 702.231,101.957 703.5,106.5C 703.448,108.903 703.781,111.236 704.5,113.5C 704.426,134.971 704.426,156.638 704.5,178.5C 607.833,178.667 511.166,178.5 414.5,178C 419.456,176.205 424.289,175.039 429,174.5C 432.047,175.245 435.047,175.578 438,175.5C 438.284,173.114 439.284,172.448 441,173.5C 442.971,169.959 445.804,168.793 449.5,170C 455.592,164.464 460.592,158.797 464.5,153C 464.167,152.667 463.833,152.333 463.5,152C 464.253,150.513 465.086,150.346 466,151.5C 467.477,145.431 469.311,139.098 471.5,132.5C 471.484,125.363 471.484,118.197 471.5,111C 470.527,108.648 469.527,106.315 468.5,104C 468.735,103.127 469.069,102.293 469.5,101.5C 467.241,97.2306 465.074,92.8972 463,88.5C 456.868,80.4297 450.368,72.5963 443.5,65C 441.833,64.6667 440.167,64.3333 438.5,64C 440.382,63.8019 442.048,63.3019 443.5,62.5C 480.5,62.5 517.5,62.5 554.5,62.5C 554.171,76.0105 554.504,89.3438 555.5,102.5C 556.378,108.131 558.045,113.465 560.5,118.5C 559.542,118.047 558.708,117.381 558,116.5C 557.833,116.833 557.667,117.167 557.5,117.5C 558.253,124.126 558.253,130.292 557.5,136C 561.988,144.493 566.488,152.993 571,161.5C 574.667,165.167 578.333,168.833 582,172.5C 582.333,172.167 582.667,171.833 583,171.5C 586.912,174.396 591.245,176.396 596,177.5C 600.922,176.362 606.088,176.362 611.5,177.5C 616.606,176.216 621.772,175.216 627,174.5C 628.261,174.759 629.261,175.426 630,176.5C 630.492,175.451 630.326,174.451 629.5,173.5C 635.153,172.007 640.153,169.507 644.5,166C 645.833,165.333 645.833,164.667 644.5,164C 646.329,163.727 647.829,162.893 649,161.5C 651.19,157.762 653.523,154.096 656,150.5C 656.684,149.216 656.517,148.049 655.5,147C 659.662,139.347 661.662,131.013 661.5,122C 660.836,96.4347 649.836,77.1014 628.5,64C 635.167,63.6667 641.833,63.3333 648.5,63C 640.323,62.8292 632.323,62.3292 624.5,61.5 Z"/></g>
<g><path style="opacity:1" fill="#00abb9" d="M 624.5,61.5 C 632.323,62.3292 640.323,62.8292 648.5,63C 641.833,63.3333 635.167,63.6667 628.5,64C 649.836,77.1014 660.836,96.4347 661.5,122C 661.662,131.013 659.662,139.347 655.5,147C 656.517,148.049 656.684,149.216 656,150.5C 653.523,154.096 651.19,157.762 649,161.5C 647.829,162.893 646.329,163.727 644.5,164C 645.833,164.667 645.833,165.333 644.5,166C 640.153,169.507 635.153,172.007 629.5,173.5C 630.326,174.451 630.492,175.451 630,176.5C 629.261,175.426 628.261,174.759 627,174.5C 621.772,175.216 616.606,176.216 611.5,177.5C 606.088,176.362 600.922,176.362 596,177.5C 591.245,176.396 586.912,174.396 583,171.5C 582.667,171.833 582.333,172.167 582,172.5C 578.333,168.833 574.667,165.167 571,161.5C 566.488,152.993 561.988,144.493 557.5,136C 558.253,130.292 558.253,124.126 557.5,117.5C 557.667,117.167 557.833,116.833 558,116.5C 558.708,117.381 559.542,118.047 560.5,118.5C 561.488,119.795 562.488,121.128 563.5,122.5C 565.395,128.802 567.228,135.136 569,141.5C 569.667,142.833 570.333,142.833 571,141.5C 578.659,163.499 594.825,172.332 619.5,168C 632.937,165.063 642.271,157.23 647.5,144.5C 647.291,143.914 646.957,143.414 646.5,143C 647.833,141.667 649.167,140.333 650.5,139C 650.167,138.667 649.833,138.333 649.5,138C 653.319,126.554 652.985,115.054 648.5,103.5C 649.025,102.808 649.692,102.308 650.5,102C 647.444,99.748 646.277,96.9147 647,93.5C 645.16,94.8331 644.66,94.6665 645.5,93C 643.028,91.3987 642.028,89.3987 642.5,87C 640.959,85.4207 639.792,83.5873 639,81.5C 635.686,76.169 631.02,72.5023 625,70.5C 624.002,75.6037 623.169,80.6037 622.5,85.5C 621.866,77.0968 622.533,69.0968 624.5,61.5 Z"/></g>
<g><path style="opacity:1" fill="#0ea6b8" d="M 563.5,122.5 C 567.581,125.923 571.914,128.923 576.5,131.5C 569.548,130.214 568.548,132.381 573.5,138C 577.718,149.576 585.718,158.242 597.5,164C 599.112,164.72 600.612,164.554 602,163.5C 602.626,165.991 603.459,165.991 604.5,163.5C 606.833,164.167 609.167,164.833 611.5,165.5C 618.738,163.601 625.738,160.934 632.5,157.5C 634.817,154.683 637.317,152.016 640,149.5C 644.683,139.964 647.183,129.797 647.5,119C 646.648,116.583 645.981,114.083 645.5,111.5C 646.167,110.5 646.833,109.5 647.5,108.5C 644.866,102.672 641.533,97.172 637.5,92C 637.833,91.6667 638.167,91.3333 638.5,91C 634.471,85.3912 629.971,80.8912 625,77.5C 624.503,80.146 624.336,82.8127 624.5,85.5C 623.658,90.787 623.324,96.1203 623.5,101.5C 623.784,103.415 623.451,105.081 622.5,106.5C 622.5,99.5 622.5,92.5 622.5,85.5C 623.169,80.6037 624.002,75.6037 625,70.5C 631.02,72.5023 635.686,76.169 639,81.5C 639.792,83.5873 640.959,85.4207 642.5,87C 642.028,89.3987 643.028,91.3987 645.5,93C 644.66,94.6665 645.16,94.8331 647,93.5C 646.277,96.9147 647.444,99.748 650.5,102C 649.692,102.308 649.025,102.808 648.5,103.5C 652.985,115.054 653.319,126.554 649.5,138C 649.833,138.333 650.167,138.667 650.5,139C 649.167,140.333 647.833,141.667 646.5,143C 646.957,143.414 647.291,143.914 647.5,144.5C 642.271,157.23 632.937,165.063 619.5,168C 594.825,172.332 578.659,163.499 571,141.5C 570.333,142.833 569.667,142.833 569,141.5C 567.228,135.136 565.395,128.802 563.5,122.5 Z"/></g>
<g><path style="opacity:1" fill="#01a5b8" d="M 434.5,62.5 C 434.177,66.226 434.511,69.8927 435.5,73.5C 451.622,83.4912 460.122,97.4912 461,115.5C 461.371,121.827 461.538,127.994 461.5,134C 461.212,137.836 460.046,141.67 458,145.5C 449.859,160.597 437.359,168.597 420.5,169.5C 408.847,169.221 398.181,165.388 388.5,158C 388.833,157.667 389.167,157.333 389.5,157C 381.039,148.646 376.206,138.48 375,126.5C 376.011,127.337 377.178,127.67 378.5,127.5C 380.674,127.75 382.341,128.75 383.5,130.5C 381.83,130.249 380.33,129.582 379,128.5C 378.544,129.744 379.044,130.577 380.5,131C 380.167,132 379.833,133 379.5,134C 385.003,143.18 391.669,151.513 399.5,159C 402.554,161.194 405.888,162.861 409.5,164C 415.423,163.79 421.257,163.957 427,164.5C 429.251,162.623 431.751,161.123 434.5,160C 435.784,159.316 436.951,159.483 438,160.5C 441.833,156 446,151.833 450.5,148C 448.099,147.195 448.266,146.362 451,145.5C 451.333,145.833 451.667,146.167 452,146.5C 454.922,141.385 456.755,136.219 457.5,131C 457.245,129.674 456.578,128.674 455.5,128C 456.357,127.311 457.023,126.478 457.5,125.5C 456.22,123.298 456.22,121.132 457.5,119C 456.833,117 456.167,115 455.5,113C 456.634,111.984 456.301,111.317 454.5,111C 454.833,110.667 455.167,110.333 455.5,110C 454.402,105.691 452.735,101.691 450.5,98C 451.061,96.4345 450.394,95.1011 448.5,94C 447.921,92.5747 447.921,90.908 448.5,89C 442.993,85.3158 437.993,81.1491 433.5,76.5C 433.181,71.6367 433.514,66.97 434.5,62.5 Z"/></g>
<g><path style="opacity:1" fill="#009fb7" d="M 576.5,131.5 C 576.833,131.5 577.167,131.5 577.5,131.5C 577.5,131.833 577.5,132.167 577.5,132.5C 577.062,132.435 576.728,132.601 576.5,133C 579.763,133.869 580.096,135.203 577.5,137C 582.815,145.306 589.482,152.306 597.5,158C 599.701,158.825 601.534,158.325 603,156.5C 603.617,157.449 603.451,158.282 602.5,159C 603.5,159.667 604.5,159.667 605.5,159C 604.549,158.282 604.383,157.449 605,156.5C 607.176,156.428 609.176,156.762 611,157.5C 615.072,156.106 619.238,154.94 623.5,154C 626.997,151.417 630.664,149.084 634.5,147C 636.354,144.457 637.521,141.624 638,138.5C 638.914,139.654 639.747,139.487 640.5,138C 639.692,137.692 639.025,137.192 638.5,136.5C 644.332,120.834 642.332,106.668 632.5,94C 632.833,93.6667 633.167,93.3333 633.5,93C 630.553,92.8882 629.22,91.3882 629.5,88.5C 627.336,88.2785 625.67,87.2785 624.5,85.5C 624.336,82.8127 624.503,80.146 625,77.5C 629.971,80.8912 634.471,85.3912 638.5,91C 638.167,91.3333 637.833,91.6667 637.5,92C 641.533,97.172 644.866,102.672 647.5,108.5C 646.833,109.5 646.167,110.5 645.5,111.5C 645.981,114.083 646.648,116.583 647.5,119C 647.183,129.797 644.683,139.964 640,149.5C 637.317,152.016 634.817,154.683 632.5,157.5C 625.738,160.934 618.738,163.601 611.5,165.5C 609.167,164.833 606.833,164.167 604.5,163.5C 603.459,165.991 602.626,165.991 602,163.5C 600.612,164.554 599.112,164.72 597.5,164C 585.718,158.242 577.718,149.576 573.5,138C 568.548,132.381 569.548,130.214 576.5,131.5 Z"/></g>
<g><path style="opacity:1" fill="#08a0b7" d="M 433.5,76.5 C 437.993,81.1491 442.993,85.3158 448.5,89C 447.921,90.908 447.921,92.5747 448.5,94C 450.394,95.1011 451.061,96.4345 450.5,98C 452.735,101.691 454.402,105.691 455.5,110C 455.167,110.333 454.833,110.667 454.5,111C 456.301,111.317 456.634,111.984 455.5,113C 456.167,115 456.833,117 457.5,119C 456.22,121.132 456.22,123.298 457.5,125.5C 457.023,126.478 456.357,127.311 455.5,128C 456.578,128.674 457.245,129.674 457.5,131C 456.755,136.219 454.922,141.385 452,146.5C 451.667,146.167 451.333,145.833 451,145.5C 448.266,146.362 448.099,147.195 450.5,148C 446,151.833 441.833,156 438,160.5C 436.951,159.483 435.784,159.316 434.5,160C 431.751,161.123 429.251,162.623 427,164.5C 421.257,163.957 415.423,163.79 409.5,164C 405.888,162.861 402.554,161.194 399.5,159C 391.669,151.513 385.003,143.18 379.5,134C 379.833,133 380.167,132 380.5,131C 379.044,130.577 378.544,129.744 379,128.5C 380.33,129.582 381.83,130.249 383.5,130.5C 391.029,133.035 398.696,133.701 406.5,132.5C 403.456,134.011 400.122,134.678 396.5,134.5C 395.5,134.5 394.5,134.5 393.5,134.5C 392.054,133.387 390.387,133.22 388.5,134C 389.715,139.676 392.549,144.843 397,149.5C 397.333,149.167 397.667,148.833 398,148.5C 398.374,149.416 398.874,150.25 399.5,151C 403.005,152.898 405.839,154.731 408,156.5C 409,156.167 410,155.833 411,155.5C 420.402,158.792 429.068,157.459 437,151.5C 437.333,151.833 437.667,152.167 438,152.5C 438.333,151.5 438.667,150.5 439,149.5C 440.566,150.061 441.899,149.394 443,147.5C 446.164,143.228 448.998,138.228 451.5,132.5C 452.303,127.032 452.303,121.365 451.5,115.5C 451.148,114.214 450.482,113.381 449.5,113C 449.645,112.228 449.978,111.561 450.5,111C 447.869,104.087 444.869,97.7538 441.5,92C 436.509,90.154 433.843,86.654 433.5,81.5C 433.5,79.8333 433.5,78.1667 433.5,76.5 Z"/></g>
<g><path style="opacity:1" fill="#0099b8" d="M 433.5,81.5 C 433.843,86.654 436.509,90.154 441.5,92C 444.869,97.7538 447.869,104.087 450.5,111C 449.978,111.561 449.645,112.228 449.5,113C 450.482,113.381 451.148,114.214 451.5,115.5C 452.303,121.365 452.303,127.032 451.5,132.5C 448.998,138.228 446.164,143.228 443,147.5C 441.899,149.394 440.566,150.061 439,149.5C 438.667,150.5 438.333,151.5 438,152.5C 437.667,152.167 437.333,151.833 437,151.5C 429.068,157.459 420.402,158.792 411,155.5C 410,155.833 409,156.167 408,156.5C 405.839,154.731 403.005,152.898 399.5,151C 398.874,150.25 398.374,149.416 398,148.5C 397.667,148.833 397.333,149.167 397,149.5C 392.549,144.843 389.715,139.676 388.5,134C 390.387,133.22 392.054,133.387 393.5,134.5C 399.77,148.738 410.77,153.571 426.5,149C 433.904,146.597 439.07,141.764 442,134.5C 446.34,122.662 445.673,111.329 440,100.5C 438.907,98.0279 437.24,96.0279 435,94.5C 434.809,92.2922 434.309,90.2922 433.5,88.5C 433.5,86.1667 433.5,83.8333 433.5,81.5 Z"/></g>
<g><path style="opacity:1" fill="#0099b8" d="M 624.5,85.5 C 625.67,87.2785 627.336,88.2785 629.5,88.5C 629.22,91.3882 630.553,92.8882 633.5,93C 633.167,93.3333 632.833,93.6667 632.5,94C 642.332,106.668 644.332,120.834 638.5,136.5C 639.025,137.192 639.692,137.692 640.5,138C 639.747,139.487 638.914,139.654 638,138.5C 637.521,141.624 636.354,144.457 634.5,147C 630.664,149.084 626.997,151.417 623.5,154C 619.238,154.94 615.072,156.106 611,157.5C 609.176,156.762 607.176,156.428 605,156.5C 604.383,157.449 604.549,158.282 605.5,159C 604.5,159.667 603.5,159.667 602.5,159C 603.451,158.282 603.617,157.449 603,156.5C 601.534,158.325 599.701,158.825 597.5,158C 589.482,152.306 582.815,145.306 577.5,137C 580.096,135.203 579.763,133.869 576.5,133C 576.728,132.601 577.062,132.435 577.5,132.5C 580.096,133.265 582.763,133.599 585.5,133.5C 587.5,133.5 589.5,133.5 591.5,133.5C 592.5,133.5 593.5,133.5 594.5,133.5C 592.393,134.468 590.059,134.802 587.5,134.5C 585.801,134.34 584.134,134.506 582.5,135C 587.206,142.941 594.039,148.107 603,150.5C 616.514,151.571 626.181,145.904 632,133.5C 636.531,118.633 634.198,104.966 625,92.5C 624.505,94.4727 624.338,96.4727 624.5,98.5C 624.737,99.791 624.404,100.791 623.5,101.5C 623.324,96.1203 623.658,90.787 624.5,85.5 Z"/></g>
<g><path style="opacity:1" fill="#0092b9" d="M 433.5,88.5 C 434.309,90.2922 434.809,92.2922 435,94.5C 437.24,96.0279 438.907,98.0279 440,100.5C 445.673,111.329 446.34,122.662 442,134.5C 439.07,141.764 433.904,146.597 426.5,149C 410.77,153.571 399.77,148.738 393.5,134.5C 394.5,134.5 395.5,134.5 396.5,134.5C 397.609,135.29 398.942,135.79 400.5,136C 399.549,136.718 399.383,137.551 400,138.5C 404.903,143.595 410.903,145.929 418,145.5C 420.462,144.35 422.796,143.017 425,141.5C 425.333,142.167 425.667,142.833 426,143.5C 429.313,141.664 432.313,139.331 435,136.5C 436.745,133.203 437.912,129.703 438.5,126C 437.167,122.333 437.167,118.667 438.5,115C 437.833,113 437.167,111 436.5,109C 436.833,108.667 437.167,108.333 437.5,108C 435.474,105.39 434.141,102.557 433.5,99.5C 433.5,97.1667 433.5,94.8333 433.5,92.5C 433.5,91.1667 433.5,89.8333 433.5,88.5 Z"/></g>
<g><path style="opacity:1" fill="#0091b9" d="M 587.5,134.5 C 587.842,135.338 588.508,135.672 589.5,135.5C 588.209,136.473 588.209,137.473 589.5,138.5C 591.826,141.433 594.659,142.433 598,141.5C 606.039,144.596 613.873,143.929 621.5,139.5C 628.223,130.115 630.39,120.115 628,109.5C 626.243,105.898 625.076,102.232 624.5,98.5C 624.338,96.4727 624.505,94.4727 625,92.5C 634.198,104.966 636.531,118.633 632,133.5C 626.181,145.904 616.514,151.571 603,150.5C 594.039,148.107 587.206,142.941 582.5,135C 584.134,134.506 585.801,134.34 587.5,134.5 Z"/></g>
<g><path style="opacity:0.501" fill="#78dadf" d="M 378.5,83.5 C 379.328,89.3193 379.828,95.3193 380,101.5C 380.121,103.727 380.954,105.56 382.5,107C 381.748,107.671 381.414,108.504 381.5,109.5C 380.207,108.158 379.374,106.491 379,104.5C 378.5,97.5079 378.334,90.5079 378.5,83.5 Z"/></g>
<g><path style="opacity:0.655" fill="#57bad2" d="M 432.5,92.5 C 432.833,92.5 433.167,92.5 433.5,92.5C 433.5,94.8333 433.5,97.1667 433.5,99.5C 433.448,103.198 433.114,106.865 432.5,110.5C 431.833,110.833 431.167,111.167 430.5,111.5C 432.006,105.267 432.673,98.934 432.5,92.5 Z"/></g>
<g><path style="opacity:1" fill="#058cba" d="M 433.5,99.5 C 434.141,102.557 435.474,105.39 437.5,108C 437.167,108.333 436.833,108.667 436.5,109C 437.167,111 437.833,113 438.5,115C 437.167,118.667 437.167,122.333 438.5,126C 437.912,129.703 436.745,133.203 435,136.5C 432.313,139.331 429.313,141.664 426,143.5C 425.667,142.833 425.333,142.167 425,141.5C 422.796,143.017 420.462,144.35 418,145.5C 410.903,145.929 404.903,143.595 400,138.5C 399.383,137.551 399.549,136.718 400.5,136C 398.942,135.79 397.609,135.29 396.5,134.5C 400.122,134.678 403.456,134.011 406.5,132.5C 408.302,131.542 410.302,130.875 412.5,130.5C 411.653,131.966 410.32,132.8 408.5,133C 410.116,133.615 411.449,134.615 412.5,136C 410.655,135.217 408.655,134.884 406.5,135C 406.833,136 407.167,137 407.5,138C 421.602,142.113 430.602,136.947 434.5,122.5C 434.5,119.833 434.5,117.167 434.5,114.5C 433.147,113.476 432.48,112.143 432.5,110.5C 433.114,106.865 433.448,103.198 433.5,99.5 Z"/></g>
<g><path style="opacity:1" fill="#148ebb" d="M 624.5,98.5 C 625.076,102.232 626.243,105.898 628,109.5C 630.39,120.115 628.223,130.115 621.5,139.5C 613.873,143.929 606.039,144.596 598,141.5C 594.659,142.433 591.826,141.433 589.5,138.5C 588.209,137.473 588.209,136.473 589.5,135.5C 592.544,137.195 595.377,138.528 598,139.5C 601.333,138.167 604.667,138.167 608,139.5C 620.185,135.769 625.185,127.769 623,115.5C 621.927,115.201 620.76,115.201 619.5,115.5C 620.331,112.341 621.331,109.341 622.5,106.5C 623.451,105.081 623.784,103.415 623.5,101.5C 624.404,100.791 624.737,99.791 624.5,98.5 Z"/></g>
<g><path style="opacity:1" fill="#1b88bb" d="M 432.5,110.5 C 432.48,112.143 433.147,113.476 434.5,114.5C 434.5,117.167 434.5,119.833 434.5,122.5C 430.602,136.947 421.602,142.113 407.5,138C 407.167,137 406.833,136 406.5,135C 408.655,134.884 410.655,135.217 412.5,136C 411.449,134.615 410.116,133.615 408.5,133C 410.32,132.8 411.653,131.966 412.5,130.5C 412.5,130.167 412.5,129.833 412.5,129.5C 420.812,125.855 426.812,119.855 430.5,111.5C 431.167,111.167 431.833,110.833 432.5,110.5 Z"/></g>
<g><path style="opacity:1" fill="#1387bb" d="M 589.5,135.5 C 588.508,135.672 587.842,135.338 587.5,134.5C 590.059,134.802 592.393,134.468 594.5,133.5C 598.708,133.323 602.374,131.99 605.5,129.5C 611.167,125.833 615.833,121.167 619.5,115.5C 620.76,115.201 621.927,115.201 623,115.5C 625.185,127.769 620.185,135.769 608,139.5C 604.667,138.167 601.333,138.167 598,139.5C 595.377,138.528 592.544,137.195 589.5,135.5 Z"/></g>
<g><path style="opacity:0.902" fill="#5fcbd3" d="M 703.5,106.5 C 704.761,109.258 705.594,112.258 706,115.5C 706.5,137.497 706.667,159.497 706.5,181.5C 564.5,181.5 422.5,181.5 280.5,181.5C 280.169,159.66 280.503,137.994 281.5,116.5C 281.5,118.833 281.5,121.167 281.5,123.5C 281.5,142.167 281.5,160.833 281.5,179.5C 422.833,179.5 564.167,179.5 705.5,179.5C 705.801,157.467 705.468,135.467 704.5,113.5C 703.781,111.236 703.448,108.903 703.5,106.5 Z"/></g>
<g><path style="opacity:0.373" fill="#83cfde" d="M 577.5,132.5 C 577.5,132.167 577.5,131.833 577.5,131.5C 580.373,131.802 583.039,132.469 585.5,133.5C 582.763,133.599 580.096,133.265 577.5,132.5 Z"/></g>
<g><path style="opacity:0.878" fill="#6eb4d2" d="M 605.5,129.5 C 602.374,131.99 598.708,133.323 594.5,133.5C 593.5,133.5 592.5,133.5 591.5,133.5C 596.063,132.189 600.729,130.856 605.5,129.5 Z"/></g>
<g><path style="opacity:0.004" fill="#fefffc" d="M 412.5,129.5 C 411.833,128.167 411.833,128.167 412.5,129.5 Z"/></g>
<g><path style="opacity:1" fill="#0787b7" d="M 705.5,429.5 C 704.833,350.666 704.167,271.666 703.5,192.5C 703.583,197.896 703.416,203.563 703,209.5C 701.188,212.28 699.021,214.78 696.5,217C 696.833,217.333 697.167,217.667 697.5,218C 696.299,218.903 695.465,220.069 695,221.5C 694.667,220.833 694.333,220.167 694,219.5C 693.212,221.165 692.878,222.831 693,224.5C 693.689,223.643 694.522,222.977 695.5,222.5C 695.94,223.698 696.273,224.865 696.5,226C 695.747,227.487 694.914,227.654 694,226.5C 692.513,227.253 692.346,228.086 693.5,229C 692.167,229.667 690.833,230.333 689.5,231C 691.271,231.535 691.604,232.369 690.5,233.5C 689.268,234.145 687.935,234.311 686.5,234C 685.906,235.982 684.74,237.816 683,239.5C 682.667,239.167 682.333,238.833 682,238.5C 680.348,239.068 678.682,240.401 677,242.5C 676.601,244.944 677.434,245.61 679.5,244.5C 680.287,245.242 680.953,246.075 681.5,247C 679.333,249.167 677.167,251.333 675,253.5C 673.951,252.483 672.784,252.316 671.5,253C 672.668,254.871 672.168,256.371 670,257.5C 669.667,257.167 669.333,256.833 669,256.5C 668.581,257.672 667.915,258.672 667,259.5C 665.667,258.167 664.333,258.167 663,259.5C 662.667,302.5 662.333,345.5 662,388.5C 661.5,332.834 661.333,277.168 661.5,221.5C 662.924,219.485 663.59,217.152 663.5,214.5C 668.506,202.162 677.506,194.495 690.5,191.5C 695.473,190.836 700.473,190.503 705.5,190.5C 705.5,270.167 705.5,349.833 705.5,429.5 Z"/></g>
<g><path style="opacity:1" fill="#158fb8" d="M 705.5,429.5 C 705.5,430.833 705.5,432.167 705.5,433.5C 705.58,436.781 704.913,439.781 703.5,442.5C 702.069,443.78 701.402,445.447 701.5,447.5C 695.17,463.333 684.17,474.833 668.5,482C 662.382,484.446 656.048,486.113 649.5,487C 596.167,487.667 542.833,487.667 489.5,487C 486.594,483.689 484.927,479.856 484.5,475.5C 485.151,476.091 485.818,476.757 486.5,477.5C 487.425,476.359 488.259,476.359 489,477.5C 491.412,473.444 494.579,470.278 498.5,468C 497.167,467.333 497.167,466.667 498.5,466C 499.76,464.887 500.927,464.72 502,465.5C 502.317,463.699 502.984,463.366 504,464.5C 503.57,462.873 503.404,461.373 503.5,460C 506.468,457.822 506.135,456.656 502.5,456.5C 502.343,455.127 502.51,453.793 503,452.5C 503.333,453.167 503.667,453.833 504,454.5C 505.833,453.333 507.333,451.833 508.5,450C 507.167,449 507.167,448 508.5,447C 507.5,446.667 506.5,446.333 505.5,446C 507.275,444.561 509.275,443.561 511.5,443C 512.833,442.333 512.833,441.667 511.5,441C 546.317,439.921 580.983,439.087 615.5,438.5C 618.167,437.5 620.833,436.5 623.5,435.5C 625.553,435.598 627.22,434.931 628.5,433.5C 632.492,431.17 636.492,428.837 640.5,426.5C 643.833,425.167 646.167,422.833 647.5,419.5C 647.833,418.5 648.5,417.833 649.5,417.5C 650.906,417.027 651.573,416.027 651.5,414.5C 655.108,407.94 657.608,400.94 659,393.5C 659.333,338.167 659.667,282.833 660,227.5C 660.191,225.292 660.691,223.292 661.5,221.5C 661.333,277.168 661.5,332.834 662,388.5C 662.333,345.5 662.667,302.5 663,259.5C 664.333,258.167 665.667,258.167 667,259.5C 667.915,258.672 668.581,257.672 669,256.5C 669.333,256.833 669.667,257.167 670,257.5C 672.168,256.371 672.668,254.871 671.5,253C 672.784,252.316 673.951,252.483 675,253.5C 677.167,251.333 679.333,249.167 681.5,247C 680.953,246.075 680.287,245.242 679.5,244.5C 677.434,245.61 676.601,244.944 677,242.5C 678.682,240.401 680.348,239.068 682,238.5C 682.333,238.833 682.667,239.167 683,239.5C 684.74,237.816 685.906,235.982 686.5,234C 687.935,234.311 689.268,234.145 690.5,233.5C 691.604,232.369 691.271,231.535 689.5,231C 690.833,230.333 692.167,229.667 693.5,229C 692.346,228.086 692.513,227.253 694,226.5C 694.914,227.654 695.747,227.487 696.5,226C 696.273,224.865 695.94,223.698 695.5,222.5C 694.522,222.977 693.689,223.643 693,224.5C 692.878,222.831 693.212,221.165 694,219.5C 694.333,220.167 694.667,220.833 695,221.5C 695.465,220.069 696.299,218.903 697.5,218C 697.167,217.667 696.833,217.333 696.5,217C 699.021,214.78 701.188,212.28 703,209.5C 703.416,203.563 703.583,197.896 703.5,192.5C 704.167,271.666 704.833,350.666 705.5,429.5 Z"/></g>
<g><path style="opacity:0.969" fill="#81b7d2" d="M 663.5,214.5 C 663.59,217.152 662.924,219.485 661.5,221.5C 661.41,218.848 662.076,216.515 663.5,214.5 Z"/></g>
<g><path style="opacity:1" fill="#02c4c3" d="M 472.5,227.5 C 503.662,226.502 534.996,226.168 566.5,226.5C 569.713,226.19 572.713,226.523 575.5,227.5C 577.685,228.179 579.019,229.179 579.5,230.5C 575.363,229.36 571.363,229.86 567.5,232C 552.811,241.473 537.644,250.973 522,260.5C 520.739,260.241 519.739,259.574 519,258.5C 517.723,260.731 515.889,262.398 513.5,263.5C 514.879,264.863 514.713,265.863 513,266.5C 512.05,265.978 511.216,265.311 510.5,264.5C 508.205,266.48 505.539,267.647 502.5,268C 503.833,268.667 503.833,269.333 502.5,270C 496.524,270.202 496.19,271.202 501.5,273C 491.991,273.17 482.658,273.67 473.5,274.5C 462.5,274.5 451.5,274.5 440.5,274.5C 446.653,273.672 452.987,273.172 459.5,273C 454.833,272.667 450.167,272.333 445.5,272C 447.512,271.198 449.679,270.698 452,270.5C 454.421,268.707 456.921,267.04 459.5,265.5C 461.252,267.877 463.252,268.044 465.5,266C 481.166,256.056 496.666,245.889 512,235.5C 512.333,235.833 512.667,236.167 513,236.5C 514.84,234.16 517.007,232.16 519.5,230.5C 517.031,229.832 514.698,229.165 512.5,228.5C 499.344,227.504 486.01,227.171 472.5,227.5 Z"/></g>
<g><path style="opacity:1" fill="#41bbc2" d="M 566.5,226.5 C 534.996,226.168 503.662,226.502 472.5,227.5C 460.674,228.331 448.674,228.831 436.5,229C 438.167,229.333 439.833,229.667 441.5,230C 438.785,231.908 435.785,233.241 432.5,234C 433.205,235.557 432.539,236.723 430.5,237.5C 428.368,236.767 426.535,236.767 425,237.5C 420.723,240.266 416.557,243.266 412.5,246.5C 412.167,245.833 411.833,245.167 411.5,244.5C 407.084,246.751 403.084,249.584 399.5,253C 399.833,253.333 400.167,253.667 400.5,254C 397.843,257.147 394.677,259.647 391,261.5C 390.517,262.448 390.351,263.448 390.5,264.5C 386.281,264.528 382.781,266.195 380,269.5C 379.667,268.833 379.333,268.167 379,267.5C 378.667,272.833 378.333,278.167 378,283.5C 377.188,273.756 377.688,264.089 379.5,254.5C 385.246,240.259 395.58,231.092 410.5,227C 437.637,225.865 464.804,225.365 492,225.5C 517.002,225.5 541.836,225.833 566.5,226.5 Z"/></g>
<g><path style="opacity:1" fill="#01b8bf" d="M 472.5,227.5 C 486.01,227.171 499.344,227.504 512.5,228.5C 505.052,227.892 497.885,228.559 491,230.5C 488.589,227.895 486.089,227.895 483.5,230.5C 482.304,230.154 482.304,229.654 483.5,229C 480.167,228.333 476.833,228.333 473.5,229C 475.833,229.333 478.167,229.667 480.5,230C 474.326,234.254 467.993,238.254 461.5,242C 463.559,243.185 463.726,244.352 462,245.5C 462.054,244.189 461.054,243.189 459,242.5C 456.077,243.809 453.244,245.309 450.5,247C 451.167,247.333 451.833,247.667 452.5,248C 450.1,249.057 447.767,249.724 445.5,250C 446.956,250.423 447.456,251.256 447,252.5C 445.927,251.72 444.76,251.887 443.5,253C 441.365,255.794 438.865,257.294 436,257.5C 433.623,260.635 430.956,262.635 428,263.5C 422.346,265.736 417.512,269.069 413.5,273.5C 412.232,272.572 410.899,272.405 409.5,273C 410.167,273.333 410.833,273.667 411.5,274C 409.212,277.295 406.712,277.795 404,275.5C 403.021,277.32 401.521,278.487 399.5,279C 400.167,279.333 400.833,279.667 401.5,280C 399.759,281.62 397.925,283.12 396,284.5C 395.581,283.328 394.915,282.328 394,281.5C 393.215,283.286 392.049,284.786 390.5,286C 387.66,286.949 385.16,288.449 383,290.5C 382.667,290.167 382.333,289.833 382,289.5C 378.983,291.12 378.15,293.454 379.5,296.5C 380.478,296.023 381.311,295.357 382,294.5C 382.75,295.126 383.584,295.626 384.5,296C 383.333,296.5 382.5,297.333 382,298.5C 381.282,297.549 380.449,297.383 379.5,298C 382.15,301.207 381.984,301.707 379,299.5C 378.667,299.833 378.333,300.167 378,300.5C 377.062,288.85 376.562,277.183 376.5,265.5C 376.517,261.466 377.517,257.799 379.5,254.5C 377.688,264.089 377.188,273.756 378,283.5C 378.333,278.167 378.667,272.833 379,267.5C 379.333,268.167 379.667,268.833 380,269.5C 382.781,266.195 386.281,264.528 390.5,264.5C 390.351,263.448 390.517,262.448 391,261.5C 394.677,259.647 397.843,257.147 400.5,254C 400.167,253.667 399.833,253.333 399.5,253C 403.084,249.584 407.084,246.751 411.5,244.5C 411.833,245.167 412.167,245.833 412.5,246.5C 416.557,243.266 420.723,240.266 425,237.5C 426.535,236.767 428.368,236.767 430.5,237.5C 432.539,236.723 433.205,235.557 432.5,234C 435.785,233.241 438.785,231.908 441.5,230C 439.833,229.667 438.167,229.333 436.5,229C 448.674,228.831 460.674,228.331 472.5,227.5 Z"/></g>
<g><path style="opacity:1" fill="#10bfc1" d="M 512.5,228.5 C 514.698,229.165 517.031,229.832 519.5,230.5C 517.007,232.16 514.84,234.16 513,236.5C 512.667,236.167 512.333,235.833 512,235.5C 496.666,245.889 481.166,256.056 465.5,266C 463.252,268.044 461.252,267.877 459.5,265.5C 456.921,267.04 454.421,268.707 452,270.5C 449.679,270.698 447.512,271.198 445.5,272C 450.167,272.333 454.833,272.667 459.5,273C 452.987,273.172 446.653,273.672 440.5,274.5C 439.209,274.263 438.209,274.596 437.5,275.5C 431.233,277.434 426.9,281.434 424.5,287.5C 423.883,287.611 423.383,287.944 423,288.5C 422.502,291.817 422.335,295.15 422.5,298.5C 421.675,295.628 420.841,292.628 420,289.5C 419.667,290.5 419.333,291.5 419,292.5C 418.667,292.167 418.333,291.833 418,291.5C 411.998,295.147 406.665,299.48 402,304.5C 400.16,303.167 399.66,303.334 400.5,305C 400,305.5 399.5,306 399,306.5C 395.745,305.586 393.245,306.753 391.5,310C 387.095,311.37 383.095,313.537 379.5,316.5C 377.066,327.702 376.066,339.035 376.5,350.5C 375.167,322.167 375.167,293.833 376.5,265.5C 376.562,277.183 377.062,288.85 378,300.5C 378.333,300.167 378.667,299.833 379,299.5C 381.984,301.707 382.15,301.207 379.5,298C 380.449,297.383 381.282,297.549 382,298.5C 382.5,297.333 383.333,296.5 384.5,296C 383.584,295.626 382.75,295.126 382,294.5C 381.311,295.357 380.478,296.023 379.5,296.5C 378.15,293.454 378.983,291.12 382,289.5C 382.333,289.833 382.667,290.167 383,290.5C 385.16,288.449 387.66,286.949 390.5,286C 392.049,284.786 393.215,283.286 394,281.5C 394.915,282.328 395.581,283.328 396,284.5C 397.925,283.12 399.759,281.62 401.5,280C 400.833,279.667 400.167,279.333 399.5,279C 401.521,278.487 403.021,277.32 404,275.5C 406.712,277.795 409.212,277.295 411.5,274C 410.833,273.667 410.167,273.333 409.5,273C 410.899,272.405 412.232,272.572 413.5,273.5C 417.512,269.069 422.346,265.736 428,263.5C 430.956,262.635 433.623,260.635 436,257.5C 438.865,257.294 441.365,255.794 443.5,253C 444.76,251.887 445.927,251.72 447,252.5C 447.456,251.256 446.956,250.423 445.5,250C 447.767,249.724 450.1,249.057 452.5,248C 451.833,247.667 451.167,247.333 450.5,247C 453.244,245.309 456.077,243.809 459,242.5C 461.054,243.189 462.054,244.189 462,245.5C 463.726,244.352 463.559,243.185 461.5,242C 467.993,238.254 474.326,234.254 480.5,230C 478.167,229.667 475.833,229.333 473.5,229C 476.833,228.333 480.167,228.333 483.5,229C 482.304,229.654 482.304,230.154 483.5,230.5C 486.089,227.895 488.589,227.895 491,230.5C 497.885,228.559 505.052,227.892 512.5,228.5 Z"/></g>
<g><path style="opacity:0.725" fill="#a3dcda" d="M 596.5,238.5 C 598.587,239.585 599.92,241.251 600.5,243.5C 598.413,242.415 597.08,240.749 596.5,238.5 Z"/></g>
<g><path style="opacity:1" fill="#69cdc9" d="M 600.5,243.5 C 606.509,249.525 609.843,256.859 610.5,265.5C 610.5,275.833 610.5,286.167 610.5,296.5C 609.981,286.628 609.314,279.294 608.5,274.5C 602.401,277.093 596.401,279.926 590.5,283C 585.922,287.777 580.589,291.61 574.5,294.5C 572.412,293.821 570.412,293.488 568.5,293.5C 567.459,295.991 566.626,295.991 566,293.5C 565.825,298.019 565.325,302.353 564.5,306.5C 564.666,300.824 564.499,295.157 564,289.5C 563.768,288.263 563.268,287.263 562.5,286.5C 560.58,283.238 558.246,280.238 555.5,277.5C 557.255,276.928 558.922,276.094 560.5,275C 562.479,272.091 564.813,269.591 567.5,267.5C 568.689,266.571 570.022,266.238 571.5,266.5C 571.5,265.5 571.5,264.5 571.5,263.5C 577.326,262.25 582.326,259.417 586.5,255C 591.362,253.835 595.195,251.335 598,247.5C 598.718,248.451 599.551,248.617 600.5,248C 599.748,247.329 599.414,246.496 599.5,245.5C 600.338,245.158 600.672,244.492 600.5,243.5 Z"/></g>
<g><path style="opacity:1" fill="#1fc8c5" d="M 579.5,230.5 C 579.783,231.289 580.283,231.956 581,232.5C 582.388,231.446 583.888,231.28 585.5,232C 581.761,234.253 577.928,235.42 574,235.5C 573.383,236.449 573.549,237.282 574.5,238C 555.842,249.392 538.175,260.726 521.5,272C 522.167,272.333 522.833,272.667 523.5,273C 517.319,273.172 511.319,273.672 505.5,274.5C 494.833,274.5 484.167,274.5 473.5,274.5C 482.658,273.67 491.991,273.17 501.5,273C 496.19,271.202 496.524,270.202 502.5,270C 503.833,269.333 503.833,268.667 502.5,268C 505.539,267.647 508.205,266.48 510.5,264.5C 511.216,265.311 512.05,265.978 513,266.5C 514.713,265.863 514.879,264.863 513.5,263.5C 515.889,262.398 517.723,260.731 519,258.5C 519.739,259.574 520.739,260.241 522,260.5C 537.644,250.973 552.811,241.473 567.5,232C 571.363,229.86 575.363,229.36 579.5,230.5 Z"/></g>
<g><path style="opacity:1" fill="#72d2cf" d="M 599.5,245.5 C 599.414,246.496 599.748,247.329 600.5,248C 599.551,248.617 598.718,248.451 598,247.5C 595.195,251.335 591.362,253.835 586.5,255C 582.326,259.417 577.326,262.25 571.5,263.5C 571.5,264.5 571.5,265.5 571.5,266.5C 570.022,266.238 568.689,266.571 567.5,267.5C 564.813,269.591 562.479,272.091 560.5,275C 558.922,276.094 557.255,276.928 555.5,277.5C 554.078,277.291 552.745,276.791 551.5,276C 513.501,275.5 475.501,275.333 437.5,275.5C 438.209,274.596 439.209,274.263 440.5,274.5C 451.5,274.5 462.5,274.5 473.5,274.5C 484.167,274.5 494.833,274.5 505.5,274.5C 519.844,274.363 534.177,273.863 548.5,273C 545.833,272.667 543.167,272.333 540.5,272C 542.473,271.505 544.473,271.338 546.5,271.5C 546.5,270.5 546.5,269.5 546.5,268.5C 548.331,267.948 549.997,267.948 551.5,268.5C 552.192,267.975 552.692,267.308 553,266.5C 554.133,268.211 555.633,268.711 557.5,268C 559.5,266.333 561.5,264.667 563.5,263C 561.699,262.683 561.366,262.016 562.5,261C 563.899,260.405 565.232,260.572 566.5,261.5C 567.833,260.833 569.167,260.167 570.5,259.5C 570.096,258.708 570.096,257.374 570.5,255.5C 567.833,254.5 567.833,253.5 570.5,252.5C 571.428,254.335 572.594,254.668 574,253.5C 574.915,254.328 575.581,255.328 576,256.5C 577.985,254.765 577.651,253.432 575,252.5C 574.333,251.833 574.333,251.167 575,250.5C 576.693,251.184 578.193,252.184 579.5,253.5C 582.028,252.502 582.028,251.669 579.5,251C 580.667,250.5 581.5,249.667 582,248.5C 582.368,249.91 583.201,250.91 584.5,251.5C 586.422,250.289 588.255,248.956 590,247.5C 591.441,248.26 592.941,248.926 594.5,249.5C 595.739,247.993 595.405,246.826 593.5,246C 595.271,243.887 596.771,244.053 598,246.5C 598.333,245.833 598.667,245.167 599,244.5C 599.399,244.728 599.565,245.062 599.5,245.5 Z"/></g>
<g><path style="opacity:1" fill="#48c9c6" d="M 575.5,227.5 C 583.807,228.819 590.807,232.485 596.5,238.5C 597.08,240.749 598.413,242.415 600.5,243.5C 600.672,244.492 600.338,245.158 599.5,245.5C 599.565,245.062 599.399,244.728 599,244.5C 598.667,245.167 598.333,245.833 598,246.5C 596.771,244.053 595.271,243.887 593.5,246C 595.405,246.826 595.739,247.993 594.5,249.5C 592.941,248.926 591.441,248.26 590,247.5C 588.255,248.956 586.422,250.289 584.5,251.5C 583.201,250.91 582.368,249.91 582,248.5C 581.5,249.667 580.667,250.5 579.5,251C 582.028,251.669 582.028,252.502 579.5,253.5C 578.193,252.184 576.693,251.184 575,250.5C 574.333,251.167 574.333,251.833 575,252.5C 577.651,253.432 577.985,254.765 576,256.5C 575.581,255.328 574.915,254.328 574,253.5C 572.594,254.668 571.428,254.335 570.5,252.5C 567.833,253.5 567.833,254.5 570.5,255.5C 570.096,257.374 570.096,258.708 570.5,259.5C 569.167,260.167 567.833,260.833 566.5,261.5C 565.232,260.572 563.899,260.405 562.5,261C 561.366,262.016 561.699,262.683 563.5,263C 561.5,264.667 559.5,266.333 557.5,268C 555.633,268.711 554.133,268.211 553,266.5C 552.692,267.308 552.192,267.975 551.5,268.5C 549.997,267.948 548.331,267.948 546.5,268.5C 546.5,269.5 546.5,270.5 546.5,271.5C 544.473,271.338 542.473,271.505 540.5,272C 543.167,272.333 545.833,272.667 548.5,273C 534.177,273.863 519.844,274.363 505.5,274.5C 511.319,273.672 517.319,273.172 523.5,273C 522.833,272.667 522.167,272.333 521.5,272C 538.175,260.726 555.842,249.392 574.5,238C 573.549,237.282 573.383,236.449 574,235.5C 577.928,235.42 581.761,234.253 585.5,232C 583.888,231.28 582.388,231.446 581,232.5C 580.283,231.956 579.783,231.289 579.5,230.5C 579.019,229.179 577.685,228.179 575.5,227.5 Z"/></g>
<g><path style="opacity:0.692" fill="#73b4ce" d="M 705.5,433.5 C 705.5,432.167 705.5,430.833 705.5,429.5C 705.5,349.833 705.5,270.167 705.5,190.5C 700.473,190.503 695.473,190.836 690.5,191.5C 695.553,189.74 700.886,189.073 706.5,189.5C 706.833,271.002 706.499,352.335 705.5,433.5 Z"/></g>
<g><path style="opacity:1" fill="#19adba" d="M 285.5,300.5 C 290.354,290.906 298.021,284.906 308.5,282.5C 311.167,282.167 313.833,281.833 316.5,281.5C 316.33,282.822 316.663,283.989 317.5,285C 306.902,291.214 296.735,298.047 287,305.5C 286.392,303.846 285.892,302.179 285.5,300.5 Z"/></g>
<g><path style="opacity:1" fill="#05b3bb" d="M 317.5,279.5 C 319.948,280.473 322.615,280.806 325.5,280.5C 325.5,301.167 325.5,321.833 325.5,342.5C 324.833,342.5 324.5,342.167 324.5,341.5C 324.454,330.457 324.454,319.624 324.5,309C 324,308.5 323.5,308 323,307.5C 322.506,309.134 322.34,310.801 322.5,312.5C 321.209,313.778 319.209,314.445 316.5,314.5C 316.421,315.93 316.754,317.264 317.5,318.5C 316.975,319.192 316.308,319.692 315.5,320C 319.04,320.329 320.206,322.162 319,325.5C 318.667,324.833 318.333,324.167 318,323.5C 317.167,324.5 316.333,325.5 315.5,326.5C 314.667,325.5 313.833,324.5 313,323.5C 312.228,324.849 311.061,325.682 309.5,326C 311.271,326.535 311.604,327.369 310.5,328.5C 307.648,329.29 305.481,330.956 304,333.5C 303.692,332.692 303.192,332.025 302.5,331.5C 301.119,333.691 299.119,335.024 296.5,335.5C 297.506,336.396 297.506,337.062 296.5,337.5C 295.575,336.359 294.741,336.359 294,337.5C 292.748,335.999 291.748,334.332 291,332.5C 290.667,332.833 290.333,333.167 290,333.5C 287.346,332.004 284.846,330.337 282.5,328.5C 282.672,327.508 282.338,326.842 281.5,326.5C 281.167,326.5 280.833,326.5 280.5,326.5C 280.334,321.821 280.501,317.155 281,312.5C 281.441,308 282.941,304 285.5,300.5C 285.892,302.179 286.392,303.846 287,305.5C 296.735,298.047 306.902,291.214 317.5,285C 316.663,283.989 316.33,282.822 316.5,281.5C 313.833,281.833 311.167,282.167 308.5,282.5C 311.215,280.928 314.215,279.928 317.5,279.5 Z"/></g>
<g><path style="opacity:1" fill="#07c4c2" d="M 422.5,298.5 C 422.279,307.866 422.613,317.199 423.5,326.5C 421.871,328.06 420.704,327.727 420,325.5C 419.798,327.256 419.298,328.922 418.5,330.5C 407.463,338.29 396.463,345.957 385.5,353.5C 382.29,353.604 379.29,352.604 376.5,350.5C 376.066,339.035 377.066,327.702 379.5,316.5C 383.095,313.537 387.095,311.37 391.5,310C 393.245,306.753 395.745,305.586 399,306.5C 399.5,306 400,305.5 400.5,305C 399.66,303.334 400.16,303.167 402,304.5C 406.665,299.48 411.998,295.147 418,291.5C 418.333,291.833 418.667,292.167 419,292.5C 419.333,291.5 419.667,290.5 420,289.5C 420.841,292.628 421.675,295.628 422.5,298.5 Z"/></g>
<g><path style="opacity:0.538" fill="#b8e1dd" d="M 562.5,286.5 C 563.268,287.263 563.768,288.263 564,289.5C 564.499,295.157 564.666,300.824 564.5,306.5C 564.5,311.5 564.5,316.5 564.5,321.5C 563.833,322.5 563.167,323.5 562.5,324.5C 563.833,311.833 563.833,299.167 562.5,286.5 Z"/></g>
<g><path style="opacity:1" fill="#7dd1cb" d="M 610.5,296.5 C 610.667,313.837 610.5,331.17 610,348.5C 609.5,335.838 609.333,323.171 609.5,310.5C 609.666,306.154 609.499,301.821 609,297.5C 607.488,298.257 606.154,299.257 605,300.5C 604.667,299.833 604.333,299.167 604,298.5C 603.51,299.793 603.343,301.127 603.5,302.5C 601.201,303.138 599.034,304.138 597,305.5C 596.667,305.167 596.333,304.833 596,304.5C 595.579,307.265 594.079,308.432 591.5,308C 595.446,304.919 594.779,303.585 589.5,304C 590.731,305.183 590.731,306.349 589.5,307.5C 589.167,306.833 588.833,306.167 588.5,305.5C 581.974,309.187 575.474,312.853 569,316.5C 567.415,315.624 566.415,314.291 566,312.5C 565.819,315.695 565.319,318.695 564.5,321.5C 564.5,316.5 564.5,311.5 564.5,306.5C 565.325,302.353 565.825,298.019 566,293.5C 566.626,295.991 567.459,295.991 568.5,293.5C 570.412,293.488 572.412,293.821 574.5,294.5C 580.589,291.61 585.922,287.777 590.5,283C 596.401,279.926 602.401,277.093 608.5,274.5C 609.314,279.294 609.981,286.628 610.5,296.5 Z"/></g>
<g><path style="opacity:0.773" fill="#74d3d0" d="M 424.5,287.5 C 423.401,298.466 423.235,309.466 424,320.5C 424.561,323.279 425.394,325.946 426.5,328.5C 425.29,328.068 424.29,327.401 423.5,326.5C 422.613,317.199 422.279,307.866 422.5,298.5C 422.335,295.15 422.502,291.817 423,288.5C 423.383,287.944 423.883,287.611 424.5,287.5 Z"/></g>
<g><path style="opacity:1" fill="#8ad3cc" d="M 609.5,310.5 C 608.776,312.218 608.109,314.052 607.5,316C 603.083,316.134 599.416,317.801 596.5,321C 562.446,338.67 529.446,358.003 497.5,379C 492.99,381.299 488.323,383.299 483.5,385C 484.469,386.758 485.636,387.258 487,386.5C 489.405,387.274 491.905,387.774 494.5,388C 483.172,388.5 471.838,388.667 460.5,388.5C 459.194,387.533 458.527,386.199 458.5,384.5C 459.873,384.657 461.207,384.49 462.5,384C 461.549,383.282 461.383,382.449 462,381.5C 475.112,374.112 488.612,365.779 502.5,356.5C 510.525,352.616 517.691,348.283 524,343.5C 524.583,345.002 525.416,346.335 526.5,347.5C 529.871,345.154 533.204,342.821 536.5,340.5C 539.785,339.676 543.118,339.176 546.5,339C 539.987,338.828 533.653,338.328 527.5,337.5C 535.174,337.666 542.841,337.5 550.5,337C 552.32,336.8 553.653,335.966 554.5,334.5C 557.636,331.571 560.303,328.238 562.5,324.5C 563.167,323.5 563.833,322.5 564.5,321.5C 565.319,318.695 565.819,315.695 566,312.5C 566.415,314.291 567.415,315.624 569,316.5C 575.474,312.853 581.974,309.187 588.5,305.5C 588.833,306.167 589.167,306.833 589.5,307.5C 590.731,306.349 590.731,305.183 589.5,304C 594.779,303.585 595.446,304.919 591.5,308C 594.079,308.432 595.579,307.265 596,304.5C 596.333,304.833 596.667,305.167 597,305.5C 599.034,304.138 601.201,303.138 603.5,302.5C 603.343,301.127 603.51,299.793 604,298.5C 604.333,299.167 604.667,299.833 605,300.5C 606.154,299.257 607.488,298.257 609,297.5C 609.499,301.821 609.666,306.154 609.5,310.5 Z"/></g>
<g><path style="opacity:1" fill="#00b8be" d="M 324.5,341.5 C 322.328,345.459 318.994,348.292 314.5,350C 315.654,350.914 315.487,351.747 314,352.5C 313.667,352.167 313.333,351.833 313,351.5C 311.89,353.037 310.39,353.703 308.5,353.5C 308.378,357.838 308.045,358.172 307.5,354.5C 303.727,355.178 300.894,353.844 299,350.5C 293.696,344.192 288.363,337.858 283,331.5C 282.517,330.552 282.351,329.552 282.5,328.5C 284.846,330.337 287.346,332.004 290,333.5C 290.333,333.167 290.667,332.833 291,332.5C 291.748,334.332 292.748,335.999 294,337.5C 294.741,336.359 295.575,336.359 296.5,337.5C 297.506,337.062 297.506,336.396 296.5,335.5C 299.119,335.024 301.119,333.691 302.5,331.5C 303.192,332.025 303.692,332.692 304,333.5C 305.481,330.956 307.648,329.29 310.5,328.5C 311.604,327.369 311.271,326.535 309.5,326C 311.061,325.682 312.228,324.849 313,323.5C 313.833,324.5 314.667,325.5 315.5,326.5C 316.333,325.5 317.167,324.5 318,323.5C 318.333,324.167 318.667,324.833 319,325.5C 320.206,322.162 319.04,320.329 315.5,320C 316.308,319.692 316.975,319.192 317.5,318.5C 316.754,317.264 316.421,315.93 316.5,314.5C 319.209,314.445 321.209,313.778 322.5,312.5C 322.34,310.801 322.506,309.134 323,307.5C 323.5,308 324,308.5 324.5,309C 324.454,319.624 324.454,330.457 324.5,341.5 Z"/></g>
<g><path style="opacity:1" fill="#95d4ce" d="M 610.5,265.5 C 611.167,279.329 611.5,293.329 611.5,307.5C 611.619,323.537 611.119,339.537 610,355.5C 603.178,375.988 589.012,387.155 567.5,389C 517.332,389.832 467.332,389.665 417.5,388.5C 431.833,388.5 446.167,388.5 460.5,388.5C 471.838,388.667 483.172,388.5 494.5,388C 491.905,387.774 489.405,387.274 487,386.5C 485.636,387.258 484.469,386.758 483.5,385C 488.323,383.299 492.99,381.299 497.5,379C 529.446,358.003 562.446,338.67 596.5,321C 599.416,317.801 603.083,316.134 607.5,316C 608.109,314.052 608.776,312.218 609.5,310.5C 609.333,323.171 609.5,335.838 610,348.5C 610.5,331.17 610.667,313.837 610.5,296.5C 610.5,286.167 610.5,275.833 610.5,265.5 Z"/></g>
<g><path style="opacity:1" fill="#00bdbf" d="M 281.5,326.5 C 282.338,326.842 282.672,327.508 282.5,328.5C 282.351,329.552 282.517,330.552 283,331.5C 288.363,337.858 293.696,344.192 299,350.5C 300.894,353.844 303.727,355.178 307.5,354.5C 308.045,358.172 308.378,357.838 308.5,353.5C 310.39,353.703 311.89,353.037 313,351.5C 313.333,351.833 313.667,352.167 314,352.5C 315.487,351.747 315.654,350.914 314.5,350C 318.994,348.292 322.328,345.459 324.5,341.5C 324.5,342.167 324.833,342.5 325.5,342.5C 325.667,357.504 325.5,372.504 325,387.5C 324.667,383.5 324.333,379.5 324,375.5C 323.333,376.833 322.667,378.167 322,379.5C 320.337,377.083 318.171,375.25 315.5,374C 316.167,373.667 316.833,373.333 317.5,373C 316.333,372.5 315.5,371.667 315,370.5C 314.667,371.167 314.333,371.833 314,372.5C 303.334,361.075 293.334,348.408 284,334.5C 283.667,335.5 283.333,336.5 283,337.5C 282.802,335.618 282.302,333.952 281.5,332.5C 281.5,330.5 281.5,328.5 281.5,326.5 Z"/></g>
<g><path style="opacity:0.902" fill="#abdedb" d="M 426.5,328.5 C 428.5,329.833 430.167,331.5 431.5,333.5C 428.833,332.833 427.167,331.167 426.5,328.5 Z"/></g>
<g><path style="opacity:1" fill="#4bc9c6" d="M 423.5,326.5 C 424.29,327.401 425.29,328.068 426.5,328.5C 427.167,331.167 428.833,332.833 431.5,333.5C 431.721,334.735 432.388,335.735 433.5,336.5C 432.754,337.736 432.421,339.07 432.5,340.5C 435.99,340.151 438.323,341.651 439.5,345C 437.754,345.471 436.087,346.138 434.5,347C 434.833,347.333 435.167,347.667 435.5,348C 433.866,348.494 432.199,348.66 430.5,348.5C 430.5,349.5 430.5,350.5 430.5,351.5C 429.127,351.343 427.793,351.51 426.5,352C 424.044,354.067 421.378,355.901 418.5,357.5C 417.289,358.274 417.289,359.107 418.5,360C 411.828,361.317 406.328,364.483 402,369.5C 400.883,369.335 399.716,369.002 398.5,368.5C 395.964,371.051 394.298,370.384 393.5,366.5C 392.12,367.976 390.453,368.976 388.5,369.5C 386.473,368.487 384.473,367.487 382.5,366.5C 378.848,361.849 376.848,356.516 376.5,350.5C 379.29,352.604 382.29,353.604 385.5,353.5C 396.463,345.957 407.463,338.29 418.5,330.5C 419.298,328.922 419.798,327.256 420,325.5C 420.704,327.727 421.871,328.06 423.5,326.5 Z"/></g>
<g><path style="opacity:1" fill="#28c7c5" d="M 317.5,279.5 C 320.833,279.5 324.167,279.5 327.5,279.5C 327.5,315.5 327.5,351.5 327.5,387.5C 326.842,388.793 326.508,390.293 326.5,392C 326.408,394.821 327.074,397.321 328.5,399.5C 329.404,400.209 329.737,401.209 329.5,402.5C 329.813,405.247 329.48,407.914 328.5,410.5C 325.167,408.165 322.167,405.498 319.5,402.5C 315.812,397.265 312.646,391.599 310,385.5C 306.945,382.449 304.279,379.116 302,375.5C 298.609,369.753 295.609,363.753 293,357.5C 289.406,351.971 285.572,346.637 281.5,341.5C 281.5,338.5 281.5,335.5 281.5,332.5C 282.302,333.952 282.802,335.618 283,337.5C 283.333,336.5 283.667,335.5 284,334.5C 293.334,348.408 303.334,361.075 314,372.5C 314.333,371.833 314.667,371.167 315,370.5C 315.5,371.667 316.333,372.5 317.5,373C 316.833,373.333 316.167,373.667 315.5,374C 318.171,375.25 320.337,377.083 322,379.5C 322.667,378.167 323.333,376.833 324,375.5C 324.333,379.5 324.667,383.5 325,387.5C 325.5,372.504 325.667,357.504 325.5,342.5C 325.5,321.833 325.5,301.167 325.5,280.5C 322.615,280.806 319.948,280.473 317.5,279.5 Z"/></g>
<g><path style="opacity:0.32" fill="#b3dedb" d="M 554.5,334.5 C 553.653,335.966 552.32,336.8 550.5,337C 542.841,337.5 535.174,337.666 527.5,337.5C 514.989,337.829 502.655,337.495 490.5,336.5C 510.169,336.667 529.836,336.5 549.5,336C 551.154,335.392 552.821,334.892 554.5,334.5 Z"/></g>
<g><path style="opacity:1" fill="#65ccc8" d="M 431.5,333.5 C 436.181,335.88 441.181,336.88 446.5,336.5C 460.327,337.331 474.327,337.831 488.5,338C 490.058,338.21 491.391,338.71 492.5,339.5C 483.475,339.168 474.475,339.502 465.5,340.5C 466.533,341.452 467.7,341.452 469,340.5C 470.371,341.581 471.871,342.415 473.5,343C 468.323,345.424 463.156,347.924 458,350.5C 457.692,349.692 457.192,349.025 456.5,348.5C 455.289,349.274 455.289,350.107 456.5,351C 451.626,354.595 446.626,357.262 441.5,359C 441.833,359.333 442.167,359.667 442.5,360C 438.667,362.5 434.833,365 431,367.5C 431.263,368.951 431.096,370.284 430.5,371.5C 424.715,369.936 420.548,371.936 418,377.5C 417.667,377.167 417.333,376.833 417,376.5C 413.884,378.967 410.718,381.301 407.5,383.5C 408.391,384.59 409.391,384.59 410.5,383.5C 411.386,384.325 411.719,385.325 411.5,386.5C 410.167,386.5 408.833,386.5 407.5,386.5C 396.28,383.396 387.947,376.729 382.5,366.5C 384.473,367.487 386.473,368.487 388.5,369.5C 390.453,368.976 392.12,367.976 393.5,366.5C 394.298,370.384 395.964,371.051 398.5,368.5C 399.716,369.002 400.883,369.335 402,369.5C 406.328,364.483 411.828,361.317 418.5,360C 417.289,359.107 417.289,358.274 418.5,357.5C 421.378,355.901 424.044,354.067 426.5,352C 427.793,351.51 429.127,351.343 430.5,351.5C 430.5,350.5 430.5,349.5 430.5,348.5C 432.199,348.66 433.866,348.494 435.5,348C 435.167,347.667 434.833,347.333 434.5,347C 436.087,346.138 437.754,345.471 439.5,345C 438.323,341.651 435.99,340.151 432.5,340.5C 432.421,339.07 432.754,337.736 433.5,336.5C 432.388,335.735 431.721,334.735 431.5,333.5 Z"/></g>
<g><path style="opacity:1" fill="#7fd1cc" d="M 446.5,336.5 C 461.167,336.5 475.833,336.5 490.5,336.5C 502.655,337.495 514.989,337.829 527.5,337.5C 533.653,338.328 539.987,338.828 546.5,339C 543.118,339.176 539.785,339.676 536.5,340.5C 533.204,342.821 529.871,345.154 526.5,347.5C 525.416,346.335 524.583,345.002 524,343.5C 517.691,348.283 510.525,352.616 502.5,356.5C 488.612,365.779 475.112,374.112 462,381.5C 461.383,382.449 461.549,383.282 462.5,384C 461.207,384.49 459.873,384.657 458.5,384.5C 458.527,386.199 459.194,387.533 460.5,388.5C 446.167,388.5 431.833,388.5 417.5,388.5C 413.84,388.841 410.507,388.175 407.5,386.5C 408.833,386.5 410.167,386.5 411.5,386.5C 414.723,387.925 417.89,387.592 421,385.5C 422.444,387.155 424.278,387.822 426.5,387.5C 426.5,386.5 426.5,385.5 426.5,384.5C 427.833,384.5 429.167,384.5 430.5,384.5C 430.281,383.325 430.614,382.325 431.5,381.5C 453.724,368.794 474.724,355.294 494.5,341C 493.956,340.283 493.289,339.783 492.5,339.5C 491.391,338.71 490.058,338.21 488.5,338C 474.327,337.831 460.327,337.331 446.5,336.5 Z"/></g>
<g><path style="opacity:1" fill="#6fcfca" d="M 492.5,339.5 C 493.289,339.783 493.956,340.283 494.5,341C 474.724,355.294 453.724,368.794 431.5,381.5C 430.614,382.325 430.281,383.325 430.5,384.5C 429.167,384.5 427.833,384.5 426.5,384.5C 426.5,385.5 426.5,386.5 426.5,387.5C 424.278,387.822 422.444,387.155 421,385.5C 417.89,387.592 414.723,387.925 411.5,386.5C 411.719,385.325 411.386,384.325 410.5,383.5C 409.391,384.59 408.391,384.59 407.5,383.5C 410.718,381.301 413.884,378.967 417,376.5C 417.333,376.833 417.667,377.167 418,377.5C 420.548,371.936 424.715,369.936 430.5,371.5C 431.096,370.284 431.263,368.951 431,367.5C 434.833,365 438.667,362.5 442.5,360C 442.167,359.667 441.833,359.333 441.5,359C 446.626,357.262 451.626,354.595 456.5,351C 455.289,350.107 455.289,349.274 456.5,348.5C 457.192,349.025 457.692,349.692 458,350.5C 463.156,347.924 468.323,345.424 473.5,343C 471.871,342.415 470.371,341.581 469,340.5C 467.7,341.452 466.533,341.452 465.5,340.5C 474.475,339.502 483.475,339.168 492.5,339.5 Z"/></g>
<g><path style="opacity:1" fill="#8dd3cd" d="M 281.5,372.5 C 286.42,382.63 292.92,391.63 301,399.5C 302.113,400.76 302.28,401.927 301.5,403C 307.352,409.551 311.519,417.051 314,425.5C 317.316,430.478 320.983,435.145 325,439.5C 332.502,454.215 340.002,468.882 347.5,483.5C 344.543,483.477 342.043,482.477 340,480.5C 339.586,480.957 339.086,481.291 338.5,481.5C 337.833,480.5 337.167,479.5 336.5,478.5C 335.914,478.709 335.414,479.043 335,479.5C 333.354,477.403 331.354,475.736 329,474.5C 328.937,471.525 329.604,471.192 331,473.5C 331.756,471.191 331.256,469.191 329.5,467.5C 330.55,465.898 329.883,465.065 327.5,465C 327.959,463.057 326.959,461.724 324.5,461C 324.833,460.667 325.167,460.333 325.5,460C 323.363,461.441 321.03,461.775 318.5,461C 319.696,461.654 319.696,462.154 318.5,462.5C 317.086,461.376 315.586,460.376 314,459.5C 313.667,459.833 313.333,460.167 313,460.5C 310.15,455.716 306.983,451.883 303.5,449C 304.833,447 306.167,445 307.5,443C 305.968,442.3 304.968,441.134 304.5,439.5C 306.673,436.76 309.506,435.094 313,434.5C 313.667,433.167 313.667,431.833 313,430.5C 312.331,433.028 311.498,433.028 310.5,430.5C 308.994,429.253 307.494,429.253 306,430.5C 304.488,429.743 303.154,428.743 302,427.5C 301.161,428.624 299.994,429.291 298.5,429.5C 293.863,427.091 290.529,423.924 288.5,420C 288.094,416.265 287.094,412.765 285.5,409.5C 285.709,408.914 286.043,408.414 286.5,408C 285.87,404.871 285.204,401.704 284.5,398.5C 284.26,399.837 283.76,401.503 283,403.5C 282.15,398.399 283.316,393.899 286.5,390C 285.745,387.867 284.412,386.2 282.5,385C 283.654,384.086 283.487,383.253 282,382.5C 281.502,379.183 281.335,375.85 281.5,372.5 Z"/></g>
<g><path style="opacity:1" fill="#7ed1cb" d="M 280.5,326.5 C 280.833,326.5 281.167,326.5 281.5,326.5C 281.5,328.5 281.5,330.5 281.5,332.5C 281.5,335.5 281.5,338.5 281.5,341.5C 281.5,345.5 281.5,349.5 281.5,353.5C 281.109,357.383 281.776,361.05 283.5,364.5C 284.376,365.251 285.376,365.751 286.5,366C 285.151,367.635 285.318,369.135 287,370.5C 287.333,370.167 287.667,369.833 288,369.5C 288.494,371.134 288.66,372.801 288.5,374.5C 289.552,374.351 290.552,374.517 291.5,375C 291.167,375.333 290.833,375.667 290.5,376C 293.365,381.797 296.699,387.297 300.5,392.5C 301.167,391.833 301.833,391.167 302.5,390.5C 303.652,392.818 305.319,394.652 307.5,396C 306.044,396.423 305.544,397.256 306,398.5C 312.214,404.94 316.881,411.94 320,419.5C 320.333,419.167 320.667,418.833 321,418.5C 321.627,422.609 323.793,425.276 327.5,426.5C 328.382,429.156 329.715,431.656 331.5,434C 332.784,434.684 333.951,434.517 335,433.5C 335.507,434.996 335.007,436.163 333.5,437C 335.589,438.171 337.589,439.504 339.5,441C 338.328,442.868 338.495,444.702 340,446.5C 340.535,444.729 341.369,444.396 342.5,445.5C 339.557,448.18 339.89,448.847 343.5,447.5C 344.833,450.833 347.167,453.167 350.5,454.5C 351.799,453.91 352.632,452.91 353,451.5C 353.333,452.167 353.667,452.833 354,453.5C 355.678,447.165 357.012,441.498 358,436.5C 358.333,436.167 358.667,435.833 359,435.5C 360.584,436.861 362.418,437.528 364.5,437.5C 377.16,438.342 390.16,438.675 403.5,438.5C 398.651,439.574 393.651,440.574 388.5,441.5C 386.983,444.475 387.649,445.142 390.5,443.5C 391.737,443.556 392.737,444.056 393.5,445C 389.312,446.826 388.312,449.326 390.5,452.5C 390.617,455.808 389.95,456.141 388.5,453.5C 384.65,456.036 382.984,454.703 383.5,449.5C 387.838,449.378 388.172,449.045 384.5,448.5C 384.664,445.813 384.497,443.146 384,440.5C 383.81,444.188 382.976,447.688 381.5,451C 382.34,452.666 381.84,452.833 380,451.5C 379.251,452.635 379.417,453.635 380.5,454.5C 381.965,453.391 382.965,453.891 383.5,456C 383.167,456.333 382.833,456.667 382.5,457C 382.932,460.997 383.932,464.83 385.5,468.5C 384.218,470.179 383.218,472.013 382.5,474C 383.5,474.333 384.5,474.667 385.5,475C 384.299,475.903 383.465,477.069 383,478.5C 383.128,480.445 382.962,482.278 382.5,484C 384.058,484.21 385.391,484.71 386.5,485.5C 369.497,485.667 352.497,485.5 335.5,485C 339.688,484.824 343.688,484.324 347.5,483.5C 340.002,468.882 332.502,454.215 325,439.5C 320.983,435.145 317.316,430.478 314,425.5C 311.519,417.051 307.352,409.551 301.5,403C 302.28,401.927 302.113,400.76 301,399.5C 292.92,391.63 286.42,382.63 281.5,372.5C 281.81,369.287 281.477,366.287 280.5,363.5C 280.5,351.167 280.5,338.833 280.5,326.5 Z"/></g>
<g><path style="opacity:0.933" fill="#96dcd9" d="M 327.5,387.5 C 327.646,391.519 327.979,395.519 328.5,399.5C 327.074,397.321 326.408,394.821 326.5,392C 326.508,390.293 326.842,388.793 327.5,387.5 Z"/></g>
<g><path style="opacity:0.682" fill="#9ac4d6" d="M 651.5,414.5 C 651.573,416.027 650.906,417.027 649.5,417.5C 649.427,415.973 650.094,414.973 651.5,414.5 Z"/></g>
<g><path style="opacity:1" fill="#62cdc9" d="M 281.5,341.5 C 285.572,346.637 289.406,351.971 293,357.5C 295.609,363.753 298.609,369.753 302,375.5C 304.279,379.116 306.945,382.449 310,385.5C 312.646,391.599 315.812,397.265 319.5,402.5C 322.167,405.498 325.167,408.165 328.5,410.5C 329.48,407.914 329.813,405.247 329.5,402.5C 332.049,408.592 335.382,414.259 339.5,419.5C 339.511,421.017 340.177,422.184 341.5,423C 340.306,425.658 341.306,426.824 344.5,426.5C 344.113,429.254 343.779,431.754 343.5,434C 340.428,434.8 338.761,433.633 338.5,430.5C 335.235,430.082 332.235,428.915 329.5,427C 329.957,426.586 330.291,426.086 330.5,425.5C 329.147,424.476 328.48,423.143 328.5,421.5C 327.5,421.5 326.5,421.5 325.5,421.5C 324.227,417.303 321.727,413.97 318,411.5C 311.552,399.919 305.218,387.919 299,375.5C 295.418,372.678 293.085,369.012 292,364.5C 291.147,362.875 290.147,362.542 289,363.5C 288.316,362.216 288.483,361.049 289.5,360C 286.967,358.967 285.301,357.133 284.5,354.5C 283.675,353.614 282.675,353.281 281.5,353.5C 281.5,349.5 281.5,345.5 281.5,341.5 Z"/></g>
<g><path style="opacity:0.906" fill="#84b8d0" d="M 647.5,419.5 C 646.167,422.833 643.833,425.167 640.5,426.5C 642.5,423.833 644.833,421.5 647.5,419.5 Z"/></g>
<g><path style="opacity:1" fill="#74cfca" d="M 281.5,353.5 C 282.675,353.281 283.675,353.614 284.5,354.5C 285.301,357.133 286.967,358.967 289.5,360C 288.483,361.049 288.316,362.216 289,363.5C 290.147,362.542 291.147,362.875 292,364.5C 293.085,369.012 295.418,372.678 299,375.5C 305.218,387.919 311.552,399.919 318,411.5C 321.727,413.97 324.227,417.303 325.5,421.5C 326.5,421.5 327.5,421.5 328.5,421.5C 328.48,423.143 329.147,424.476 330.5,425.5C 330.291,426.086 329.957,426.586 329.5,427C 332.235,428.915 335.235,430.082 338.5,430.5C 338.761,433.633 340.428,434.8 343.5,434C 343.779,431.754 344.113,429.254 344.5,426.5C 341.306,426.824 340.306,425.658 341.5,423C 340.177,422.184 339.511,421.017 339.5,419.5C 345.654,425.738 352.654,430.738 360.5,434.5C 361.833,435.5 363.167,436.5 364.5,437.5C 362.418,437.528 360.584,436.861 359,435.5C 358.667,435.833 358.333,436.167 358,436.5C 357.012,441.498 355.678,447.165 354,453.5C 353.667,452.833 353.333,452.167 353,451.5C 352.632,452.91 351.799,453.91 350.5,454.5C 347.167,453.167 344.833,450.833 343.5,447.5C 339.89,448.847 339.557,448.18 342.5,445.5C 341.369,444.396 340.535,444.729 340,446.5C 338.495,444.702 338.328,442.868 339.5,441C 337.589,439.504 335.589,438.171 333.5,437C 335.007,436.163 335.507,434.996 335,433.5C 333.951,434.517 332.784,434.684 331.5,434C 329.715,431.656 328.382,429.156 327.5,426.5C 323.793,425.276 321.627,422.609 321,418.5C 320.667,418.833 320.333,419.167 320,419.5C 316.881,411.94 312.214,404.94 306,398.5C 305.544,397.256 306.044,396.423 307.5,396C 305.319,394.652 303.652,392.818 302.5,390.5C 301.833,391.167 301.167,391.833 300.5,392.5C 296.699,387.297 293.365,381.797 290.5,376C 290.833,375.667 291.167,375.333 291.5,375C 290.552,374.517 289.552,374.351 288.5,374.5C 288.66,372.801 288.494,371.134 288,369.5C 287.667,369.833 287.333,370.167 287,370.5C 285.318,369.135 285.151,367.635 286.5,366C 285.376,365.751 284.376,365.251 283.5,364.5C 281.776,361.05 281.109,357.383 281.5,353.5 Z"/></g>
<g><path style="opacity:0.463" fill="#97c6d8" d="M 628.5,433.5 C 627.22,434.931 625.553,435.598 623.5,435.5C 624.78,434.069 626.447,433.402 628.5,433.5 Z"/></g>
<g><path style="opacity:0.531" fill="#c7e5e3" d="M 360.5,434.5 C 364.417,435.637 368.417,436.47 372.5,437C 409.171,437.167 445.838,437.667 482.5,438.5C 482.043,439.298 481.376,439.631 480.5,439.5C 455.005,438.502 429.339,438.169 403.5,438.5C 390.16,438.675 377.16,438.342 364.5,437.5C 363.167,436.5 361.833,435.5 360.5,434.5 Z"/></g>
<g><path style="opacity:0.549" fill="#94c3d9" d="M 623.5,435.5 C 620.833,436.5 618.167,437.5 615.5,438.5C 577.813,438.198 540.147,438.531 502.5,439.5C 503.609,438.71 504.942,438.21 506.5,438C 541.833,437.667 577.167,437.333 612.5,437C 616.145,436.281 619.812,435.781 623.5,435.5 Z"/></g>
<g><path style="opacity:1" fill="#1588b6" d="M 615.5,438.5 C 580.983,439.087 546.317,439.921 511.5,441C 512.833,441.667 512.833,442.333 511.5,443C 509.275,443.561 507.275,444.561 505.5,446C 506.5,446.333 507.5,446.667 508.5,447C 507.167,448 507.167,449 508.5,450C 507.333,451.833 505.833,453.333 504,454.5C 503.667,453.833 503.333,453.167 503,452.5C 502.51,453.793 502.343,455.127 502.5,456.5C 506.135,456.656 506.468,457.822 503.5,460C 503.404,461.373 503.57,462.873 504,464.5C 502.984,463.366 502.317,463.699 502,465.5C 500.927,464.72 499.76,464.887 498.5,466C 497.167,466.667 497.167,467.333 498.5,468C 494.579,470.278 491.412,473.444 489,477.5C 488.259,476.359 487.425,476.359 486.5,477.5C 485.818,476.757 485.151,476.091 484.5,475.5C 483.167,470.5 483.167,465.5 484.5,460.5C 486.074,458.898 486.741,456.898 486.5,454.5C 487.906,454.027 488.573,453.027 488.5,451.5C 489.906,451.027 490.573,450.027 490.5,448.5C 493.418,444.043 497.418,441.043 502.5,439.5C 540.147,438.531 577.813,438.198 615.5,438.5 Z"/></g>
<g><path style="opacity:1" fill="#94d5ce" d="M 280.5,363.5 C 281.477,366.287 281.81,369.287 281.5,372.5C 281.335,375.85 281.502,379.183 282,382.5C 283.487,383.253 283.654,384.086 282.5,385C 284.412,386.2 285.745,387.867 286.5,390C 283.316,393.899 282.15,398.399 283,403.5C 283.76,401.503 284.26,399.837 284.5,398.5C 285.204,401.704 285.87,404.871 286.5,408C 286.043,408.414 285.709,408.914 285.5,409.5C 287.094,412.765 288.094,416.265 288.5,420C 290.529,423.924 293.863,427.091 298.5,429.5C 299.994,429.291 301.161,428.624 302,427.5C 303.154,428.743 304.488,429.743 306,430.5C 307.494,429.253 308.994,429.253 310.5,430.5C 311.498,433.028 312.331,433.028 313,430.5C 313.667,431.833 313.667,433.167 313,434.5C 309.506,435.094 306.673,436.76 304.5,439.5C 304.968,441.134 305.968,442.3 307.5,443C 306.167,445 304.833,447 303.5,449C 306.983,451.883 310.15,455.716 313,460.5C 313.333,460.167 313.667,459.833 314,459.5C 315.586,460.376 317.086,461.376 318.5,462.5C 319.696,462.154 319.696,461.654 318.5,461C 321.03,461.775 323.363,461.441 325.5,460C 325.167,460.333 324.833,460.667 324.5,461C 326.959,461.724 327.959,463.057 327.5,465C 329.883,465.065 330.55,465.898 329.5,467.5C 331.256,469.191 331.756,471.191 331,473.5C 329.604,471.192 328.937,471.525 329,474.5C 331.354,475.736 333.354,477.403 335,479.5C 335.414,479.043 335.914,478.709 336.5,478.5C 337.167,479.5 337.833,480.5 338.5,481.5C 339.086,481.291 339.586,480.957 340,480.5C 342.043,482.477 344.543,483.477 347.5,483.5C 343.688,484.324 339.688,484.824 335.5,485C 352.497,485.5 369.497,485.667 386.5,485.5C 395.173,485.666 403.84,485.5 412.5,485C 410.5,484.667 408.5,484.333 406.5,484C 407.337,482.989 407.67,481.822 407.5,480.5C 409.201,480.034 410.701,480.034 412,480.5C 413.113,479.24 413.28,478.073 412.5,477C 413.128,474.2 414.128,471.533 415.5,469C 413.756,466.037 413.256,462.871 414,459.5C 414.915,460.328 415.581,461.328 416,462.5C 416.175,458.789 416.675,455.122 417.5,451.5C 417.36,453.256 417.86,454.922 419,456.5C 419.944,453.653 419.444,451.153 417.5,449C 418.428,448.612 419.095,447.945 419.5,447C 418.656,444.606 417.323,443.439 415.5,443.5C 416.853,442.476 417.52,441.143 417.5,439.5C 438.242,439.179 458.909,439.512 479.5,440.5C 472.775,449.73 469.942,460.063 471,471.5C 471.711,476.988 472.711,482.321 474,487.5C 431.247,486.375 388.913,486.375 347,487.5C 310.897,485.394 288.897,466.727 281,431.5C 280.5,408.836 280.333,386.169 280.5,363.5 Z"/></g>
<g><path style="opacity:1" fill="#8ad3cc" d="M 403.5,438.5 C 429.339,438.169 455.005,438.502 480.5,439.5C 480.5,440.167 480.167,440.5 479.5,440.5C 458.909,439.512 438.242,439.179 417.5,439.5C 417.52,441.143 416.853,442.476 415.5,443.5C 417.323,443.439 418.656,444.606 419.5,447C 419.095,447.945 418.428,448.612 417.5,449C 419.444,451.153 419.944,453.653 419,456.5C 417.86,454.922 417.36,453.256 417.5,451.5C 416.675,455.122 416.175,458.789 416,462.5C 415.581,461.328 414.915,460.328 414,459.5C 413.256,462.871 413.756,466.037 415.5,469C 414.128,471.533 413.128,474.2 412.5,477C 413.28,478.073 413.113,479.24 412,480.5C 410.701,480.034 409.201,480.034 407.5,480.5C 407.67,481.822 407.337,482.989 406.5,484C 408.5,484.333 410.5,484.667 412.5,485C 403.84,485.5 395.173,485.666 386.5,485.5C 385.391,484.71 384.058,484.21 382.5,484C 382.962,482.278 383.128,480.445 383,478.5C 383.465,477.069 384.299,475.903 385.5,475C 384.5,474.667 383.5,474.333 382.5,474C 383.218,472.013 384.218,470.179 385.5,468.5C 383.932,464.83 382.932,460.997 382.5,457C 382.833,456.667 383.167,456.333 383.5,456C 382.965,453.891 381.965,453.391 380.5,454.5C 379.417,453.635 379.251,452.635 380,451.5C 381.84,452.833 382.34,452.666 381.5,451C 382.976,447.688 383.81,444.188 384,440.5C 384.497,443.146 384.664,445.813 384.5,448.5C 388.172,449.045 387.838,449.378 383.5,449.5C 382.984,454.703 384.65,456.036 388.5,453.5C 389.95,456.141 390.617,455.808 390.5,452.5C 388.312,449.326 389.312,446.826 393.5,445C 392.737,444.056 391.737,443.556 390.5,443.5C 387.649,445.142 386.983,444.475 388.5,441.5C 393.651,440.574 398.651,439.574 403.5,438.5 Z"/></g>
<g><path style="opacity:0.557" fill="#9dc7d9" d="M 703.5,442.5 C 703.598,444.553 702.931,446.22 701.5,447.5C 701.402,445.447 702.069,443.78 703.5,442.5 Z"/></g>
<g><path style="opacity:0.62" fill="#a6c8dc" d="M 490.5,448.5 C 490.573,450.027 489.906,451.027 488.5,451.5C 488.427,449.973 489.094,448.973 490.5,448.5 Z"/></g>
<g><path style="opacity:0.447" fill="#a8c7da" d="M 488.5,451.5 C 488.573,453.027 487.906,454.027 486.5,454.5C 486.427,452.973 487.094,451.973 488.5,451.5 Z"/></g>
<g><path style="opacity:0.722" fill="#96bcd3" d="M 486.5,454.5 C 486.741,456.898 486.074,458.898 484.5,460.5C 484.259,458.102 484.926,456.102 486.5,454.5 Z"/></g>
<g><path style="opacity:1" fill="#0086ba" d="M 506.5,532.5 C 511.362,532.042 514.529,534.042 516,538.5C 516.667,571.833 516.667,605.167 516,638.5C 513.156,643.866 509.156,644.866 504,641.5C 502.438,639.043 501.438,636.376 501,633.5C 489.913,643.985 477.08,646.818 462.5,642C 438.123,630.74 429.957,612.24 438,586.5C 451.451,563.02 470.618,556.52 495.5,567C 497,568.5 498.5,570 500,571.5C 500.333,560.167 500.667,548.833 501,537.5C 502.107,534.887 503.94,533.22 506.5,532.5 Z M 471.5,577.5 C 491.947,577.78 501.447,588.114 500,608.5C 496.04,623.065 486.54,629.565 471.5,628C 451.587,620.939 446.087,607.772 455,588.5C 459.318,582.933 464.818,579.267 471.5,577.5 Z"/></g>
<g><path style="opacity:0.925" fill="#03b2ba" d="M 641.5,539.5 C 672.502,539.333 703.502,539.5 734.5,540C 740.109,543.277 741.942,548.11 740,554.5C 738.833,557 737,558.833 734.5,560C 717.864,561.206 701.197,561.872 684.5,562C 684.167,562.333 683.833,562.667 683.5,563C 688.507,567.068 693.341,571.235 698,575.5C 698.989,585.856 694.156,591.356 683.5,592C 688,595.833 692.5,599.667 697,603.5C 700.129,610.411 698.296,615.578 691.5,619C 681.467,619.242 671.467,619.742 661.5,620.5C 666.467,638.674 659.801,646.841 641.5,645C 638.829,643.75 636.663,641.917 635,639.5C 634.333,628.5 634.333,617.5 635,606.5C 640.794,604.853 646.294,602.519 651.5,599.5C 647.956,595.793 643.956,592.626 639.5,590C 634.355,585.402 633.188,579.902 636,573.5C 639.787,570.086 644.287,568.253 649.5,568C 644.026,564.523 639.193,560.356 635,555.5C 633.062,548.389 635.229,543.056 641.5,539.5 Z"/></g>
<g><path style="opacity:0.947" fill="#0086ba" d="M 92.5,601.5 C 85.4019,614.86 78.4019,628.36 71.5,642C 66.7133,642.879 62.0466,642.545 57.5,641C 53.8735,638.749 52.7069,635.582 54,631.5C 67.2738,603.286 80.2738,574.953 93,546.5C 95.536,543.234 98.8694,541.9 103,542.5C 106.459,542.267 109.626,543.101 112.5,545C 126.382,573.311 139.882,601.811 153,630.5C 154.673,636.495 152.507,640.328 146.5,642C 142.375,642.854 138.375,642.52 134.5,641C 120.38,630.548 106.547,619.715 93,608.5C 92.5034,606.19 92.3367,603.857 92.5,601.5 Z M 92.5,601.5 C 95.6284,593.91 99.2951,586.577 103.5,579.5C 106.757,585.681 109.757,592.015 112.5,598.5C 112.333,598.833 112.167,599.167 112,599.5C 105.082,595.647 98.5825,596.313 92.5,601.5 Z"/></g>
<g><path style="opacity:1" fill="#8fd4cc" d="M 718.5,545.5 C 723.297,545.121 727.964,545.621 732.5,547C 735.341,550.159 734.674,552.492 730.5,554C 708.159,554.423 685.826,555.09 663.5,556C 672.5,563.167 681.5,570.333 690.5,577.5C 691.833,579.167 691.833,580.833 690.5,582.5C 686.916,584.877 683.25,585.043 679.5,583C 667.5,573.667 655.5,564.333 643.5,555C 640.833,552.333 640.833,549.667 643.5,547C 668.67,546.832 693.67,546.332 718.5,545.5 Z"/></g>
<g><path style="opacity:1" fill="#0086ba" d="M 190.5,561.5 C 202.039,560.733 211.872,564.4 220,572.5C 221.742,564.881 226.242,562.381 233.5,565C 234.701,565.903 235.535,567.069 236,568.5C 236.667,593.167 236.667,617.833 236,642.5C 231.254,668.587 215.754,680.087 189.5,677C 188.069,676.535 186.903,675.701 186,674.5C 184.557,669.788 185.723,665.955 189.5,663C 209.151,664.008 218.984,654.842 219,635.5C 207.791,644.473 195.291,646.639 181.5,642C 159.676,632.522 150.843,616.022 155,592.5C 161.112,575.551 172.945,565.218 190.5,561.5 Z M 191.5,577.5 C 211.927,578.43 221.093,589.096 219,609.5C 212.732,625.884 201.232,631.384 184.5,626C 171.919,619.001 167.419,608.501 171,594.5C 175.011,585.313 181.844,579.647 191.5,577.5 Z"/></g>
<g><path style="opacity:1" fill="#0086ba" d="M 287.5,561.5 C 306.274,560.966 320.441,568.632 330,584.5C 333.366,591.565 334.199,598.899 332.5,606.5C 331.335,607.584 330.002,608.417 328.5,609C 308.492,609.167 288.492,609.667 268.5,610.5C 274.319,625.244 284.986,630.744 300.5,627C 305.451,623.702 310.618,620.869 316,618.5C 322.418,619.992 324.751,623.992 323,630.5C 315.126,639.849 304.96,644.516 292.5,644.5C 267.065,642.232 253.065,628.398 250.5,603C 252.524,579.817 264.857,565.983 287.5,561.5 Z M 288.5,577.5 C 298.564,576.949 306.731,580.616 313,588.5C 314.707,590.909 315.54,593.575 315.5,596.5C 299.819,596.833 284.152,596.499 268.5,595.5C 272.378,586.283 279.045,580.283 288.5,577.5 Z"/></g>
<g><path style="opacity:1" fill="#0086ba" d="M 381.5,561.5 C 402.798,560.641 415.298,570.641 419,591.5C 419.667,606.833 419.667,622.167 419,637.5C 417.305,642.599 413.805,644.432 408.5,643C 406.333,642.167 404.833,640.667 404,638.5C 403.667,623.167 403.333,607.833 403,592.5C 400.955,582.791 394.955,577.791 385,577.5C 376.475,577.759 370.475,581.759 367,589.5C 366.015,606.525 365.015,623.525 364,640.5C 358.559,644.926 353.892,644.259 350,638.5C 349.333,615.167 349.333,591.833 350,568.5C 352.626,563.139 356.459,562.139 361.5,565.5C 362.5,566.833 363.5,568.167 364.5,569.5C 369.618,565.438 375.285,562.772 381.5,561.5 Z"/></g>
<g><path style="opacity:1" fill="#0086ba" d="M 568.5,561.5 C 579.186,560.507 588.519,563.507 596.5,570.5C 598.067,567.557 600.4,565.39 603.5,564C 606.742,563.414 609.575,564.247 612,566.5C 613.637,590.437 613.97,614.437 613,638.5C 609.243,644.21 604.743,644.876 599.5,640.5C 598.391,638.615 597.557,636.615 597,634.5C 581.53,646.955 565.363,647.788 548.5,637C 529.746,620.206 526.579,600.706 539,578.5C 546.768,569.039 556.601,563.373 568.5,561.5 Z M 569.5,577.5 C 589.429,578.263 598.595,588.596 597,608.5C 590.517,627.489 578.017,632.989 559.5,625C 546.649,615.041 544.149,602.874 552,588.5C 556.578,582.638 562.411,578.972 569.5,577.5 Z"/></g>
<g><path style="opacity:1" fill="#00b1b9" d="M 821.5,562.5 C 840.274,561.966 854.441,569.632 864,585.5C 867.366,592.565 868.199,599.899 866.5,607.5C 865.335,608.584 864.002,609.417 862.5,610C 842.492,610.167 822.492,610.667 802.5,611.5C 808.319,626.244 818.986,631.744 834.5,628C 839.451,624.702 844.618,621.869 850,619.5C 856.418,620.992 858.751,624.992 857,631.5C 849.126,640.849 838.96,645.516 826.5,645.5C 801.065,643.232 787.065,629.398 784.5,604C 786.524,580.817 798.857,566.983 821.5,562.5 Z M 822.5,578.5 C 832.564,577.949 840.731,581.616 847,589.5C 848.707,591.909 849.54,594.575 849.5,597.5C 833.819,597.833 818.152,597.499 802.5,596.5C 806.378,587.283 813.045,581.283 822.5,578.5 Z"/></g>
<g><path style="opacity:1" fill="#00b1b9" d="M 916.5,562.5 C 935.274,561.966 949.441,569.632 959,585.5C 962.366,592.565 963.199,599.899 961.5,607.5C 960.335,608.584 959.002,609.417 957.5,610C 937.492,610.167 917.492,610.667 897.5,611.5C 903.319,626.244 913.986,631.744 929.5,628C 934.451,624.702 939.618,621.869 945,619.5C 951.418,620.992 953.751,624.992 952,631.5C 944.126,640.849 933.96,645.516 921.5,645.5C 896.065,643.232 882.065,629.398 879.5,604C 881.524,580.817 893.857,566.983 916.5,562.5 Z M 917.5,578.5 C 927.564,577.949 935.731,581.616 942,589.5C 943.707,591.909 944.54,594.575 944.5,597.5C 928.819,597.833 913.152,597.499 897.5,596.5C 901.378,587.283 908.045,581.283 917.5,578.5 Z"/></g>
<g><path style="opacity:1" fill="#00b1b9" d="M 742.5,564.5 C 748.447,563.946 751.947,566.613 753,572.5C 759.283,566.406 766.783,563.906 775.5,565C 778.997,566.323 780.664,568.823 780.5,572.5C 780.635,574.808 779.969,576.808 778.5,578.5C 771.552,579.738 764.886,581.905 758.5,585C 756.959,586.579 755.792,588.413 755,590.5C 753.711,606.767 753.044,623.1 753,639.5C 750.774,643.861 747.274,645.361 742.5,644C 740.43,643.052 738.93,641.552 738,639.5C 737.333,616.167 737.333,592.833 738,569.5C 739.025,567.313 740.525,565.646 742.5,564.5 Z"/></g>
<g><path style="opacity:1" fill="#8ed4cc" d="M 644.5,575.5 C 647.32,575.248 649.986,575.748 652.5,577C 663.833,585.667 675.167,594.333 686.5,603C 688.904,604.403 690.571,606.403 691.5,609C 691.241,610.261 690.574,611.261 689.5,612C 677.85,612.938 666.183,613.438 654.5,613.5C 654.666,621.174 654.5,628.841 654,636.5C 649.631,640.379 645.298,640.379 641,636.5C 640.168,628.147 640.335,619.813 641.5,611.5C 648.07,609.216 654.403,606.382 660.5,603C 662.229,601.211 662.896,599.044 662.5,596.5C 654.708,592.565 647.541,587.565 641,581.5C 640.651,578.669 641.817,576.669 644.5,575.5 Z"/></g>
</svg>
