<?xml version="1.0" encoding="UTF-8"?>
<!DOCTYPE svg PUBLIC "-//W3C//DTD SVG 1.1//EN" "http://www.w3.org/Graphics/SVG/1.1/DTD/svg11.dtd">
<svg xmlns="http://www.w3.org/2000/svg" version="1.1" width="1199px" height="292px" style="shape-rendering:geometricPrecision; text-rendering:geometricPrecision; image-rendering:optimizeQuality; fill-rule:evenodd; clip-rule:evenodd" xmlns:xlink="http://www.w3.org/1999/xlink">
<g><path style="opacity:1" fill="#10b3bc" d="M 91.5,44.5 C 97.3921,43.0733 101.559,45.0733 104,50.5C 104.667,59.8333 104.667,69.1667 104,78.5C 99.6357,86.8427 94.3023,87.5094 88,80.5C 87.3333,70.1667 87.3333,59.8333 88,49.5C 88.9973,47.6769 90.1639,46.0103 91.5,44.5 Z"/></g>
<g><path style="opacity:1" fill="#1cb5be" d="M 168.5,44.5 C 173.635,43.4262 177.468,45.0928 180,49.5C 180.667,59.5 180.667,69.5 180,79.5C 174.622,87.478 169.288,87.478 164,79.5C 163.333,69.5 163.333,59.5 164,49.5C 165.059,47.3408 166.559,45.6741 168.5,44.5 Z"/></g>
<g><path style="opacity:1" fill="#0bb2bb" d="M 160.5,84.5 C 159.372,94.0819 163.038,101.582 171.5,107C 150.5,107.667 129.5,107.667 108.5,107C 115.265,106.045 120.099,102.545 123,96.5C 127.253,83.8778 124.419,73.0445 114.5,64C 115.833,63.6667 117.167,63.3333 118.5,63C 115.518,62.502 112.518,62.3354 109.5,62.5C 109.5,64.1667 109.5,65.8333 109.5,67.5C 109.5,68.8333 109.5,70.1667 109.5,71.5C 109.5,73.5 109.5,75.5 109.5,77.5C 109.5,78.1667 109.167,78.5 108.5,78.5C 108.5,72.5 108.5,66.5 108.5,60.5C 125.167,60.5 141.833,60.5 158.5,60.5C 158.062,68.6281 158.728,76.6281 160.5,84.5 Z"/></g>
<g><path style="opacity:1" fill="#06aab8" d="M 185.5,61.5 C 190.177,61.8345 194.844,62.3345 199.5,63C 196.5,63.3333 193.5,63.6667 190.5,64C 201.854,74.4697 204.021,86.6364 197,100.5C 194.01,103.491 190.51,105.657 186.5,107C 196.828,107.5 207.161,107.666 217.5,107.5C 217.519,98.13 217.353,88.7966 217,79.5C 217.232,80.7375 217.732,81.7375 218.5,82.5C 218.5,91.1667 218.5,99.8333 218.5,108.5C 162.167,108.5 105.833,108.5 49.5,108.5C 49.3337,101.159 49.5003,93.8258 50,86.5C 50.4996,93.4921 50.6663,100.492 50.5,107.5C 65.837,107.667 81.1703,107.5 96.5,107C 94.6711,106.727 93.1711,105.893 92,104.5C 90.4345,105.061 89.1011,104.394 88,102.5C 86.213,97.9258 84.713,93.2592 83.5,88.5C 83.6399,86.9704 84.3065,85.9704 85.5,85.5C 86.1667,85.5 86.5,85.8333 86.5,86.5C 84.3431,87.0533 84.5097,88.0533 87,89.5C 91.1499,103.491 99.9832,107.658 113.5,102C 121.981,93.594 123.481,84.094 118,73.5C 116.38,71.7585 114.88,69.9252 113.5,68C 112.207,67.51 110.873,67.3433 109.5,67.5C 109.5,65.8333 109.5,64.1667 109.5,62.5C 112.518,62.3354 115.518,62.502 118.5,63C 117.167,63.3333 115.833,63.6667 114.5,64C 124.419,73.0445 127.253,83.8778 123,96.5C 120.099,102.545 115.265,106.045 108.5,107C 129.5,107.667 150.5,107.667 171.5,107C 163.038,101.582 159.372,94.0819 160.5,84.5C 164.906,88.8909 170.239,90.5575 176.5,89.5C 176.158,90.3382 175.492,90.6716 174.5,90.5C 173.5,90.5 172.5,90.5 171.5,90.5C 170.167,90.5 168.833,90.5 167.5,90.5C 166.577,89.6971 165.577,89.5304 164.5,90C 170.583,103.694 179.75,106.194 192,97.5C 196.861,87.7956 196.194,78.7956 190,70.5C 188.774,68.4523 187.274,68.119 185.5,69.5C 185.5,66.8333 185.5,64.1667 185.5,61.5 Z"/></g>
<g><path style="opacity:1" fill="#08b2bb" d="M 85.5,85.5 C 84.3065,85.9704 83.6399,86.9704 83.5,88.5C 84.713,93.2592 86.213,97.9258 88,102.5C 89.1011,104.394 90.4345,105.061 92,104.5C 93.1711,105.893 94.6711,106.727 96.5,107C 81.1703,107.5 65.837,107.667 50.5,107.5C 50.6663,100.492 50.4996,93.4921 50,86.5C 49.5003,93.8258 49.3337,101.159 49.5,108.5C 49.1667,108.5 48.8333,108.5 48.5,108.5C 48.3335,98.8276 48.5002,89.1609 49,79.5C 55.5964,65.2811 66.7631,58.9477 82.5,60.5C 82.3337,67.175 82.5004,73.8417 83,80.5C 83.3661,82.4517 84.1995,84.1184 85.5,85.5 Z"/></g>
<g><path style="opacity:1" fill="#07b2bb" d="M 185.5,61.5 C 201.974,58.9503 212.974,65.617 218.5,81.5C 218.5,81.8333 218.5,82.1667 218.5,82.5C 217.732,81.7375 217.232,80.7375 217,79.5C 217.353,88.7966 217.519,98.13 217.5,107.5C 207.161,107.666 196.828,107.5 186.5,107C 190.51,105.657 194.01,103.491 197,100.5C 204.021,86.6364 201.854,74.4697 190.5,64C 193.5,63.6667 196.5,63.3333 199.5,63C 194.844,62.3345 190.177,61.8345 185.5,61.5 Z"/></g>
<g><path style="opacity:1" fill="#0da2b8" d="M 109.5,67.5 C 110.873,67.3433 112.207,67.51 113.5,68C 114.88,69.9252 116.38,71.7585 118,73.5C 123.481,84.094 121.981,93.594 113.5,102C 99.9832,107.658 91.1499,103.491 87,89.5C 84.5097,88.0533 84.3431,87.0533 86.5,86.5C 90.0088,89.1149 94.0088,90.1149 98.5,89.5C 98.5,90.1667 98.1667,90.5 97.5,90.5C 97.1667,90.5 96.8333,90.5 96.5,90.5C 94.4727,90.3379 92.4727,90.5045 90.5,91C 96.1566,100.089 103.657,101.922 113,96.5C 118.519,87.5365 117.853,78.8699 111,70.5C 110.617,71.056 110.117,71.3893 109.5,71.5C 109.5,70.1667 109.5,68.8333 109.5,67.5 Z"/></g>
<g><path style="opacity:1" fill="#009fb7" d="M 167.5,90.5 C 172.216,101.008 179.55,103.174 189.5,97C 195.333,87.8352 194.5,79.3352 187,71.5C 186.517,72.448 186.351,73.448 186.5,74.5C 186.5,75.5 186.5,76.5 186.5,77.5C 186.672,78.4916 186.338,79.1583 185.5,79.5C 185.5,76.1667 185.5,72.8333 185.5,69.5C 187.274,68.119 188.774,68.4523 190,70.5C 196.194,78.7956 196.861,87.7956 192,97.5C 179.75,106.194 170.583,103.694 164.5,90C 165.577,89.5304 166.577,89.6971 167.5,90.5 Z"/></g>
<g><path style="opacity:1" fill="#0099b8" d="M 167.5,90.5 C 168.833,90.5 170.167,90.5 171.5,90.5C 171.389,91.1174 171.056,91.6174 170.5,92C 174.245,96.9307 178.578,98.2641 183.5,96C 191.502,89.8218 192.502,82.6552 186.5,74.5C 186.351,73.448 186.517,72.448 187,71.5C 194.5,79.3352 195.333,87.8352 189.5,97C 179.55,103.174 172.216,101.008 167.5,90.5 Z"/></g>
<g><path style="opacity:1" fill="#0098b8" d="M 96.5,90.5 C 95.2613,91.212 94.7613,92.212 95,93.5C 100.848,98.4725 106.514,98.1392 112,92.5C 115.356,86.6151 115.023,80.9484 111,75.5C 110.722,76.4158 110.222,77.0825 109.5,77.5C 109.5,75.5 109.5,73.5 109.5,71.5C 110.117,71.3893 110.617,71.056 111,70.5C 117.853,78.8699 118.519,87.5365 113,96.5C 103.657,101.922 96.1566,100.089 90.5,91C 92.4727,90.5045 94.4727,90.3379 96.5,90.5 Z"/></g>
<g><path style="opacity:1" fill="#0090b9" d="M 186.5,74.5 C 192.502,82.6552 191.502,89.8218 183.5,96C 178.578,98.2641 174.245,96.9307 170.5,92C 171.056,91.6174 171.389,91.1174 171.5,90.5C 172.5,90.5 173.5,90.5 174.5,90.5C 177.409,92.9957 180.576,92.9957 184,90.5C 185.165,86.6808 186.332,82.8475 187.5,79C 187.43,78.2352 187.097,77.7352 186.5,77.5C 186.5,76.5 186.5,75.5 186.5,74.5 Z"/></g>
<g><path style="opacity:1" fill="#0a8fba" d="M 96.5,90.5 C 96.8333,90.5 97.1667,90.5 97.5,90.5C 106.034,94.8117 109.867,92.145 109,82.5C 108.617,83.056 108.117,83.3893 107.5,83.5C 108.038,81.8828 108.371,80.2161 108.5,78.5C 109.167,78.5 109.5,78.1667 109.5,77.5C 110.222,77.0825 110.722,76.4158 111,75.5C 115.023,80.9484 115.356,86.6151 112,92.5C 106.514,98.1392 100.848,98.4725 95,93.5C 94.7613,92.212 95.2613,91.212 96.5,90.5 Z"/></g>
<g><path style="opacity:1" fill="#258abc" d="M 186.5,77.5 C 187.097,77.7352 187.43,78.2352 187.5,79C 186.332,82.8475 185.165,86.6808 184,90.5C 180.576,92.9957 177.409,92.9957 174.5,90.5C 175.492,90.6716 176.158,90.3382 176.5,89.5C 180.922,87.4134 183.922,84.08 185.5,79.5C 186.338,79.1583 186.672,78.4916 186.5,77.5 Z"/></g>
<g><path style="opacity:1" fill="#1987ba" d="M 97.5,90.5 C 98.1667,90.5 98.5,90.1667 98.5,89.5C 102.073,88.2433 105.073,86.2433 107.5,83.5C 108.117,83.3893 108.617,83.056 109,82.5C 109.867,92.145 106.034,94.8117 97.5,90.5 Z"/></g>
<g><path style="opacity:1" fill="#0086ba" d="M 710.5,87.5 C 715.584,86.755 719.084,88.755 721,93.5C 721.667,127.167 721.667,160.833 721,194.5C 718.156,199.866 714.156,200.866 709,197.5C 707.438,195.043 706.438,192.376 706,189.5C 694.871,199.823 682.038,202.656 667.5,198C 643.123,186.74 634.957,168.24 643,142.5C 656.588,119.415 675.754,112.915 700.5,123C 702,124.5 703.5,126 705,127.5C 705.333,116.167 705.667,104.833 706,93.5C 706.599,90.7458 708.099,88.7458 710.5,87.5 Z M 677.5,133.5 C 699.044,134.921 707.878,146.254 704,167.5C 700.408,178.25 692.908,183.917 681.5,184.5C 661.491,181.662 653.325,170.329 657,150.5C 661.011,141.313 667.844,135.647 677.5,133.5 Z"/></g>
<g><path style="opacity:0.835" fill="#07b4bb" d="M 879.5,141.5 C 878.738,139.738 877.404,138.738 875.5,138.5C 873.051,135.444 870.051,133.111 866.5,131.5C 859.145,124.652 851.311,118.318 843,112.5C 839.958,105.915 841.458,100.748 847.5,97C 878.167,96.3333 908.833,96.3333 939.5,97C 944.155,99.8966 945.655,104.063 944,109.5C 943.167,111.667 941.667,113.167 939.5,114C 921.153,114.952 902.819,115.952 884.5,117C 890.311,121.31 895.977,125.81 901.5,130.5C 903.718,139.635 900.051,144.635 890.5,145.5C 886.492,144.943 882.826,143.61 879.5,141.5 Z"/></g>
<g><path style="opacity:0.947" fill="#0086ba" d="M 297.5,157.5 C 290.402,170.86 283.402,184.36 276.5,198C 271.713,198.879 267.047,198.545 262.5,197C 258.874,194.749 257.707,191.582 259,187.5C 272.274,159.286 285.274,130.953 298,102.5C 300.536,99.2337 303.869,97.9004 308,98.5C 311.459,98.2672 314.626,99.1005 317.5,101C 331.382,129.311 344.882,157.811 358,186.5C 359.71,192.469 357.543,196.303 351.5,198C 347.406,198.767 343.406,198.434 339.5,197C 325.38,186.548 311.547,175.715 298,164.5C 297.503,162.19 297.337,159.857 297.5,157.5 Z M 297.5,157.5 C 300.628,149.91 304.295,142.577 308.5,135.5C 311.757,141.681 314.757,148.015 317.5,154.5C 317.333,154.833 317.167,155.167 317,155.5C 310.082,151.647 303.582,152.313 297.5,157.5 Z"/></g>
<g><path style="opacity:1" fill="#8fd4cc" d="M 923.5,99.5 C 928.628,99.1115 933.628,99.6115 938.5,101C 942.483,105.087 941.817,108.42 936.5,111C 915.471,111.192 894.471,112.025 873.5,113.5C 881.524,120.024 889.69,126.358 898,132.5C 899.337,138.462 896.837,141.462 890.5,141.5C 886.576,141.25 883.242,139.75 880.5,137C 870.12,128.285 859.453,119.952 848.5,112C 844.513,108.287 844.513,104.62 848.5,101C 873.67,100.832 898.67,100.332 923.5,99.5 Z"/></g>
<g><path style="opacity:0.684" fill="#03c6ce" d="M 218.5,81.5 C 219.494,90.6517 219.827,99.985 219.5,109.5C 162.331,109.832 105.331,109.499 48.5,108.5C 48.8333,108.5 49.1667,108.5 49.5,108.5C 105.833,108.5 162.167,108.5 218.5,108.5C 218.5,99.8333 218.5,91.1667 218.5,82.5C 218.5,82.1667 218.5,81.8333 218.5,81.5 Z"/></g>
<g><path style="opacity:1" fill="#0b86b6" d="M 213.5,113.5 C 215.167,113.5 216.833,113.5 218.5,113.5C 218.5,145.5 218.5,177.5 218.5,209.5C 217.668,180.336 217.168,151.003 217,121.5C 215.833,123 214.667,124.5 213.5,126C 213.957,126.414 214.291,126.914 214.5,127.5C 212.167,129.667 209.833,131.833 207.5,134C 208.28,135.073 208.113,136.24 207,137.5C 206.333,138.833 205.667,138.833 205,137.5C 204.751,138.624 204.251,139.624 203.5,140.5C 202.667,158.824 202.167,177.158 202,195.5C 201.768,196.737 201.268,197.737 200.5,198.5C 201.462,173.526 201.795,148.526 201.5,123.5C 203.36,117.643 207.36,114.31 213.5,113.5 Z"/></g>
<g><path style="opacity:1" fill="#0086ba" d="M 395.5,117.5 C 407.039,116.733 416.872,120.4 425,128.5C 426.746,120.925 431.246,118.425 438.5,121C 439.701,121.903 440.535,123.069 441,124.5C 441.667,149.167 441.667,173.833 441,198.5C 437.112,221.218 423.612,233.218 400.5,234.5C 392.302,234.425 389.135,230.425 391,222.5C 392.167,221.333 393.333,220.167 394.5,219C 414.151,220.008 423.984,210.842 424,191.5C 412.004,201.053 398.837,202.886 384.5,197C 363.999,187.166 355.833,171 360,148.5C 366.112,131.551 377.945,121.218 395.5,117.5 Z M 396.5,133.5 C 416.927,134.43 426.093,145.096 424,165.5C 417.732,181.884 406.232,187.384 389.5,182C 376.919,175.001 372.419,164.501 376,150.5C 380.011,141.313 386.844,135.647 396.5,133.5 Z"/></g>
<g><path style="opacity:1" fill="#0086ba" d="M 492.5,117.5 C 511.274,116.966 525.441,124.632 535,140.5C 538.366,147.565 539.199,154.899 537.5,162.5C 536.335,163.584 535.002,164.417 533.5,165C 513.492,165.167 493.492,165.667 473.5,166.5C 479.423,180.986 490.09,186.486 505.5,183C 510.451,179.702 515.618,176.869 521,174.5C 527.418,175.992 529.751,179.992 528,186.5C 514.579,200.216 498.746,203.716 480.5,197C 458.433,184.811 451.266,166.644 459,142.5C 466.081,128.572 477.248,120.239 492.5,117.5 Z M 493.5,133.5 C 503.564,132.949 511.731,136.616 518,144.5C 519.707,146.909 520.54,149.575 520.5,152.5C 504.819,152.833 489.152,152.499 473.5,151.5C 477.406,142.253 484.072,136.253 493.5,133.5 Z"/></g>
<g><path style="opacity:1" fill="#0086ba" d="M 586.5,117.5 C 607.798,116.641 620.298,126.641 624,147.5C 624.667,163.167 624.667,178.833 624,194.5C 621.774,198.861 618.274,200.361 613.5,199C 611.333,198.167 609.833,196.667 609,194.5C 608.667,179.167 608.333,163.833 608,148.5C 605.955,138.791 599.955,133.791 590,133.5C 581.475,133.759 575.475,137.759 572,145.5C 571.015,162.525 570.015,179.525 569,196.5C 563.559,200.926 558.892,200.259 555,194.5C 554.333,171.167 554.333,147.833 555,124.5C 557.626,119.139 561.459,118.139 566.5,121.5C 567.439,123.053 568.606,124.387 570,125.5C 572.732,123.548 575.565,121.715 578.5,120C 581.379,119.454 584.046,118.621 586.5,117.5 Z"/></g>
<g><path style="opacity:1" fill="#0086ba" d="M 773.5,117.5 C 784.186,116.507 793.519,119.507 801.5,126.5C 803.067,123.557 805.4,121.39 808.5,120C 811.742,119.414 814.575,120.247 817,122.5C 818.636,146.103 818.97,169.77 818,193.5C 816.305,198.599 812.805,200.432 807.5,199C 804.547,196.937 802.714,194.104 802,190.5C 786.524,202.956 770.358,203.789 753.5,193C 736.935,179.033 732.602,161.866 740.5,141.5C 747.485,127.853 758.485,119.853 773.5,117.5 Z M 774.5,133.5 C 794.439,134.272 803.606,144.606 802,164.5C 795.517,183.489 783.017,188.989 764.5,181C 751.649,171.041 749.149,158.874 757,144.5C 761.578,138.638 767.411,134.972 774.5,133.5 Z"/></g>
<g><path style="opacity:1" fill="#00b1b9" d="M 1026.5,118.5 C 1045.27,117.966 1059.44,125.632 1069,141.5C 1072.37,148.565 1073.2,155.899 1071.5,163.5C 1070.33,164.584 1069,165.417 1067.5,166C 1047.49,166.167 1027.49,166.667 1007.5,167.5C 1013.42,181.986 1024.09,187.486 1039.5,184C 1044.45,180.702 1049.62,177.869 1055,175.5C 1061.42,176.992 1063.75,180.992 1062,187.5C 1048.58,201.216 1032.75,204.716 1014.5,198C 992.433,185.811 985.266,167.644 993,143.5C 1000.08,129.572 1011.25,121.239 1026.5,118.5 Z M 1027.5,134.5 C 1037.56,133.949 1045.73,137.616 1052,145.5C 1053.71,147.909 1054.54,150.575 1054.5,153.5C 1038.82,153.833 1023.15,153.499 1007.5,152.5C 1011.41,143.253 1018.07,137.253 1027.5,134.5 Z"/></g>
<g><path style="opacity:1" fill="#00b1b9" d="M 1122.5,118.5 C 1141.27,117.966 1155.44,125.632 1165,141.5C 1168.37,148.565 1169.2,155.899 1167.5,163.5C 1166.33,164.584 1165,165.417 1163.5,166C 1143.49,166.167 1123.49,166.667 1103.5,167.5C 1109.42,181.986 1120.09,187.486 1135.5,184C 1140.45,180.702 1145.62,177.869 1151,175.5C 1157.42,176.992 1159.75,180.992 1158,187.5C 1144.58,201.216 1128.75,204.716 1110.5,198C 1088.43,185.811 1081.27,167.644 1089,143.5C 1096.08,129.572 1107.25,121.239 1122.5,118.5 Z M 1123.5,134.5 C 1133.56,133.949 1141.73,137.616 1148,145.5C 1149.71,147.909 1150.54,150.575 1150.5,153.5C 1134.82,153.833 1119.15,153.499 1103.5,152.5C 1107.41,143.253 1114.07,137.253 1123.5,134.5 Z"/></g>
<g><path style="opacity:1" fill="#00b1b9" d="M 947.5,120.5 C 953.447,119.946 956.947,122.613 958,128.5C 964.283,122.406 971.783,119.906 980.5,121C 983.997,122.323 985.664,124.823 985.5,128.5C 985.635,130.808 984.969,132.808 983.5,134.5C 976.552,135.738 969.886,137.905 963.5,141C 961.959,142.579 960.792,144.413 960,146.5C 958.711,162.767 958.044,179.1 958,195.5C 955.774,199.861 952.274,201.361 947.5,200C 945.43,199.052 943.93,197.552 943,195.5C 942.333,172.167 942.333,148.833 943,125.5C 944.025,123.313 945.525,121.646 947.5,120.5 Z"/></g>
<g><path style="opacity:1" fill="#0f8eb7" d="M 218.5,209.5 C 218.5,210.5 218.5,211.5 218.5,212.5C 215.73,222.437 209.397,228.937 199.5,232C 176.663,232.83 153.996,232.663 131.5,231.5C 131.557,230.391 131.89,229.391 132.5,228.5C 134.144,226.519 135.81,224.519 137.5,222.5C 136.975,221.808 136.308,221.308 135.5,221C 137.977,219.295 139.311,217.295 139.5,215C 153.673,214.831 167.673,214.331 181.5,213.5C 182.833,212.833 184.167,212.167 185.5,211.5C 192.078,209.257 196.744,204.923 199.5,198.5C 199.833,198.5 200.167,198.5 200.5,198.5C 201.268,197.737 201.768,196.737 202,195.5C 202.167,177.158 202.667,158.824 203.5,140.5C 204.251,139.624 204.751,138.624 205,137.5C 205.667,138.833 206.333,138.833 207,137.5C 208.113,136.24 208.28,135.073 207.5,134C 209.833,131.833 212.167,129.667 214.5,127.5C 214.291,126.914 213.957,126.414 213.5,126C 214.667,124.5 215.833,123 217,121.5C 217.168,151.003 217.668,180.336 218.5,209.5 Z"/></g>
<g><path style="opacity:0.826" fill="#05b3bb" d="M 866.5,131.5 C 868.949,134.556 871.949,136.889 875.5,138.5C 876.262,140.262 877.596,141.262 879.5,141.5C 886.476,147.636 893.643,153.636 901,159.5C 903.868,165.46 902.368,169.96 896.5,173C 886.146,173.296 875.813,173.796 865.5,174.5C 865.666,181.175 865.5,187.842 865,194.5C 860.078,199.202 854.245,200.702 847.5,199C 845.376,197.878 843.543,196.378 842,194.5C 841.5,183.839 841.333,173.172 841.5,162.5C 848.28,161.109 854.613,158.609 860.5,155C 854.667,150.5 848.833,146 843,141.5C 839.224,131.718 842.558,126.384 853,125.5C 855.253,125.631 857.419,126.131 859.5,127C 861.734,128.75 864.068,130.25 866.5,131.5 Z"/></g>
<g><path style="opacity:1" fill="#04b7be" d="M 98.5,128.5 C 109.5,128.5 120.5,128.5 131.5,128.5C 130.048,129.302 128.382,129.802 126.5,130C 114.148,138.799 101.648,146.632 89,153.5C 89.9791,155.279 89.6458,156.945 88,158.5C 87.5005,152.509 87.3338,146.509 87.5,140.5C 89.061,134.604 92.7277,130.604 98.5,128.5 Z"/></g>
<g><path style="opacity:1" fill="#13c1c1" d="M 131.5,128.5 C 142.172,128.333 152.839,128.5 163.5,129C 156.833,129.333 150.167,129.667 143.5,130C 136.492,133.835 129.826,138.169 123.5,143C 121.608,143.973 119.608,144.64 117.5,145C 119.382,145.198 121.048,145.698 122.5,146.5C 118.629,146.185 114.962,146.518 111.5,147.5C 109.771,148.117 108.271,149.117 107,150.5C 106.501,156.491 106.334,162.491 106.5,168.5C 104.364,168.756 102.697,170.256 101.5,173C 96.5258,174.154 92.1925,176.32 88.5,179.5C 87.8333,178.833 87.1667,178.167 86.5,177.5C 86.1714,164.989 86.5048,152.655 87.5,140.5C 87.3338,146.509 87.5005,152.509 88,158.5C 89.6458,156.945 89.9791,155.279 89,153.5C 101.648,146.632 114.148,138.799 126.5,130C 128.382,129.802 130.048,129.302 131.5,128.5 Z"/></g>
<g><path style="opacity:1" fill="#0bc5c3" d="M 98.5,128.5 C 120.327,127.503 142.327,127.169 164.5,127.5C 164.904,128.756 165.571,129.923 166.5,131C 159.91,136.64 152.576,141.307 144.5,145C 148.5,145.333 152.5,145.667 156.5,146C 145.172,146.5 133.838,146.667 122.5,146.5C 121.048,145.698 119.382,145.198 117.5,145C 119.608,144.64 121.608,143.973 123.5,143C 129.826,138.169 136.492,133.835 143.5,130C 150.167,129.667 156.833,129.333 163.5,129C 152.839,128.5 142.172,128.333 131.5,128.5C 120.5,128.5 109.5,128.5 98.5,128.5 Z"/></g>
<g><path style="opacity:1" fill="#8ed4cc" d="M 849.5,129.5 C 852.649,129.211 855.649,129.711 858.5,131C 872.019,141.161 885.185,151.661 898,162.5C 898.913,165.352 898.08,167.519 895.5,169C 884.169,169.633 872.836,170.133 861.5,170.5C 861.666,177.841 861.5,185.174 861,192.5C 855.719,197.804 850.386,197.804 845,192.5C 844.5,183.506 844.334,174.506 844.5,165.5C 850.042,164.374 855.376,162.541 860.5,160C 862.968,158.784 864.968,157.117 866.5,155C 859.686,149.524 852.853,144.024 846,138.5C 844.312,134.523 845.479,131.523 849.5,129.5 Z"/></g>
<g><path style="opacity:1" fill="#59ccca" d="M 164.5,127.5 C 167.079,127.394 169.412,128.061 171.5,129.5C 171.631,130.376 171.298,131.043 170.5,131.5C 169.604,130.494 168.938,130.494 168.5,131.5C 169.242,132.287 170.075,132.953 171,133.5C 171.718,132.549 172.551,132.383 173.5,133C 175.211,134.133 175.711,135.633 175,137.5C 169.216,140.974 163.383,144.307 157.5,147.5C 142.167,147.5 126.833,147.5 111.5,147.5C 114.962,146.518 118.629,146.185 122.5,146.5C 133.838,146.667 145.172,146.5 156.5,146C 152.5,145.667 148.5,145.333 144.5,145C 152.576,141.307 159.91,136.64 166.5,131C 165.571,129.923 164.904,128.756 164.5,127.5 Z"/></g>
<g><path style="opacity:1" fill="#09b3bb" d="M 61.5,149.5 C 63.1667,149.5 64.8333,149.5 66.5,149.5C 66.5,157.833 66.5,166.167 66.5,174.5C 63.9982,176.071 61.4982,177.737 59,179.5C 54.6062,176.608 51.1062,172.941 48.5,168.5C 46.9308,158.077 51.2641,151.744 61.5,149.5 Z"/></g>
<g><path style="opacity:1" fill="#7dd1cb" d="M 180.5,146.5 C 180.666,154.174 180.5,161.841 180,169.5C 179.808,167.423 179.308,165.423 178.5,163.5C 176.588,165.156 174.588,165.489 172.5,164.5C 174.228,162.774 176.228,161.441 178.5,160.5C 179.833,159.5 179.833,158.5 178.5,157.5C 173.762,160.898 168.762,163.898 163.5,166.5C 162.571,165.311 162.238,163.978 162.5,162.5C 163.468,160.393 163.802,158.059 163.5,155.5C 169.325,152.755 174.992,149.755 180.5,146.5 Z"/></g>
<g><path style="opacity:1" fill="#6acdc9" d="M 171.5,129.5 C 176.483,132.48 179.483,136.813 180.5,142.5C 180.5,143.833 180.5,145.167 180.5,146.5C 174.992,149.755 169.325,152.755 163.5,155.5C 163.802,158.059 163.468,160.393 162.5,162.5C 162.665,158.818 162.499,155.152 162,151.5C 161.583,150.244 160.75,149.577 159.5,149.5C 158.5,149.167 157.833,148.5 157.5,147.5C 163.383,144.307 169.216,140.974 175,137.5C 175.711,135.633 175.211,134.133 173.5,133C 172.551,132.383 171.718,132.549 171,133.5C 170.075,132.953 169.242,132.287 168.5,131.5C 168.938,130.494 169.604,130.494 170.5,131.5C 171.298,131.043 171.631,130.376 171.5,129.5 Z"/></g>
<g><path style="opacity:1" fill="#95d5ce" d="M 180.5,142.5 C 181.66,154.326 181.826,166.326 181,178.5C 178.723,186.444 173.556,191.278 165.5,193C 143.996,193.829 122.663,193.663 101.5,192.5C 106.833,192.5 112.167,192.5 117.5,192.5C 125.465,187.444 134.132,182.111 143.5,176.5C 144.086,176.709 144.586,177.043 145,177.5C 147.08,175.877 149.246,174.377 151.5,173C 149.292,172.809 147.292,172.309 145.5,171.5C 156.427,174.549 161.76,170.549 161.5,159.5C 161.681,155.935 161.015,152.602 159.5,149.5C 160.75,149.577 161.583,150.244 162,151.5C 162.499,155.152 162.665,158.818 162.5,162.5C 162.238,163.978 162.571,165.311 163.5,166.5C 168.762,163.898 173.762,160.898 178.5,157.5C 179.833,158.5 179.833,159.5 178.5,160.5C 176.228,161.441 174.228,162.774 172.5,164.5C 174.588,165.489 176.588,165.156 178.5,163.5C 179.308,165.423 179.808,167.423 180,169.5C 180.5,161.841 180.666,154.174 180.5,146.5C 180.5,145.167 180.5,143.833 180.5,142.5 Z"/></g>
<g><path style="opacity:0.777" fill="#48a3c5" d="M 201.5,123.5 C 201.795,148.526 201.462,173.526 200.5,198.5C 200.167,198.5 199.833,198.5 199.5,198.5C 200.119,173.349 200.786,148.349 201.5,123.5 Z"/></g>
<g><path style="opacity:0.498" fill="#78b6cf" d="M 213.5,113.5 C 215.265,112.539 217.265,112.205 219.5,112.5C 219.832,146.004 219.498,179.338 218.5,212.5C 218.5,211.5 218.5,210.5 218.5,209.5C 218.5,177.5 218.5,145.5 218.5,113.5C 216.833,113.5 215.167,113.5 213.5,113.5 Z"/></g>
<g><path style="opacity:1" fill="#4cc9c6" d="M 106.5,168.5 C 107.5,168.833 108.167,169.5 108.5,170.5C 108.987,171.473 109.487,172.473 110,173.5C 111.049,172.483 112.216,172.316 113.5,173C 108.232,178.644 101.898,182.811 94.5,185.5C 93.5791,183.244 91.9124,182.244 89.5,182.5C 89.7373,181.209 89.404,180.209 88.5,179.5C 92.1925,176.32 96.5258,174.154 101.5,173C 102.697,170.256 104.364,168.756 106.5,168.5 Z"/></g>
<g><path style="opacity:1" fill="#84d3cd" d="M 114.5,171.5 C 124.833,171.5 135.167,171.5 145.5,171.5C 147.292,172.309 149.292,172.809 151.5,173C 149.246,174.377 147.08,175.877 145,177.5C 144.586,177.043 144.086,176.709 143.5,176.5C 134.132,182.111 125.465,187.444 117.5,192.5C 114.359,191.679 111.025,191.179 107.5,191C 116.443,185.718 125.109,180.051 133.5,174C 136.5,173.667 139.5,173.333 142.5,173C 132.991,172.83 123.658,172.33 114.5,171.5 Z"/></g>
<g><path style="opacity:1" fill="#0bc2c2" d="M 48.5,168.5 C 51.1062,172.941 54.6062,176.608 59,179.5C 61.4982,177.737 63.9982,176.071 66.5,174.5C 66.5,182.167 66.5,189.833 66.5,197.5C 65.1779,197.67 64.0113,197.337 63,196.5C 58.142,188.769 53.3086,181.102 48.5,173.5C 48.5,171.833 48.5,170.167 48.5,168.5 Z"/></g>
<g><path style="opacity:1" fill="#67cdc8" d="M 108.5,170.5 C 110.435,171.15 112.435,171.483 114.5,171.5C 123.658,172.33 132.991,172.83 142.5,173C 139.5,173.333 136.5,173.667 133.5,174C 125.109,180.051 116.443,185.718 107.5,191C 111.025,191.179 114.359,191.679 117.5,192.5C 112.167,192.5 106.833,192.5 101.5,192.5C 96.2247,191.753 92.058,189.086 89,184.5C 87.5886,182.35 86.7553,180.016 86.5,177.5C 87.1667,178.167 87.8333,178.833 88.5,179.5C 89.404,180.209 89.7373,181.209 89.5,182.5C 91.9124,182.244 93.5791,183.244 94.5,185.5C 101.898,182.811 108.232,178.644 113.5,173C 112.216,172.316 111.049,172.483 110,173.5C 109.487,172.473 108.987,171.473 108.5,170.5 Z"/></g>
<g><path style="opacity:1" fill="#63cecb" d="M 61.5,149.5 C 63.2646,148.539 65.2646,148.205 67.5,148.5C 67.3334,164.837 67.5001,181.17 68,197.5C 69.2446,200.324 70.7446,202.991 72.5,205.5C 72.4208,206.93 72.7542,208.264 73.5,209.5C 72.21,210.408 70.8767,210.241 69.5,209C 67.2728,206.436 65.4394,203.603 64,200.5C 61.802,198.379 59.302,196.712 56.5,195.5C 55.6081,191.014 53.2747,187.68 49.5,185.5C 49.5,184.833 49.1667,184.5 48.5,184.5C 48.5,180.833 48.5,177.167 48.5,173.5C 53.3086,181.102 58.142,188.769 63,196.5C 64.0113,197.337 65.1779,197.67 66.5,197.5C 66.5,189.833 66.5,182.167 66.5,174.5C 66.5,166.167 66.5,157.833 66.5,149.5C 64.8333,149.5 63.1667,149.5 61.5,149.5 Z"/></g>
<g><path style="opacity:1" fill="#7ad0cb" d="M 49.5,185.5 C 53.2747,187.68 55.6081,191.014 56.5,195.5C 59.302,196.712 61.802,198.379 64,200.5C 65.4394,203.603 67.2728,206.436 69.5,209C 70.8767,210.241 72.21,210.408 73.5,209.5C 72.7542,208.264 72.4208,206.93 72.5,205.5C 74.5549,207.555 76.8883,209.221 79.5,210.5C 79.9012,213.4 81.2345,214.067 83.5,212.5C 90.1375,213.258 96.8042,213.758 103.5,214C 99.5,214.333 95.5,214.667 91.5,215C 92.5144,217.979 91.8477,220.646 89.5,223C 93.375,224.347 93.375,225.514 89.5,226.5C 90.8333,227.5 90.8333,228.5 89.5,229.5C 91.0777,230.298 92.7444,230.798 94.5,231C 88.1754,231.5 81.8421,231.666 75.5,231.5C 72.0542,223.284 67.5542,215.617 62,208.5C 57.8376,200.843 53.6709,193.176 49.5,185.5 Z"/></g>
<g><path style="opacity:0.878" fill="#60aecd" d="M 185.5,211.5 C 184.167,212.167 182.833,212.833 181.5,213.5C 166.119,213.198 150.785,213.531 135.5,214.5C 135.611,213.883 135.944,213.383 136.5,213C 140.445,212.075 144.445,211.575 148.5,211.5C 160.844,212.781 173.178,212.781 185.5,211.5 Z"/></g>
<g><path style="opacity:1" fill="#90d4cd" d="M 48.5,184.5 C 49.1667,184.5 49.5,184.833 49.5,185.5C 53.6709,193.176 57.8376,200.843 62,208.5C 67.5542,215.617 72.0542,223.284 75.5,231.5C 81.8421,231.666 88.1754,231.5 94.5,231C 92.7444,230.798 91.0777,230.298 89.5,229.5C 90.8333,228.5 90.8333,227.5 89.5,226.5C 93.375,225.514 93.375,224.347 89.5,223C 91.8477,220.646 92.5144,217.979 91.5,215C 95.5,214.667 99.5,214.333 103.5,214C 96.8042,213.758 90.1375,213.258 83.5,212.5C 81.2345,214.067 79.9012,213.4 79.5,210.5C 88.5626,212.052 97.7293,212.719 107,212.5C 114.213,212.483 121.38,212.15 128.5,211.5C 128.833,211.833 129.167,212.167 129.5,212.5C 124.75,218.25 123.75,224.583 126.5,231.5C 107.175,232.666 87.8419,232.833 68.5,232C 58.4334,229.6 51.9334,223.434 49,213.5C 48.5002,203.839 48.3335,194.172 48.5,184.5 Z"/></g>
<g><path style="opacity:1" fill="#1586b5" d="M 181.5,213.5 C 167.673,214.331 153.673,214.831 139.5,215C 139.311,217.295 137.977,219.295 135.5,221C 136.308,221.308 136.975,221.808 137.5,222.5C 135.81,224.519 134.144,226.519 132.5,228.5C 130.631,226.365 129.964,223.698 130.5,220.5C 130.772,217.268 132.438,215.268 135.5,214.5C 150.785,213.531 166.119,213.198 181.5,213.5 Z"/></g>
<g><path style="opacity:0.71" fill="#7bb3ce" d="M 130.5,220.5 C 129.964,223.698 130.631,226.365 132.5,228.5C 131.89,229.391 131.557,230.391 131.5,231.5C 130.003,229.71 129.336,227.544 129.5,225C 129.508,223.293 129.842,221.793 130.5,220.5 Z"/></g>
</svg>
