<?xml version="1.0" encoding="UTF-8"?>
<!DOCTYPE svg PUBLIC "-//W3C//DTD SVG 1.1//EN" "http://www.w3.org/Graphics/SVG/1.1/DTD/svg11.dtd">
<svg xmlns="http://www.w3.org/2000/svg" version="1.1" width="910px" height="739px" style="shape-rendering:geometricPrecision; text-rendering:geometricPrecision; image-rendering:optimizeQuality; fill-rule:evenodd; clip-rule:evenodd" xmlns:xlink="http://www.w3.org/1999/xlink">
<g><path style="opacity:1" fill="#0fb2bc" d="M 361.5,13.5 C 372.433,11.5493 380.266,15.5493 385,25.5C 385.667,47.8333 385.667,70.1667 385,92.5C 378.759,105.247 369.259,108.414 356.5,102C 352.619,99.0724 350.119,95.2391 349,90.5C 348.333,69.5 348.333,48.5 349,27.5C 350.954,20.72 355.12,16.0533 361.5,13.5 Z"/></g>
<g><path style="opacity:1" fill="#10b3bc" d="M 536.5,13.5 C 547.433,11.5493 555.266,15.5493 560,25.5C 560.667,47.5 560.667,69.5 560,91.5C 554.756,104.475 545.589,108.308 532.5,103C 528.031,99.8783 525.198,95.7117 524,90.5C 523.333,69.8333 523.333,49.1667 524,28.5C 525.51,21.1664 529.677,16.1664 536.5,13.5 Z"/></g>
<g><path style="opacity:0.581" fill="#2fc9d0" d="M 511.5,89.5 C 510.505,77.3446 510.171,65.0113 510.5,52.5C 479.167,52.5 447.833,52.5 416.5,52.5C 411.167,52.5 405.833,52.5 400.5,52.5C 399.51,58.31 399.177,64.31 399.5,70.5C 399.5,74.1667 399.5,77.8333 399.5,81.5C 399.81,84.7131 399.477,87.7131 398.5,90.5C 398.5,77.5 398.5,64.5 398.5,51.5C 436.167,51.5 473.833,51.5 511.5,51.5C 511.5,64.1667 511.5,76.8333 511.5,89.5 Z"/></g>
<g><path style="opacity:1" fill="#03b1ba" d="M 336.5,89.5 C 337.319,95.6268 339.319,101.293 342.5,106.5C 340.299,106.858 338.965,108.192 338.5,110.5C 338.804,113.143 339.47,115.976 340.5,119C 340.043,119.414 339.709,119.914 339.5,120.5C 342.414,124.746 344.581,129.079 346,133.5C 346.395,138.201 348.562,142.368 352.5,146C 351.044,146.423 350.544,147.256 351,148.5C 352.667,149.833 354.333,151.167 356,152.5C 356.333,151.833 356.667,151.167 357,150.5C 359.953,152.726 363.12,154.559 366.5,156C 370.504,156.162 373.837,156.995 376.5,158.5C 467.332,159.499 558.332,159.833 649.5,159.5C 519.668,160.5 389.668,160.833 259.5,160.5C 259.83,143.325 259.497,126.325 258.5,109.5C 261.113,80.2335 276.446,61.5668 304.5,53.5C 314.806,52.6293 325.14,52.296 335.5,52.5C 335.171,65.0113 335.505,77.3446 336.5,89.5 Z"/></g>
<g><path style="opacity:1" fill="#01abb9" d="M 400.5,52.5 C 405.833,52.5 411.167,52.5 416.5,52.5C 413.929,53.6447 411.262,54.6447 408.5,55.5C 417.714,64.2828 425.214,74.2828 431,85.5C 432.467,92.0908 433.634,99.0908 434.5,106.5C 433.767,114.23 432.601,121.897 431,129.5C 426.434,138.387 420.434,146.053 413,152.5C 409.032,151.443 405.866,152.777 403.5,156.5C 401.694,155.141 400.194,155.475 399,157.5C 393.989,157.178 388.989,156.844 384,156.5C 381.772,158.113 379.272,158.78 376.5,158.5C 373.837,156.995 370.504,156.162 366.5,156C 363.12,154.559 359.953,152.726 357,150.5C 356.667,151.167 356.333,151.833 356,152.5C 354.333,151.167 352.667,149.833 351,148.5C 350.544,147.256 351.044,146.423 352.5,146C 348.562,142.368 346.395,138.201 346,133.5C 344.581,129.079 342.414,124.746 339.5,120.5C 339.709,119.914 340.043,119.414 340.5,119C 339.47,115.976 338.804,113.143 338.5,110.5C 338.965,108.192 340.299,106.858 342.5,106.5C 344.5,107.833 346.167,109.5 347.5,111.5C 346.761,111.369 346.094,111.536 345.5,112C 347.813,128.524 356.146,140.524 370.5,148C 398.404,156.048 416.738,146.214 425.5,118.5C 425.09,113.013 425.09,107.513 425.5,102C 424.691,97.3244 423.358,93.1578 421.5,89.5C 422.443,87.5302 421.776,86.0302 419.5,85C 420.451,84.2825 420.617,83.4491 420,82.5C 416.213,77.044 412.046,71.8774 407.5,67C 405.423,65.295 403.09,64.1283 400.5,63.5C 400.5,59.8333 400.5,56.1667 400.5,52.5 Z"/></g>
<g><path style="opacity:1" fill="#01b1bb" d="M 573.5,52.5 C 603.352,47.0604 626.519,57.0604 643,82.5C 644.664,85.3271 645.83,88.3271 646.5,91.5C 647.01,95.8843 647.843,100.218 649,104.5C 649.5,122.83 649.667,141.164 649.5,159.5C 558.332,159.833 467.332,159.499 376.5,158.5C 379.272,158.78 381.772,158.113 384,156.5C 388.989,156.844 393.989,157.178 399,157.5C 400.194,155.475 401.694,155.141 403.5,156.5C 405.866,152.777 409.032,151.443 413,152.5C 420.434,146.053 426.434,138.387 431,129.5C 432.601,121.897 433.767,114.23 434.5,106.5C 433.634,99.0908 432.467,92.0908 431,85.5C 425.214,74.2828 417.714,64.2828 408.5,55.5C 411.262,54.6447 413.929,53.6447 416.5,52.5C 447.833,52.5 479.167,52.5 510.5,52.5C 510.171,65.0113 510.505,77.3446 511.5,89.5C 512.09,93.6033 513.09,97.6033 514.5,101.5C 513.637,100.537 512.97,100.537 512.5,101.5C 513.809,105.698 513.809,109.864 512.5,114C 515.719,124.879 520.553,135.379 527,145.5C 531.236,149.41 535.736,152.91 540.5,156C 543.352,156.269 546.018,157.103 548.5,158.5C 553.306,157.692 558.306,157.692 563.5,158.5C 576.349,157.978 587.349,152.978 596.5,143.5C 597.833,142.167 599.167,142.167 600.5,143.5C 599.377,139.688 600.71,136.188 604.5,133C 604.043,132.586 603.709,132.086 603.5,131.5C 614.546,100.494 607.213,74.9938 581.5,55C 583.384,54.7837 585.051,54.117 586.5,53C 582.179,52.501 577.846,52.3343 573.5,52.5 Z"/></g>
<g><path style="opacity:1" fill="#01abb9" d="M 573.5,52.5 C 577.846,52.3343 582.179,52.501 586.5,53C 585.051,54.117 583.384,54.7837 581.5,55C 607.213,74.9938 614.546,100.494 603.5,131.5C 603.709,132.086 604.043,132.586 604.5,133C 600.71,136.188 599.377,139.688 600.5,143.5C 599.167,142.167 597.833,142.167 596.5,143.5C 587.349,152.978 576.349,157.978 563.5,158.5C 558.306,157.692 553.306,157.692 548.5,158.5C 546.018,157.103 543.352,156.269 540.5,156C 535.736,152.91 531.236,149.41 527,145.5C 520.553,135.379 515.719,124.879 512.5,114C 513.809,109.864 513.809,105.698 512.5,101.5C 512.97,100.537 513.637,100.537 514.5,101.5C 515.82,103.463 517.154,105.463 518.5,107.5C 518.393,109.903 519.393,111.736 521.5,113C 521.043,113.414 520.709,113.914 520.5,114.5C 521.809,118.107 522.809,121.774 523.5,125.5C 525.942,125.119 526.609,125.786 525.5,127.5C 536.524,149.478 554.19,155.978 578.5,147C 583.967,143.53 588.801,139.364 593,134.5C 595.618,128.266 597.951,121.932 600,115.5C 601.309,106.996 600.143,98.6629 596.5,90.5C 597.025,89.8076 597.692,89.3076 598.5,89C 594.643,82.6525 590.81,75.8192 587,68.5C 583.102,64.6357 579.102,61.6357 575,59.5C 574.017,64.2716 573.183,68.9382 572.5,73.5C 572.175,66.3134 572.509,59.3134 573.5,52.5 Z"/></g>
<g><path style="opacity:0.488" fill="#5ad6db" d="M 336.5,89.5 C 335.505,77.3446 335.171,65.0113 335.5,52.5C 325.14,52.296 314.806,52.6293 304.5,53.5C 305.609,52.71 306.942,52.21 308.5,52C 317.827,51.5002 327.161,51.3335 336.5,51.5C 336.5,64.1667 336.5,76.8333 336.5,89.5 Z"/></g>
<g><path style="opacity:1" fill="#0fa6b9" d="M 518.5,107.5 C 523.455,112.141 529.122,115.474 535.5,117.5C 533.901,117.232 532.568,117.566 531.5,118.5C 529.417,117.971 527.583,116.971 526,115.5C 525.833,116.333 525.667,117.167 525.5,118C 530.44,131.277 539.274,141.11 552,147.5C 555.468,146.197 558.968,146.197 562.5,147.5C 564.286,145.979 566.119,145.646 568,146.5C 573.949,143.914 579.782,141.247 585.5,138.5C 589.011,132.81 592.011,126.81 594.5,120.5C 594.816,113.658 594.816,106.658 594.5,99.5C 594.529,97.9707 595.196,96.804 596.5,96C 591.243,87.4069 586.41,78.5735 582,69.5C 581.667,70.1667 581.333,70.8333 581,71.5C 579.328,68.4862 577.328,66.4862 575,65.5C 574.503,67.8098 574.337,70.1432 574.5,72.5C 574.5,74.8333 574.5,77.1667 574.5,79.5C 574.5,81.8333 574.5,84.1667 574.5,86.5C 574.58,89.7814 573.913,92.7814 572.5,95.5C 572.5,88.1667 572.5,80.8333 572.5,73.5C 573.183,68.9382 574.017,64.2716 575,59.5C 579.102,61.6357 583.102,64.6357 587,68.5C 590.81,75.8192 594.643,82.6525 598.5,89C 597.692,89.3076 597.025,89.8076 596.5,90.5C 600.143,98.6629 601.309,106.996 600,115.5C 597.951,121.932 595.618,128.266 593,134.5C 588.801,139.364 583.967,143.53 578.5,147C 554.19,155.978 536.524,149.478 525.5,127.5C 526.609,125.786 525.942,125.119 523.5,125.5C 522.809,121.774 521.809,118.107 520.5,114.5C 520.709,113.914 521.043,113.414 521.5,113C 519.393,111.736 518.393,109.903 518.5,107.5 Z"/></g>
<g><path style="opacity:1" fill="#03a5b8" d="M 400.5,63.5 C 403.09,64.1283 405.423,65.295 407.5,67C 412.046,71.8774 416.213,77.044 420,82.5C 420.617,83.4491 420.451,84.2825 419.5,85C 421.776,86.0302 422.443,87.5302 421.5,89.5C 423.358,93.1578 424.691,97.3244 425.5,102C 425.09,107.513 425.09,113.013 425.5,118.5C 416.738,146.214 398.404,156.048 370.5,148C 356.146,140.524 347.813,128.524 345.5,112C 346.094,111.536 346.761,111.369 347.5,111.5C 350.004,112.584 352.337,113.917 354.5,115.5C 352.774,115.185 351.107,115.019 349.5,115C 353.038,124.132 358.371,132.132 365.5,139C 377.61,149.29 389.777,150.123 402,141.5C 402.561,142.022 403.228,142.355 404,142.5C 405.565,141.048 406.898,139.381 408,137.5C 408.957,139.709 410.124,139.543 411.5,137C 411.315,134.182 412.482,131.682 415,129.5C 415.667,130.833 416.333,130.833 417,129.5C 417.617,128.551 417.451,127.718 416.5,127C 418.303,125.738 419.636,124.071 420.5,122C 421.104,113.323 421.104,104.323 420.5,95C 417.572,92.7127 416.572,89.8794 417.5,86.5C 415.585,84.2886 413.585,82.122 411.5,80C 412.956,79.5774 413.456,78.7441 413,77.5C 409.051,74.3899 405.217,71.0565 401.5,67.5C 400.571,66.3112 400.238,64.9778 400.5,63.5 Z"/></g>
<g><path style="opacity:1" fill="#039fb7" d="M 400.5,52.5 C 400.5,56.1667 400.5,59.8333 400.5,63.5C 400.238,64.9778 400.571,66.3112 401.5,67.5C 405.217,71.0565 409.051,74.3899 413,77.5C 413.456,78.7441 412.956,79.5774 411.5,80C 413.585,82.122 415.585,84.2886 417.5,86.5C 416.572,89.8794 417.572,92.7127 420.5,95C 421.104,104.323 421.104,113.323 420.5,122C 419.636,124.071 418.303,125.738 416.5,127C 417.451,127.718 417.617,128.551 417,129.5C 416.333,130.833 415.667,130.833 415,129.5C 412.482,131.682 411.315,134.182 411.5,137C 410.124,139.543 408.957,139.709 408,137.5C 406.898,139.381 405.565,141.048 404,142.5C 403.228,142.355 402.561,142.022 402,141.5C 389.777,150.123 377.61,149.29 365.5,139C 358.371,132.132 353.038,124.132 349.5,115C 351.107,115.019 352.774,115.185 354.5,115.5C 356.698,115.875 358.698,116.542 360.5,117.5C 359.022,117.238 357.689,117.571 356.5,118.5C 362.852,133.154 373.852,140.488 389.5,140.5C 394.427,138.532 399.427,136.866 404.5,135.5C 404.351,134.448 404.517,133.448 405,132.5C 405.333,132.833 405.667,133.167 406,133.5C 409.013,128.825 412.013,124.158 415,119.5C 415.592,113.579 416.092,107.579 416.5,101.5C 415.313,100.481 414.313,99.3139 413.5,98C 414.576,96.2739 414.743,94.4406 414,92.5C 411.913,89.3272 410.079,85.9939 408.5,82.5C 406.167,80.5 403.833,78.5 401.5,76.5C 400.831,74.3691 400.165,72.3691 399.5,70.5C 399.177,64.31 399.51,58.31 400.5,52.5 Z"/></g>
<g><path style="opacity:1" fill="#0799b9" d="M 574.5,72.5 C 583.198,80.7457 588.864,90.579 591.5,102C 590.857,108.319 589.524,114.652 587.5,121C 588.167,121.333 588.833,121.667 589.5,122C 586.513,123.481 585.346,125.648 586,128.5C 585.282,127.549 584.449,127.383 583.5,128C 583.273,129.135 582.94,130.302 582.5,131.5C 578.414,133.96 574.247,136.293 570,138.5C 569.667,138.167 569.333,137.833 569,137.5C 562.689,139.132 556.522,140.132 550.5,140.5C 547.539,139.817 547.205,138.984 549.5,138C 541.77,134.249 535.77,128.583 531.5,121C 532.598,120.23 532.598,119.397 531.5,118.5C 532.568,117.566 533.901,117.232 535.5,117.5C 538.833,117.5 542.167,117.5 545.5,117.5C 544.081,118.451 542.415,118.784 540.5,118.5C 538.473,118.338 536.473,118.505 534.5,119C 535.833,119.333 537.167,119.667 538.5,120C 537.549,120.718 537.383,121.551 538,122.5C 549.716,135.866 562.716,136.866 577,125.5C 586.718,109.66 585.885,94.3264 574.5,79.5C 574.5,77.1667 574.5,74.8333 574.5,72.5 Z"/></g>
<g><path style="opacity:1" fill="#089ab9" d="M 399.5,70.5 C 400.165,72.3691 400.831,74.3691 401.5,76.5C 403.833,78.5 406.167,80.5 408.5,82.5C 410.079,85.9939 411.913,89.3272 414,92.5C 414.743,94.4406 414.576,96.2739 413.5,98C 414.313,99.3139 415.313,100.481 416.5,101.5C 416.092,107.579 415.592,113.579 415,119.5C 412.013,124.158 409.013,128.825 406,133.5C 405.667,133.167 405.333,132.833 405,132.5C 404.517,133.448 404.351,134.448 404.5,135.5C 399.427,136.866 394.427,138.532 389.5,140.5C 373.852,140.488 362.852,133.154 356.5,118.5C 357.689,117.571 359.022,117.238 360.5,117.5C 364.167,117.5 367.833,117.5 371.5,117.5C 369.735,118.461 367.735,118.795 365.5,118.5C 363.473,118.338 361.473,118.505 359.5,119C 360.938,119.219 362.271,119.719 363.5,120.5C 369.435,131.88 378.768,136.047 391.5,133C 403.464,128.095 409.464,119.095 409.5,106C 409.816,98.5777 407.983,91.7443 404,85.5C 403.184,84.1772 402.017,83.5106 400.5,83.5C 400.672,82.5084 400.338,81.8417 399.5,81.5C 399.5,77.8333 399.5,74.1667 399.5,70.5 Z"/></g>
<g><path style="opacity:1" fill="#009fb7" d="M 531.5,118.5 C 532.598,119.397 532.598,120.23 531.5,121C 535.77,128.583 541.77,134.249 549.5,138C 547.205,138.984 547.539,139.817 550.5,140.5C 556.522,140.132 562.689,139.132 569,137.5C 569.333,137.833 569.667,138.167 570,138.5C 574.247,136.293 578.414,133.96 582.5,131.5C 582.94,130.302 583.273,129.135 583.5,128C 584.449,127.383 585.282,127.549 586,128.5C 585.346,125.648 586.513,123.481 589.5,122C 588.833,121.667 588.167,121.333 587.5,121C 589.524,114.652 590.857,108.319 591.5,102C 588.864,90.579 583.198,80.7457 574.5,72.5C 574.337,70.1432 574.503,67.8098 575,65.5C 577.328,66.4862 579.328,68.4862 581,71.5C 581.333,70.8333 581.667,70.1667 582,69.5C 586.41,78.5735 591.243,87.4069 596.5,96C 595.196,96.804 594.529,97.9707 594.5,99.5C 594.816,106.658 594.816,113.658 594.5,120.5C 592.011,126.81 589.011,132.81 585.5,138.5C 579.782,141.247 573.949,143.914 568,146.5C 566.119,145.646 564.286,145.979 562.5,147.5C 558.968,146.197 555.468,146.197 552,147.5C 539.274,141.11 530.44,131.277 525.5,118C 525.667,117.167 525.833,116.333 526,115.5C 527.583,116.971 529.417,117.971 531.5,118.5 Z"/></g>
<g><path style="opacity:1" fill="#0091b9" d="M 574.5,79.5 C 585.885,94.3264 586.718,109.66 577,125.5C 562.716,136.866 549.716,135.866 538,122.5C 537.383,121.551 537.549,120.718 538.5,120C 537.167,119.667 535.833,119.333 534.5,119C 536.473,118.505 538.473,118.338 540.5,118.5C 541.702,121.877 543.869,124.543 547,126.5C 548.117,126.335 549.284,126.002 550.5,125.5C 565.923,129.843 575.256,124.676 578.5,110C 578.043,109.586 577.709,109.086 577.5,108.5C 578.167,108.167 578.833,107.833 579.5,107.5C 579.17,103.669 578.67,99.6689 578,95.5C 576.209,92.6504 575.042,89.6504 574.5,86.5C 574.5,84.1667 574.5,81.8333 574.5,79.5 Z"/></g>
<g><path style="opacity:1" fill="#0092b9" d="M 400.5,83.5 C 402.017,83.5106 403.184,84.1772 404,85.5C 407.983,91.7443 409.816,98.5777 409.5,106C 409.464,119.095 403.464,128.095 391.5,133C 378.768,136.047 369.435,131.88 363.5,120.5C 362.271,119.719 360.938,119.219 359.5,119C 361.473,118.505 363.473,118.338 365.5,118.5C 368.181,122.844 371.848,126.178 376.5,128.5C 378.745,127.663 381.245,127.663 384,128.5C 386.077,127.983 388.077,127.316 390,126.5C 398.001,125.787 402.334,120.787 403,111.5C 403.32,102.058 402.486,92.7249 400.5,83.5 Z"/></g>
<g><path style="opacity:1" fill="#178fbb" d="M 399.5,81.5 C 400.338,81.8417 400.672,82.5084 400.5,83.5C 402.486,92.7249 403.32,102.058 403,111.5C 402.334,120.787 398.001,125.787 390,126.5C 388.077,127.316 386.077,127.983 384,128.5C 381.245,127.663 378.745,127.663 376.5,128.5C 371.848,126.178 368.181,122.844 365.5,118.5C 367.735,118.795 369.735,118.461 371.5,117.5C 374.112,116.629 376.779,115.963 379.5,115.5C 378.019,116.421 376.686,117.588 375.5,119C 376.424,120.15 376.424,121.15 375.5,122C 388.472,126.008 396.806,121.341 400.5,108C 400.208,105.215 400.042,102.381 400,99.5C 399.667,99.8333 399.333,100.167 399,100.5C 398.667,99.5 398.333,98.5 398,97.5C 397.623,98.9423 396.79,99.9423 395.5,100.5C 396.511,97.0596 397.511,93.7263 398.5,90.5C 399.477,87.7131 399.81,84.7131 399.5,81.5 Z"/></g>
<g><path style="opacity:1" fill="#0f8eba" d="M 574.5,86.5 C 575.042,89.6504 576.209,92.6504 578,95.5C 578.67,99.6689 579.17,103.669 579.5,107.5C 578.833,107.833 578.167,108.167 577.5,108.5C 577.709,109.086 578.043,109.586 578.5,110C 575.256,124.676 565.923,129.843 550.5,125.5C 549.284,126.002 548.117,126.335 547,126.5C 543.869,124.543 541.702,121.877 540.5,118.5C 542.415,118.784 544.081,118.451 545.5,117.5C 548.5,116.833 551.5,116.167 554.5,115.5C 553.235,116.479 551.901,117.479 550.5,118.5C 551.326,119.451 551.492,120.451 551,121.5C 550.282,120.549 549.449,120.383 548.5,121C 549.595,122.675 551.095,123.842 553,124.5C 560.018,124.588 566.018,121.922 571,116.5C 573.208,113.15 573.708,109.65 572.5,106C 573.26,104.559 573.926,103.059 574.5,101.5C 573.282,101.891 572.448,101.224 572,99.5C 571.617,100.056 571.117,100.389 570.5,100.5C 570.796,98.597 571.463,96.9303 572.5,95.5C 573.913,92.7814 574.58,89.7814 574.5,86.5 Z"/></g>
<g><path style="opacity:1" fill="#1887bb" d="M 379.5,115.5 C 381.635,113.929 383.968,112.596 386.5,111.5C 389.167,110.833 390.833,109.167 391.5,106.5C 392.846,104.463 394.18,102.463 395.5,100.5C 396.79,99.9423 397.623,98.9423 398,97.5C 398.333,98.5 398.667,99.5 399,100.5C 399.333,100.167 399.667,99.8333 400,99.5C 400.042,102.381 400.208,105.215 400.5,108C 396.806,121.341 388.472,126.008 375.5,122C 376.424,121.15 376.424,120.15 375.5,119C 376.686,117.588 378.019,116.421 379.5,115.5 Z"/></g>
<g><path style="opacity:1" fill="#1988bb" d="M 554.5,115.5 C 561.118,111.882 566.452,106.882 570.5,100.5C 571.117,100.389 571.617,100.056 572,99.5C 572.448,101.224 573.282,101.891 574.5,101.5C 573.926,103.059 573.26,104.559 572.5,106C 573.708,109.65 573.208,113.15 571,116.5C 566.018,121.922 560.018,124.588 553,124.5C 551.095,123.842 549.595,122.675 548.5,121C 549.449,120.383 550.282,120.549 551,121.5C 551.492,120.451 551.326,119.451 550.5,118.5C 551.901,117.479 553.235,116.479 554.5,115.5 Z"/></g>
<g><path style="opacity:0.78" fill="#7cb5d2" d="M 391.5,106.5 C 390.833,109.167 389.167,110.833 386.5,111.5C 387.833,109.5 389.5,107.833 391.5,106.5 Z"/></g>
<g><path style="opacity:0.79" fill="#71d5db" d="M 646.5,91.5 C 647.956,94.6144 649.122,97.9477 650,101.5C 650.167,111.5 650.333,121.5 650.5,131.5C 650.487,141.895 649.821,152.061 648.5,162C 518.25,161.555 388.25,161.389 258.5,161.5C 258.5,144.167 258.5,126.833 258.5,109.5C 259.497,126.325 259.83,143.325 259.5,160.5C 389.668,160.833 519.668,160.5 649.5,159.5C 649.667,141.164 649.5,122.83 649,104.5C 647.843,100.218 647.01,95.8843 646.5,91.5 Z"/></g>
<g><path style="opacity:1" fill="#0987b7" d="M 639.5,170.5 C 642.5,170.5 645.5,170.5 648.5,170.5C 648.667,189.17 648.5,207.836 648,226.5C 647.667,213.5 647.333,200.5 647,187.5C 644.378,191.125 641.378,194.458 638,197.5C 637.333,198.833 637.333,200.167 638,201.5C 638.718,200.549 639.551,200.383 640.5,201C 638.387,204.833 636.054,207.833 633.5,210C 634.167,210.667 634.833,211.333 635.5,212C 631.967,214.432 629.967,217.432 629.5,221C 627.376,222.122 625.543,223.622 624,225.5C 623.667,225.167 623.333,224.833 623,224.5C 622.333,225.833 621.667,227.167 621,228.5C 620,228.167 619,227.833 618,227.5C 617.383,228.449 617.549,229.282 618.5,230C 616.679,231.743 614.679,233.243 612.5,234.5C 610.343,233.034 610.01,231.2 611.5,229C 610.726,226.595 610.226,224.095 610,221.5C 609.838,266.875 609.338,310.875 608.5,353.5C 608.5,302.167 608.5,250.833 608.5,199.5C 609.924,197.485 610.59,195.152 610.5,192.5C 615.868,179.635 625.535,172.302 639.5,170.5 Z"/></g>
<g><path style="opacity:1" fill="#0f8fb8" d="M 648.5,170.5 C 649.499,244.665 649.833,318.998 649.5,393.5C 644.771,418.727 630.105,434.893 605.5,442C 578.872,443.145 552.206,443.645 525.5,443.5C 500.331,443.5 475.331,443.167 450.5,442.5C 448.127,440.421 446.794,437.754 446.5,434.5C 447.802,435.807 449.135,435.807 450.5,434.5C 454.664,429.503 459.164,424.836 464,420.5C 464.271,418.193 463.105,417.026 460.5,417C 462.539,414.626 464.872,412.626 467.5,411C 466.5,408.909 467.167,407.243 469.5,406C 468.692,405.692 468.025,405.192 467.5,404.5C 472.518,402.711 472.518,401.544 467.5,401C 478.167,400.667 488.833,400.333 499.5,400C 489.757,398.885 480.09,398.051 470.5,397.5C 502.835,397.667 535.168,397.5 567.5,397C 576.163,395.509 583.83,392.009 590.5,386.5C 593.5,385.5 595.5,383.5 596.5,380.5C 601.165,374.169 604.498,367.169 606.5,359.5C 607.167,357.5 607.833,355.5 608.5,353.5C 609.338,310.875 609.838,266.875 610,221.5C 610.226,224.095 610.726,226.595 611.5,229C 610.01,231.2 610.343,233.034 612.5,234.5C 614.679,233.243 616.679,231.743 618.5,230C 617.549,229.282 617.383,228.449 618,227.5C 619,227.833 620,228.167 621,228.5C 621.667,227.167 622.333,225.833 623,224.5C 623.333,224.833 623.667,225.167 624,225.5C 625.543,223.622 627.376,222.122 629.5,221C 629.967,217.432 631.967,214.432 635.5,212C 634.833,211.333 634.167,210.667 633.5,210C 636.054,207.833 638.387,204.833 640.5,201C 639.551,200.383 638.718,200.549 638,201.5C 637.333,200.167 637.333,198.833 638,197.5C 641.378,194.458 644.378,191.125 647,187.5C 647.333,200.5 647.667,213.5 648,226.5C 648.5,207.836 648.667,189.17 648.5,170.5 Z"/></g>
<g><path style="opacity:0.965" fill="#85bad4" d="M 610.5,192.5 C 610.59,195.152 609.924,197.485 608.5,199.5C 608.41,196.848 609.076,194.515 610.5,192.5 Z"/></g>
<g><path style="opacity:0.798" fill="#36cace" d="M 529.5,204.5 C 527.167,204.5 524.833,204.5 522.5,204.5C 499.167,204.5 475.833,204.5 452.5,204.5C 428.164,204.333 403.831,204.5 379.5,205C 377.26,205.977 374.927,206.477 372.5,206.5C 374.277,205.4 376.277,204.566 378.5,204C 429.002,203.168 479.335,203.335 529.5,204.5 Z"/></g>
<g><path style="opacity:1" fill="#09c5c3" d="M 522.5,204.5 C 524.833,204.5 527.167,204.5 529.5,204.5C 530.67,206.279 532.336,207.279 534.5,207.5C 534.5,208.5 534.5,209.5 534.5,210.5C 527.627,215.495 520.294,219.995 512.5,224C 507.536,227.821 502.203,231.154 496.5,234C 495.716,236.582 494.049,238.249 491.5,239C 492.34,240.666 491.84,240.833 490,239.5C 484.809,241.221 480.309,243.387 476.5,246C 487.551,246.14 497.218,246.64 505.5,247.5C 488.833,247.5 472.167,247.5 455.5,247.5C 441.673,246.669 427.673,246.169 413.5,246C 415.844,245.163 417.844,243.829 419.5,242C 422.623,241.794 425.623,241.127 428.5,240C 444.638,229.427 460.972,219.093 477.5,209C 477.957,208.586 478.291,208.086 478.5,207.5C 476.577,206.692 474.577,206.192 472.5,206C 489.338,205.832 506.005,205.332 522.5,204.5 Z"/></g>
<g><path style="opacity:1" fill="#07b3bc" d="M 452.5,204.5 C 447.36,205.488 442.026,205.821 436.5,205.5C 424.829,205.333 413.162,205.5 401.5,206C 402.956,206.423 403.456,207.256 403,208.5C 401.676,209.88 400.343,210.214 399,209.5C 398.5,210.667 397.667,211.5 396.5,212C 396.833,212.333 397.167,212.667 397.5,213C 395.946,214.748 394.28,214.915 392.5,213.5C 390.964,214.249 389.631,215.249 388.5,216.5C 387.808,215.975 387.308,215.308 387,214.5C 382.5,217.667 378,220.833 373.5,224C 372.167,224.667 372.167,225.333 373.5,226C 365.305,232.313 357.472,238.147 350,243.5C 349.667,242.833 349.333,242.167 349,241.5C 348.826,246.684 348.326,251.684 347.5,256.5C 347.334,250.158 347.5,243.825 348,237.5C 348.881,235.726 350.047,235.06 351.5,235.5C 350.833,234.833 350.167,234.167 349.5,233.5C 350.309,231.929 350.643,230.262 350.5,228.5C 354.799,218.201 362.132,210.868 372.5,206.5C 374.927,206.477 377.26,205.977 379.5,205C 403.831,204.5 428.164,204.333 452.5,204.5 Z"/></g>
<g><path style="opacity:1" fill="#00b8be" d="M 436.5,205.5 C 437.952,206.302 439.618,206.802 441.5,207C 440.552,207.483 439.552,207.649 438.5,207.5C 438.649,208.552 438.483,209.552 438,210.5C 437.282,209.549 436.449,209.383 435.5,210C 436.833,211.84 436.666,212.34 435,211.5C 433.89,213.037 432.39,213.703 430.5,213.5C 430.881,215.942 430.214,216.609 428.5,215.5C 423.888,217.412 419.388,220.078 415,223.5C 414.667,223.167 414.333,222.833 414,222.5C 413.097,223.701 411.931,224.535 410.5,225C 411.956,225.423 412.456,226.256 412,227.5C 410.927,226.72 409.76,226.887 408.5,228C 407.167,229.333 405.833,230.667 404.5,232C 395.285,236.513 386.285,242.179 377.5,249C 375.833,249.833 374.167,250.667 372.5,251.5C 371.808,250.975 371.308,250.308 371,249.5C 370.123,253.149 367.956,255.316 364.5,256C 365.696,255.346 365.696,254.846 364.5,254.5C 361.736,255.761 359.403,257.595 357.5,260C 355.051,260.725 352.717,261.725 350.5,263C 349.949,264.398 349.616,265.732 349.5,267C 351.279,266.021 352.945,266.354 354.5,268C 353.007,269.368 351.507,269.535 350,268.5C 349.83,270.715 349.163,272.715 348,274.5C 347.501,268.509 347.334,262.509 347.5,256.5C 348.326,251.684 348.826,246.684 349,241.5C 349.333,242.167 349.667,242.833 350,243.5C 357.472,238.147 365.305,232.313 373.5,226C 372.167,225.333 372.167,224.667 373.5,224C 378,220.833 382.5,217.667 387,214.5C 387.308,215.308 387.808,215.975 388.5,216.5C 389.631,215.249 390.964,214.249 392.5,213.5C 394.28,214.915 395.946,214.748 397.5,213C 397.167,212.667 396.833,212.333 396.5,212C 397.667,211.5 398.5,210.667 399,209.5C 400.343,210.214 401.676,209.88 403,208.5C 403.456,207.256 402.956,206.423 401.5,206C 413.162,205.5 424.829,205.333 436.5,205.5 Z"/></g>
<g><path style="opacity:1" fill="#06bfc0" d="M 452.5,204.5 C 475.833,204.5 499.167,204.5 522.5,204.5C 506.005,205.332 489.338,205.832 472.5,206C 474.577,206.192 476.577,206.692 478.5,207.5C 478.291,208.086 477.957,208.586 477.5,209C 460.972,219.093 444.638,229.427 428.5,240C 425.623,241.127 422.623,241.794 419.5,242C 417.844,243.829 415.844,245.163 413.5,246C 427.673,246.169 441.673,246.669 455.5,247.5C 438.163,247.333 420.83,247.5 403.5,248C 402.263,248.232 401.263,248.732 400.5,249.5C 395.308,252.019 391.974,256.019 390.5,261.5C 389.596,262.209 389.263,263.209 389.5,264.5C 388.686,266.631 388.186,268.964 388,271.5C 387.667,268.167 387.333,264.833 387,261.5C 382.791,265.026 378.291,268.193 373.5,271C 371.996,272.491 371.163,274.324 371,276.5C 370.333,275.833 369.667,275.167 369,274.5C 367.174,276.179 365.008,277.346 362.5,278C 361.299,278.903 360.465,280.069 360,281.5C 358.442,280.655 357.442,281.321 357,283.5C 356.667,283.167 356.333,282.833 356,282.5C 354.417,284.055 352.584,285.222 350.5,286C 349.033,288.378 348.033,290.878 347.5,293.5C 347.815,289.629 347.482,285.962 346.5,282.5C 346.333,267.163 346.5,251.83 347,236.5C 347.705,233.524 348.871,230.858 350.5,228.5C 350.643,230.262 350.309,231.929 349.5,233.5C 350.167,234.167 350.833,234.833 351.5,235.5C 350.047,235.06 348.881,235.726 348,237.5C 347.5,243.825 347.334,250.158 347.5,256.5C 347.334,262.509 347.501,268.509 348,274.5C 349.163,272.715 349.83,270.715 350,268.5C 351.507,269.535 353.007,269.368 354.5,268C 352.945,266.354 351.279,266.021 349.5,267C 349.616,265.732 349.949,264.398 350.5,263C 352.717,261.725 355.051,260.725 357.5,260C 359.403,257.595 361.736,255.761 364.5,254.5C 365.696,254.846 365.696,255.346 364.5,256C 367.956,255.316 370.123,253.149 371,249.5C 371.308,250.308 371.808,250.975 372.5,251.5C 374.167,250.667 375.833,249.833 377.5,249C 386.285,242.179 395.285,236.513 404.5,232C 405.833,230.667 407.167,229.333 408.5,228C 409.76,226.887 410.927,226.72 412,227.5C 412.456,226.256 411.956,225.423 410.5,225C 411.931,224.535 413.097,223.701 414,222.5C 414.333,222.833 414.667,223.167 415,223.5C 419.388,220.078 423.888,217.412 428.5,215.5C 430.214,216.609 430.881,215.942 430.5,213.5C 432.39,213.703 433.89,213.037 435,211.5C 436.666,212.34 436.833,211.84 435.5,210C 436.449,209.383 437.282,209.549 438,210.5C 438.483,209.552 438.649,208.552 438.5,207.5C 439.552,207.649 440.552,207.483 441.5,207C 439.618,206.802 437.952,206.302 436.5,205.5C 442.026,205.821 447.36,205.488 452.5,204.5 Z"/></g>
<g><path style="opacity:1" fill="#4dc9c7" d="M 529.5,204.5 C 538.364,206.265 545.698,210.598 551.5,217.5C 552.413,219.086 552.413,220.586 551.5,222C 552.448,222.483 553.448,222.649 554.5,222.5C 554.808,225.713 553.641,226.713 551,225.5C 547.756,226.47 544.59,227.637 541.5,229C 537.992,232.582 533.992,235.415 529.5,237.5C 528.416,238.665 527.583,239.998 527,241.5C 526.282,240.549 525.449,240.383 524.5,241C 522.434,244.366 520.101,247.533 517.5,250.5C 518.833,251.62 519.333,252.953 519,254.5C 517.13,252.781 514.963,251.781 512.5,251.5C 510.176,250.344 507.843,249.344 505.5,248.5C 505.5,248.167 505.5,247.833 505.5,247.5C 497.218,246.64 487.551,246.14 476.5,246C 480.309,243.387 484.809,241.221 490,239.5C 491.84,240.833 492.34,240.666 491.5,239C 494.049,238.249 495.716,236.582 496.5,234C 502.203,231.154 507.536,227.821 512.5,224C 520.294,219.995 527.627,215.495 534.5,210.5C 534.5,209.5 534.5,208.5 534.5,207.5C 532.336,207.279 530.67,206.279 529.5,204.5 Z"/></g>
<g><path style="opacity:1" fill="#6ccec9" d="M 551.5,217.5 C 556.936,223.038 560.269,229.705 561.5,237.5C 561.5,247.833 561.5,258.167 561.5,268.5C 560.671,261.345 560.171,254.011 560,246.5C 549.348,252.269 539.181,258.769 529.5,266C 526.143,267.17 522.809,268.337 519.5,269.5C 519.81,266.287 519.477,263.287 518.5,260.5C 516.761,257.365 514.761,254.365 512.5,251.5C 514.963,251.781 517.13,252.781 519,254.5C 519.333,252.953 518.833,251.62 517.5,250.5C 520.101,247.533 522.434,244.366 524.5,241C 525.449,240.383 526.282,240.549 527,241.5C 527.583,239.998 528.416,238.665 529.5,237.5C 533.992,235.415 537.992,232.582 541.5,229C 544.59,227.637 547.756,226.47 551,225.5C 553.641,226.713 554.808,225.713 554.5,222.5C 553.448,222.649 552.448,222.483 551.5,222C 552.413,220.586 552.413,219.086 551.5,217.5 Z"/></g>
<g><path style="opacity:0.475" fill="#b0e3e4" d="M 455.5,247.5 C 472.167,247.5 488.833,247.5 505.5,247.5C 505.5,247.833 505.5,248.167 505.5,248.5C 470.476,248.193 435.476,248.527 400.5,249.5C 401.263,248.732 402.263,248.232 403.5,248C 420.83,247.5 438.163,247.333 455.5,247.5 Z"/></g>
<g><path style="opacity:1" fill="#7cd0cb" d="M 561.5,268.5 C 561.667,284.837 561.5,301.17 561,317.5C 560.5,306.839 560.333,296.172 560.5,285.5C 560.827,280.456 560.494,275.456 559.5,270.5C 554.964,272.857 550.631,275.524 546.5,278.5C 546.089,277.738 545.923,276.738 546,275.5C 544.951,274.483 543.784,274.316 542.5,275C 543.711,275.893 543.711,276.726 542.5,277.5C 541.914,277.291 541.414,276.957 541,276.5C 535.036,280.232 528.869,283.565 522.5,286.5C 521.914,286.291 521.414,285.957 521,285.5C 520.814,288.036 520.314,290.369 519.5,292.5C 519.5,284.833 519.5,277.167 519.5,269.5C 522.809,268.337 526.143,267.17 529.5,266C 539.181,258.769 549.348,252.269 560,246.5C 560.171,254.011 560.671,261.345 561.5,268.5 Z"/></g>
<g><path style="opacity:1" fill="#1daebb" d="M 290.5,253.5 C 294.042,253.187 297.375,253.521 300.5,254.5C 298.076,254.192 295.743,254.526 293.5,255.5C 284.127,262.61 274.627,269.61 265,276.5C 264.08,276.07 263.247,275.736 262.5,275.5C 263.025,274.808 263.692,274.308 264.5,274C 263.748,273.329 263.414,272.496 263.5,271.5C 269.216,260.816 278.216,254.816 290.5,253.5 Z"/></g>
<g><path style="opacity:1" fill="#02b2bb" d="M 300.5,254.5 C 300.5,268.833 300.5,283.167 300.5,297.5C 299.689,291.02 298.855,284.686 298,278.5C 297.315,282.102 295.148,284.269 291.5,285C 293.741,287.202 294.408,289.702 293.5,292.5C 292.914,292.291 292.414,291.957 292,291.5C 292.311,292.935 292.145,294.268 291.5,295.5C 291.167,295.833 290.833,296.167 290.5,296.5C 289.09,294.051 289.424,291.884 291.5,290C 290.833,289.333 290.167,289.333 289.5,290C 288.773,292.124 288.106,294.291 287.5,296.5C 287.167,296.833 286.833,297.167 286.5,297.5C 286.167,296.833 285.833,296.167 285.5,295.5C 281.815,296.241 281.149,297.741 283.5,300C 281.714,300.785 280.214,301.951 279,303.5C 277.132,302.328 275.298,302.495 273.5,304C 275.271,304.535 275.604,305.369 274.5,306.5C 273.522,306.023 272.689,305.357 272,304.5C 271.667,304.833 271.333,305.167 271,305.5C 270.289,302.121 268.122,300.621 264.5,301C 263.922,299.583 262.922,298.75 261.5,298.5C 260.51,292.355 260.177,286.022 260.5,279.5C 260.415,276.351 261.415,273.684 263.5,271.5C 263.414,272.496 263.748,273.329 264.5,274C 263.692,274.308 263.025,274.808 262.5,275.5C 263.247,275.736 264.08,276.07 265,276.5C 274.627,269.61 284.127,262.61 293.5,255.5C 295.743,254.526 298.076,254.192 300.5,254.5 Z"/></g>
<g><path style="opacity:1" fill="#06c4c2" d="M 389.5,264.5 C 389.5,274.167 389.5,283.833 389.5,293.5C 388.394,296.383 387.061,299.217 385.5,302C 383.5,302.333 381.5,302.667 379.5,303C 375.994,307.082 371.661,309.582 366.5,310.5C 366.719,311.675 366.386,312.675 365.5,313.5C 362.921,315.04 360.421,316.707 358,318.5C 356.333,319.833 354.667,319.833 353,318.5C 352.055,318.905 351.388,319.572 351,320.5C 350.667,319.833 350.333,319.167 350,318.5C 349.667,319.833 349.333,321.167 349,322.5C 347.58,312.914 347.08,303.247 347.5,293.5C 348.033,290.878 349.033,288.378 350.5,286C 352.584,285.222 354.417,284.055 356,282.5C 356.333,282.833 356.667,283.167 357,283.5C 357.442,281.321 358.442,280.655 360,281.5C 360.465,280.069 361.299,278.903 362.5,278C 365.008,277.346 367.174,276.179 369,274.5C 369.667,275.167 370.333,275.833 371,276.5C 371.163,274.324 371.996,272.491 373.5,271C 378.291,268.193 382.791,265.026 387,261.5C 387.333,264.833 387.667,268.167 388,271.5C 388.186,268.964 388.686,266.631 389.5,264.5 Z"/></g>
<g><path style="opacity:0.401" fill="#c1e4e0" d="M 518.5,260.5 C 519.477,263.287 519.81,266.287 519.5,269.5C 519.5,277.167 519.5,284.833 519.5,292.5C 518.833,293.167 518.167,293.833 517.5,294.5C 518.434,283.205 518.768,271.871 518.5,260.5 Z"/></g>
<g><path style="opacity:1" fill="#00b8be" d="M 300.5,297.5 C 300.5,304.833 300.5,312.167 300.5,319.5C 299.675,316.628 298.841,313.628 298,310.5C 296.89,312.397 296.724,314.23 297.5,316C 296.258,316.311 295.258,315.811 294.5,314.5C 290.828,317.014 287.328,319.681 284,322.5C 281.808,321.601 279.642,320.601 277.5,319.5C 271.351,313.031 266.018,306.031 261.5,298.5C 262.922,298.75 263.922,299.583 264.5,301C 268.122,300.621 270.289,302.121 271,305.5C 271.333,305.167 271.667,304.833 272,304.5C 272.689,305.357 273.522,306.023 274.5,306.5C 275.604,305.369 275.271,304.535 273.5,304C 275.298,302.495 277.132,302.328 279,303.5C 280.214,301.951 281.714,300.785 283.5,300C 281.149,297.741 281.815,296.241 285.5,295.5C 285.833,296.167 286.167,296.833 286.5,297.5C 286.833,297.167 287.167,296.833 287.5,296.5C 288.106,294.291 288.773,292.124 289.5,290C 290.167,289.333 290.833,289.333 291.5,290C 289.424,291.884 289.09,294.051 290.5,296.5C 290.833,296.167 291.167,295.833 291.5,295.5C 292.145,294.268 292.311,292.935 292,291.5C 292.414,291.957 292.914,292.291 293.5,292.5C 294.408,289.702 293.741,287.202 291.5,285C 295.148,284.269 297.315,282.102 298,278.5C 298.855,284.686 299.689,291.02 300.5,297.5 Z"/></g>
<g><path style="opacity:0.494" fill="#86d5d3" d="M 390.5,261.5 C 390.235,272.538 390.568,283.538 391.5,294.5C 390.833,294.167 390.167,293.833 389.5,293.5C 389.5,283.833 389.5,274.167 389.5,264.5C 389.263,263.209 389.596,262.209 390.5,261.5 Z"/></g>
<g><path style="opacity:1" fill="#94d4cd" d="M 561.5,237.5 C 562.664,264.997 562.83,292.664 562,320.5C 556.862,338.637 545.029,349.471 526.5,353C 477.998,353.832 429.665,353.665 381.5,352.5C 393.833,352.5 406.167,352.5 418.5,352.5C 421.833,352.5 425.167,352.5 428.5,352.5C 459.835,352.667 491.168,352.5 522.5,352C 497.16,351.833 471.827,351.333 446.5,350.5C 446.291,349.914 445.957,349.414 445.5,349C 452.393,346.554 459.06,343.554 465.5,340C 494.799,320.764 524.966,302.931 556,286.5C 557.947,287.044 558.78,288.377 558.5,290.5C 558.489,292.854 557.656,294.854 556,296.5C 554.42,292.673 552.92,292.839 551.5,297C 553.709,297.957 553.543,299.124 551,300.5C 550.781,299.062 550.281,297.729 549.5,296.5C 548.304,296.846 548.304,297.346 549.5,298C 543.862,300.489 542.862,303.822 546.5,308C 545.41,310.279 545.744,312.446 547.5,314.5C 548.899,311.32 549.232,308.153 548.5,305C 550.105,303.64 551.605,302.14 553,300.5C 554.373,300.404 555.873,300.57 557.5,301C 556.72,299.927 556.887,298.76 558,297.5C 558.333,302.5 558.667,307.5 559,312.5C 559.17,303.324 559.67,294.324 560.5,285.5C 560.333,296.172 560.5,306.839 561,317.5C 561.5,301.17 561.667,284.837 561.5,268.5C 561.5,258.167 561.5,247.833 561.5,237.5 Z"/></g>
<g><path style="opacity:0.494" fill="#91c1d6" d="M 639.5,170.5 C 642.962,169.518 646.629,169.185 650.5,169.5C 650.833,244.335 650.499,319.002 649.5,393.5C 649.833,318.998 649.499,244.665 648.5,170.5C 645.5,170.5 642.5,170.5 639.5,170.5 Z"/></g>
<g><path style="opacity:1" fill="#05bec0" d="M 260.5,279.5 C 260.177,286.022 260.51,292.355 261.5,298.5C 266.018,306.031 271.351,313.031 277.5,319.5C 279.642,320.601 281.808,321.601 284,322.5C 287.328,319.681 290.828,317.014 294.5,314.5C 295.258,315.811 296.258,316.311 297.5,316C 296.724,314.23 296.89,312.397 298,310.5C 298.841,313.628 299.675,316.628 300.5,319.5C 300.5,329.167 300.5,338.833 300.5,348.5C 299.566,347.432 299.232,346.099 299.5,344.5C 295.544,343.092 292.71,340.425 291,336.5C 290.667,337.167 290.333,337.833 290,338.5C 287.244,335.243 284.744,332.409 282.5,330C 282.833,329.667 283.167,329.333 283.5,329C 282.552,328.517 281.552,328.351 280.5,328.5C 275.907,322.379 271.407,316.045 267,309.5C 265.622,307.787 263.955,306.453 262,305.5C 261.722,306.416 261.222,307.082 260.5,307.5C 260.167,307.5 259.833,307.5 259.5,307.5C 259.815,303.629 259.482,299.962 258.5,296.5C 258.128,290.57 258.795,284.903 260.5,279.5 Z"/></g>
<g><path style="opacity:1" fill="#11c5c4" d="M 300.5,348.5 C 300.32,352.215 300.654,355.882 301.5,359.5C 301.333,360.167 301.167,360.833 301,361.5C 300.667,360.5 300.333,359.5 300,358.5C 299.727,360.101 299.227,361.601 298.5,363C 299.167,363.333 299.833,363.667 300.5,364C 298.365,364.635 296.365,364.301 294.5,363C 293.267,361.333 291.933,359.833 290.5,358.5C 286.506,352.519 283.006,346.185 280,339.5C 275.092,333.838 271.092,327.505 268,320.5C 266.926,319.382 265.76,318.382 264.5,317.5C 263.312,314.979 261.978,312.645 260.5,310.5C 260.5,309.5 260.5,308.5 260.5,307.5C 261.222,307.082 261.722,306.416 262,305.5C 263.955,306.453 265.622,307.787 267,309.5C 271.407,316.045 275.907,322.379 280.5,328.5C 281.552,328.351 282.552,328.517 283.5,329C 283.167,329.333 282.833,329.667 282.5,330C 284.744,332.409 287.244,335.243 290,338.5C 290.333,337.833 290.667,337.167 291,336.5C 292.71,340.425 295.544,343.092 299.5,344.5C 299.232,346.099 299.566,347.432 300.5,348.5 Z"/></g>
<g><path style="opacity:1" fill="#7dd1cb" d="M 457.5,306.5 C 473.17,306.333 488.837,306.5 504.5,307C 501.5,307.333 498.5,307.667 495.5,308C 491.228,311.429 486.562,314.262 481.5,316.5C 480.833,315.5 480.167,314.5 479.5,313.5C 460.646,325.421 442.313,336.588 424.5,347C 424.833,347.333 425.167,347.667 425.5,348C 424.552,348.483 423.552,348.649 422.5,348.5C 422.5,349.5 422.5,350.5 422.5,351.5C 424.735,351.205 426.735,351.539 428.5,352.5C 425.167,352.5 421.833,352.5 418.5,352.5C 409.848,351.971 401.181,351.138 392.5,350C 413.458,337.027 434.125,323.694 454.5,310C 455.598,309.23 455.598,308.397 454.5,307.5C 455.791,307.737 456.791,307.404 457.5,306.5 Z"/></g>
<g><path style="opacity:0.608" fill="#7cb7d0" d="M 608.5,199.5 C 608.5,250.833 608.5,302.167 608.5,353.5C 607.833,355.5 607.167,357.5 606.5,359.5C 607.136,306.012 607.803,252.678 608.5,199.5 Z"/></g>
<g><path style="opacity:1" fill="#8dd4cd" d="M 560.5,285.5 C 559.67,294.324 559.17,303.324 559,312.5C 558.667,307.5 558.333,302.5 558,297.5C 556.887,298.76 556.72,299.927 557.5,301C 555.873,300.57 554.373,300.404 553,300.5C 551.605,302.14 550.105,303.64 548.5,305C 549.232,308.153 548.899,311.32 547.5,314.5C 545.744,312.446 545.41,310.279 546.5,308C 542.862,303.822 543.862,300.489 549.5,298C 548.304,297.346 548.304,296.846 549.5,296.5C 550.281,297.729 550.781,299.062 551,300.5C 553.543,299.124 553.709,297.957 551.5,297C 552.92,292.839 554.42,292.673 556,296.5C 557.656,294.854 558.489,292.854 558.5,290.5C 558.78,288.377 557.947,287.044 556,286.5C 524.966,302.931 494.799,320.764 465.5,340C 459.06,343.554 452.393,346.554 445.5,349C 445.957,349.414 446.291,349.914 446.5,350.5C 471.827,351.333 497.16,351.833 522.5,352C 491.168,352.5 459.835,352.667 428.5,352.5C 426.735,351.539 424.735,351.205 422.5,351.5C 422.5,350.5 422.5,349.5 422.5,348.5C 423.552,348.649 424.552,348.483 425.5,348C 425.167,347.667 424.833,347.333 424.5,347C 442.313,336.588 460.646,325.421 479.5,313.5C 480.167,314.5 480.833,315.5 481.5,316.5C 486.562,314.262 491.228,311.429 495.5,308C 498.5,307.667 501.5,307.333 504.5,307C 488.837,306.5 473.17,306.333 457.5,306.5C 448.167,306.5 438.833,306.5 429.5,306.5C 419.776,306.859 410.109,306.359 400.5,305C 399.058,304.623 398.058,303.79 397.5,302.5C 398.922,302.709 400.255,303.209 401.5,304C 436.833,304.667 472.167,304.667 507.5,304C 512.02,301.978 515.353,298.811 517.5,294.5C 518.167,293.833 518.833,293.167 519.5,292.5C 520.314,290.369 520.814,288.036 521,285.5C 521.414,285.957 521.914,286.291 522.5,286.5C 528.869,283.565 535.036,280.232 541,276.5C 541.414,276.957 541.914,277.291 542.5,277.5C 543.711,276.726 543.711,275.893 542.5,275C 543.784,274.316 544.951,274.483 546,275.5C 545.923,276.738 546.089,277.738 546.5,278.5C 550.631,275.524 554.964,272.857 559.5,270.5C 560.494,275.456 560.827,280.456 560.5,285.5 Z"/></g>
<g><path style="opacity:1" fill="#4cc9c6" d="M 346.5,282.5 C 347.482,285.962 347.815,289.629 347.5,293.5C 347.08,303.247 347.58,312.914 349,322.5C 349.333,321.167 349.667,319.833 350,318.5C 350.333,319.167 350.667,319.833 351,320.5C 351.388,319.572 352.055,318.905 353,318.5C 354.667,319.833 356.333,319.833 358,318.5C 360.421,316.707 362.921,315.04 365.5,313.5C 366.386,312.675 366.719,311.675 366.5,310.5C 371.661,309.582 375.994,307.082 379.5,303C 381.5,302.667 383.5,302.333 385.5,302C 387.061,299.217 388.394,296.383 389.5,293.5C 390.167,293.833 390.833,294.167 391.5,294.5C 393.084,297.426 395.084,300.092 397.5,302.5C 398.058,303.79 399.058,304.623 400.5,305C 410.109,306.359 419.776,306.859 429.5,306.5C 422.679,307.329 415.679,307.829 408.5,308C 407.833,309.333 406.833,310.333 405.5,311C 407.301,311.317 407.634,311.984 406.5,313C 404.5,313.333 402.5,313.667 400.5,314C 400.957,314.414 401.291,314.914 401.5,315.5C 397.975,316.137 395.308,317.97 393.5,321C 390.127,321.548 387.127,322.882 384.5,325C 385.167,325.667 385.833,326.333 386.5,327C 382.576,327.26 378.909,328.26 375.5,330C 376.731,331.183 376.731,332.349 375.5,333.5C 373.286,331.076 372.286,331.743 372.5,335.5C 368.578,335.069 365.078,336.069 362,338.5C 361.46,336.865 361.96,335.532 363.5,334.5C 361.665,333.808 359.832,334.142 358,335.5C 356.22,334.361 354.386,333.361 352.5,332.5C 349.895,328.95 348.061,324.95 347,320.5C 346.5,307.838 346.333,295.171 346.5,282.5 Z"/></g>
<g><path style="opacity:1" fill="#65ccc8" d="M 429.5,306.5 C 438.833,306.5 448.167,306.5 457.5,306.5C 456.791,307.404 455.791,307.737 454.5,307.5C 447.492,307.334 440.492,307.5 433.5,308C 435.686,308.604 435.852,309.77 434,311.5C 427.421,315.919 420.421,319.586 413,322.5C 411.242,320.231 409.408,320.065 407.5,322C 409.044,322.29 410.377,322.956 411.5,324C 409.945,325.646 408.279,325.979 406.5,325C 406.957,325.414 407.291,325.914 407.5,326.5C 403.896,328.436 400.563,330.769 397.5,333.5C 397.167,334.833 396.833,336.167 396.5,337.5C 394.352,336.242 392.185,336.242 390,337.5C 388.294,339.276 386.461,340.942 384.5,342.5C 383.28,343.711 382.113,343.711 381,342.5C 379.748,345.812 377.581,347.312 374.5,347C 376.285,348.163 378.285,348.83 380.5,349C 377.628,350.451 374.628,350.618 371.5,349.5C 362.952,346.285 356.619,340.618 352.5,332.5C 354.386,333.361 356.22,334.361 358,335.5C 359.832,334.142 361.665,333.808 363.5,334.5C 361.96,335.532 361.46,336.865 362,338.5C 365.078,336.069 368.578,335.069 372.5,335.5C 372.286,331.743 373.286,331.076 375.5,333.5C 376.731,332.349 376.731,331.183 375.5,330C 378.909,328.26 382.576,327.26 386.5,327C 385.833,326.333 385.167,325.667 384.5,325C 387.127,322.882 390.127,321.548 393.5,321C 395.308,317.97 397.975,316.137 401.5,315.5C 401.291,314.914 400.957,314.414 400.5,314C 402.5,313.667 404.5,313.333 406.5,313C 407.634,311.984 407.301,311.317 405.5,311C 406.833,310.333 407.833,309.333 408.5,308C 415.679,307.829 422.679,307.329 429.5,306.5 Z"/></g>
<g><path style="opacity:1" fill="#6fcfca" d="M 454.5,307.5 C 455.598,308.397 455.598,309.23 454.5,310C 434.125,323.694 413.458,337.027 392.5,350C 401.181,351.138 409.848,351.971 418.5,352.5C 406.167,352.5 393.833,352.5 381.5,352.5C 377.838,352.277 374.505,351.277 371.5,349.5C 374.628,350.618 377.628,350.451 380.5,349C 378.285,348.83 376.285,348.163 374.5,347C 377.581,347.312 379.748,345.812 381,342.5C 382.113,343.711 383.28,343.711 384.5,342.5C 386.461,340.942 388.294,339.276 390,337.5C 392.185,336.242 394.352,336.242 396.5,337.5C 396.833,336.167 397.167,334.833 397.5,333.5C 400.563,330.769 403.896,328.436 407.5,326.5C 407.291,325.914 406.957,325.414 406.5,325C 408.279,325.979 409.945,325.646 411.5,324C 410.377,322.956 409.044,322.29 407.5,322C 409.408,320.065 411.242,320.231 413,322.5C 420.421,319.586 427.421,315.919 434,311.5C 435.852,309.77 435.686,308.604 433.5,308C 440.492,307.5 447.492,307.334 454.5,307.5 Z"/></g>
<g><path style="opacity:1" fill="#8dd3cc" d="M 320.5,442.5 C 315.473,442.497 310.473,442.164 305.5,441.5C 308.534,439.982 311.867,439.149 315.5,439C 314.809,437.933 314.309,436.766 314,435.5C 313.751,436.624 313.251,437.624 312.5,438.5C 309.164,436.833 306.164,434.167 303.5,430.5C 304.5,429.833 305.5,429.167 306.5,428.5C 303.956,426.608 303.956,424.775 306.5,423C 305.185,421.605 305.519,420.605 307.5,420C 305.606,418.899 304.939,417.566 305.5,416C 304.667,415.167 303.833,414.333 303,413.5C 303.792,416.191 303.459,418.858 302,421.5C 301.5,420.333 300.667,419.5 299.5,419C 301.595,418.444 301.762,417.944 300,417.5C 298.779,418.272 297.779,419.272 297,420.5C 296.311,419.643 295.478,418.977 294.5,418.5C 293.304,418.846 293.304,419.346 294.5,420C 293.065,419.689 291.732,419.855 290.5,420.5C 290.089,419.738 289.923,418.738 290,417.5C 288.636,418.258 287.469,417.758 286.5,416C 285.24,413.683 283.24,411.349 280.5,409C 282.787,407.573 283.12,405.739 281.5,403.5C 282.04,402.252 282.707,401.085 283.5,400C 282.833,399.667 282.167,399.333 281.5,399C 282.667,397.833 283.833,396.667 285,395.5C 286,395.833 287,396.167 288,396.5C 288.465,395.069 289.299,393.903 290.5,393C 288.752,392.92 287.085,392.087 285.5,390.5C 282.882,391.574 280.715,390.907 279,388.5C 277.164,390.604 274.998,390.938 272.5,389.5C 271.624,388.749 270.624,388.249 269.5,388C 269.833,387.667 270.167,387.333 270.5,387C 269,386.167 267.833,385 267,383.5C 265.03,375.896 263.364,368.229 262,360.5C 261.667,363.167 261.333,365.833 261,368.5C 260.5,358.506 260.334,348.506 260.5,338.5C 261.117,338.389 261.617,338.056 262,337.5C 264.252,342.086 266.919,346.419 270,350.5C 272.53,354.899 274.53,359.566 276,364.5C 280.572,368.74 284.405,373.573 287.5,379C 286.981,381.026 286.647,383.026 286.5,385C 287.469,386.758 288.636,387.258 290,386.5C 294.304,393.087 298.637,399.754 303,406.5C 309.109,418.385 314.943,430.385 320.5,442.5 Z"/></g>
<g><path style="opacity:1" fill="#80d1cc" d="M 336.5,396.5 C 338.861,396.674 341.194,397.007 343.5,397.5C 347.298,398.483 351.298,398.817 355.5,398.5C 360.985,399.327 366.652,399.827 372.5,400C 367.582,400.195 362.749,400.695 358,401.5C 357.333,402.5 357.333,403.5 358,404.5C 359,404.167 360,403.833 361,403.5C 361.5,404 362,404.5 362.5,405C 357.933,406.415 357.266,408.915 360.5,412.5C 359.502,415.028 358.669,415.028 358,412.5C 355.424,415.559 353.924,415.059 353.5,411C 354.459,408.88 354.626,406.713 354,404.5C 353.322,407.303 352.156,409.803 350.5,412C 353.482,415.199 354.149,418.866 352.5,423C 354.052,426.151 355.885,426.318 358,423.5C 358.798,425.259 358.631,426.926 357.5,428.5C 357.167,427.833 356.833,427.167 356.5,426.5C 354.312,427.444 352.979,429.111 352.5,431.5C 353.262,431.911 354.262,432.077 355.5,432C 354.213,433.41 353.046,434.91 352,436.5C 351.333,435.833 350.667,435.167 350,434.5C 347.517,436.98 347.517,438.98 350,440.5C 350.915,439.672 351.581,438.672 352,437.5C 352.833,438.5 353.667,439.5 354.5,440.5C 356.214,439.391 356.881,440.058 356.5,442.5C 344.5,442.5 332.5,442.5 320.5,442.5C 314.943,430.385 309.109,418.385 303,406.5C 298.637,399.754 294.304,393.087 290,386.5C 288.636,387.258 287.469,386.758 286.5,385C 286.647,383.026 286.981,381.026 287.5,379C 284.405,373.573 280.572,368.74 276,364.5C 274.53,359.566 272.53,354.899 270,350.5C 266.919,346.419 264.252,342.086 262,337.5C 261.617,338.056 261.117,338.389 260.5,338.5C 260.5,337.5 260.5,336.5 260.5,335.5C 261.222,335.082 261.722,334.416 262,333.5C 263.419,334.46 264.919,335.293 266.5,336C 266.167,336.333 265.833,336.667 265.5,337C 268.707,339.954 269.874,343.454 269,347.5C 269.317,345.699 269.984,345.366 271,346.5C 280.242,362.01 290.408,377.344 301.5,392.5C 308.269,405.871 315.935,418.704 324.5,431C 324.167,431.333 323.833,431.667 323.5,432C 324.966,432.635 326.3,433.469 327.5,434.5C 329.759,432.149 331.259,432.815 332,436.5C 333.69,432.302 335.023,427.969 336,423.5C 336.95,426.191 337.616,428.857 338,431.5C 338.52,422.83 339.02,414.163 339.5,405.5C 342.797,405.671 343.131,405.005 340.5,403.5C 344.641,400.901 344.474,400.235 340,401.5C 339.833,401.167 339.667,400.833 339.5,400.5C 340.376,399.749 341.376,399.249 342.5,399C 340.277,398.434 338.277,397.6 336.5,396.5 Z"/></g>
<g><path style="opacity:1" fill="#93d4ce" d="M 258.5,296.5 C 259.482,299.962 259.815,303.629 259.5,307.5C 259.434,316.852 259.768,326.185 260.5,335.5C 260.5,336.5 260.5,337.5 260.5,338.5C 260.334,348.506 260.5,358.506 261,368.5C 261.333,365.833 261.667,363.167 262,360.5C 263.364,368.229 265.03,375.896 267,383.5C 267.833,385 269,386.167 270.5,387C 270.167,387.333 269.833,387.667 269.5,388C 270.624,388.249 271.624,388.749 272.5,389.5C 274.998,390.938 277.164,390.604 279,388.5C 280.715,390.907 282.882,391.574 285.5,390.5C 287.085,392.087 288.752,392.92 290.5,393C 289.299,393.903 288.465,395.069 288,396.5C 287,396.167 286,395.833 285,395.5C 283.833,396.667 282.667,397.833 281.5,399C 282.167,399.333 282.833,399.667 283.5,400C 282.707,401.085 282.04,402.252 281.5,403.5C 283.12,405.739 282.787,407.573 280.5,409C 283.24,411.349 285.24,413.683 286.5,416C 287.469,417.758 288.636,418.258 290,417.5C 289.923,418.738 290.089,419.738 290.5,420.5C 291.732,419.855 293.065,419.689 294.5,420C 293.304,419.346 293.304,418.846 294.5,418.5C 295.478,418.977 296.311,419.643 297,420.5C 297.779,419.272 298.779,418.272 300,417.5C 301.762,417.944 301.595,418.444 299.5,419C 300.667,419.5 301.5,420.333 302,421.5C 303.459,418.858 303.792,416.191 303,413.5C 303.833,414.333 304.667,415.167 305.5,416C 304.939,417.566 305.606,418.899 307.5,420C 305.519,420.605 305.185,421.605 306.5,423C 303.956,424.775 303.956,426.608 306.5,428.5C 305.5,429.167 304.5,429.833 303.5,430.5C 306.164,434.167 309.164,436.833 312.5,438.5C 313.251,437.624 313.751,436.624 314,435.5C 314.309,436.766 314.809,437.933 315.5,439C 311.867,439.149 308.534,439.982 305.5,441.5C 284.079,436.857 269.579,424.19 262,403.5C 260.268,398.65 259.268,393.65 259,388.5C 258.5,357.835 258.333,327.168 258.5,296.5 Z"/></g>
<g><path style="opacity:1" fill="#78d0ca" d="M 259.5,307.5 C 259.833,307.5 260.167,307.5 260.5,307.5C 260.5,308.5 260.5,309.5 260.5,310.5C 258.111,320.776 261.444,328.109 270.5,332.5C 271.871,335.774 273.704,338.774 276,341.5C 276.684,342.784 276.517,343.951 275.5,345C 282.686,348.139 286.02,353.473 285.5,361C 289.145,367.791 293.645,373.957 299,379.5C 300.113,380.76 300.28,381.927 299.5,383C 302.86,383.694 304.86,385.694 305.5,389C 307.597,390.61 309.93,391.777 312.5,392.5C 312.291,393.086 311.957,393.586 311.5,394C 313.345,395.128 315.345,395.628 317.5,395.5C 317.104,392.956 317.771,390.789 319.5,389C 318.748,388.329 318.414,387.496 318.5,386.5C 323.954,390.892 329.954,394.225 336.5,396.5C 338.277,397.6 340.277,398.434 342.5,399C 341.376,399.249 340.376,399.749 339.5,400.5C 339.667,400.833 339.833,401.167 340,401.5C 344.474,400.235 344.641,400.901 340.5,403.5C 343.131,405.005 342.797,405.671 339.5,405.5C 339.02,414.163 338.52,422.83 338,431.5C 337.616,428.857 336.95,426.191 336,423.5C 335.023,427.969 333.69,432.302 332,436.5C 331.259,432.815 329.759,432.149 327.5,434.5C 326.3,433.469 324.966,432.635 323.5,432C 323.833,431.667 324.167,431.333 324.5,431C 315.935,418.704 308.269,405.871 301.5,392.5C 290.408,377.344 280.242,362.01 271,346.5C 269.984,345.366 269.317,345.699 269,347.5C 269.874,343.454 268.707,339.954 265.5,337C 265.833,336.667 266.167,336.333 266.5,336C 264.919,335.293 263.419,334.46 262,333.5C 261.722,334.416 261.222,335.082 260.5,335.5C 259.768,326.185 259.434,316.852 259.5,307.5 Z"/></g>
<g><path style="opacity:1" fill="#47cbca" d="M 290.5,253.5 C 293.962,252.518 297.629,252.185 301.5,252.5C 301.333,286.502 301.5,320.502 302,354.5C 302.418,358.934 303.251,363.267 304.5,367.5C 303.265,369.773 303.598,371.606 305.5,373C 304.594,376.962 302.76,377.129 300,373.5C 299.667,374.167 299.333,374.833 299,375.5C 296.586,369.53 293.752,363.863 290.5,358.5C 291.933,359.833 293.267,361.333 294.5,363C 296.365,364.301 298.365,364.635 300.5,364C 299.833,363.667 299.167,363.333 298.5,363C 299.227,361.601 299.727,360.101 300,358.5C 300.333,359.5 300.667,360.5 301,361.5C 301.167,360.833 301.333,360.167 301.5,359.5C 300.654,355.882 300.32,352.215 300.5,348.5C 300.5,338.833 300.5,329.167 300.5,319.5C 300.5,312.167 300.5,304.833 300.5,297.5C 300.5,283.167 300.5,268.833 300.5,254.5C 297.375,253.521 294.042,253.187 290.5,253.5 Z"/></g>
<g><path style="opacity:1" fill="#65ceca" d="M 260.5,310.5 C 261.978,312.645 263.312,314.979 264.5,317.5C 265.76,318.382 266.926,319.382 268,320.5C 271.092,327.505 275.092,333.838 280,339.5C 283.006,346.185 286.506,352.519 290.5,358.5C 293.752,363.863 296.586,369.53 299,375.5C 299.333,374.833 299.667,374.167 300,373.5C 302.76,377.129 304.594,376.962 305.5,373C 303.598,371.606 303.265,369.773 304.5,367.5C 307.946,374.723 312.613,381.056 318.5,386.5C 318.414,387.496 318.748,388.329 319.5,389C 317.771,390.789 317.104,392.956 317.5,395.5C 315.345,395.628 313.345,395.128 311.5,394C 311.957,393.586 312.291,393.086 312.5,392.5C 309.93,391.777 307.597,390.61 305.5,389C 304.86,385.694 302.86,383.694 299.5,383C 300.28,381.927 300.113,380.76 299,379.5C 293.645,373.957 289.145,367.791 285.5,361C 286.02,353.473 282.686,348.139 275.5,345C 276.517,343.951 276.684,342.784 276,341.5C 273.704,338.774 271.871,335.774 270.5,332.5C 261.444,328.109 258.111,320.776 260.5,310.5 Z"/></g>
<g><path style="opacity:0.753" fill="#9bc4d7" d="M 596.5,380.5 C 595.5,383.5 593.5,385.5 590.5,386.5C 592.167,384.167 594.167,382.167 596.5,380.5 Z"/></g>
<g><path style="opacity:0.224" fill="#e2efef" d="M 343.5,397.5 C 377.173,397.167 410.84,397.5 444.5,398.5C 444.376,399.107 444.043,399.44 443.5,399.5C 423.34,398.503 403.007,398.17 382.5,398.5C 373.5,398.5 364.5,398.5 355.5,398.5C 351.298,398.817 347.298,398.483 343.5,397.5 Z"/></g>
<g><path style="opacity:1" fill="#1489b7" d="M 470.5,397.5 C 480.09,398.051 489.757,398.885 499.5,400C 488.833,400.333 478.167,400.667 467.5,401C 472.518,401.544 472.518,402.711 467.5,404.5C 468.025,405.192 468.692,405.692 469.5,406C 467.167,407.243 466.5,408.909 467.5,411C 464.872,412.626 462.539,414.626 460.5,417C 463.105,417.026 464.271,418.193 464,420.5C 459.164,424.836 454.664,429.503 450.5,434.5C 449.135,435.807 447.802,435.807 446.5,434.5C 446.5,428.833 446.5,423.167 446.5,417.5C 450.53,406.142 458.53,399.476 470.5,397.5 Z"/></g>
<g><path style="opacity:1" fill="#8ad3cc" d="M 355.5,398.5 C 364.5,398.5 373.5,398.5 382.5,398.5C 387.985,399.327 393.652,399.827 399.5,400C 394.037,399.913 388.87,400.746 384,402.5C 383.667,402.167 383.333,401.833 383,401.5C 382.333,402.5 382.333,403.5 383,404.5C 384.717,403.612 385.884,404.279 386.5,406.5C 386.182,407.647 385.516,408.481 384.5,409C 386.418,410.77 386.918,412.937 386,415.5C 385.085,414.672 384.419,413.672 384,412.5C 383.667,415.5 383.333,418.5 383,421.5C 382.667,420.5 382.333,419.5 382,418.5C 381.022,421.669 381.522,424.503 383.5,427C 381.227,429.292 380.06,432.125 380,435.5C 378.951,437.107 377.451,437.773 375.5,437.5C 375.5,438.5 375.5,439.5 375.5,440.5C 377.698,440.12 379.365,440.787 380.5,442.5C 372.5,442.5 364.5,442.5 356.5,442.5C 356.881,440.058 356.214,439.391 354.5,440.5C 353.667,439.5 352.833,438.5 352,437.5C 351.581,438.672 350.915,439.672 350,440.5C 347.517,438.98 347.517,436.98 350,434.5C 350.667,435.167 351.333,435.833 352,436.5C 353.046,434.91 354.213,433.41 355.5,432C 354.262,432.077 353.262,431.911 352.5,431.5C 352.979,429.111 354.312,427.444 356.5,426.5C 356.833,427.167 357.167,427.833 357.5,428.5C 358.631,426.926 358.798,425.259 358,423.5C 355.885,426.318 354.052,426.151 352.5,423C 354.149,418.866 353.482,415.199 350.5,412C 352.156,409.803 353.322,407.303 354,404.5C 354.626,406.713 354.459,408.88 353.5,411C 353.924,415.059 355.424,415.559 358,412.5C 358.669,415.028 359.502,415.028 360.5,412.5C 357.266,408.915 357.933,406.415 362.5,405C 362,404.5 361.5,404 361,403.5C 360,403.833 359,404.167 358,404.5C 357.333,403.5 357.333,402.5 358,401.5C 362.749,400.695 367.582,400.195 372.5,400C 366.652,399.827 360.985,399.327 355.5,398.5 Z"/></g>
<g><path style="opacity:0.998" fill="#95d6ce" d="M 382.5,398.5 C 403.007,398.17 423.34,398.503 443.5,399.5C 434.645,410.22 431.645,422.553 434.5,436.5C 434.357,438.262 434.691,439.929 435.5,441.5C 417.179,442.5 398.845,442.833 380.5,442.5C 379.365,440.787 377.698,440.12 375.5,440.5C 375.5,439.5 375.5,438.5 375.5,437.5C 377.451,437.773 378.951,437.107 380,435.5C 380.06,432.125 381.227,429.292 383.5,427C 381.522,424.503 381.022,421.669 382,418.5C 382.333,419.5 382.667,420.5 383,421.5C 383.333,418.5 383.667,415.5 384,412.5C 384.419,413.672 385.085,414.672 386,415.5C 386.918,412.937 386.418,410.77 384.5,409C 385.516,408.481 386.182,407.647 386.5,406.5C 385.884,404.279 384.717,403.612 383,404.5C 382.333,403.5 382.333,402.5 383,401.5C 383.333,401.833 383.667,402.167 384,402.5C 388.87,400.746 394.037,399.913 399.5,400C 393.652,399.827 387.985,399.327 382.5,398.5 Z"/></g>
<g><path style="opacity:0.925" fill="#89b6d0" d="M 446.5,417.5 C 446.5,423.167 446.5,428.833 446.5,434.5C 443.833,428.833 443.833,423.167 446.5,417.5 Z"/></g>
<g><path style="opacity:1" fill="#0080b0" d="M 450.5,442.5 C 450.369,441.761 450.536,441.094 451,440.5C 483.428,441.329 515.928,441.829 548.5,442C 515.835,442.5 483.168,442.667 450.5,442.5 Z"/></g>
<g><path style="opacity:0.224" fill="#acded9" d="M 434.5,436.5 C 435.481,438.396 436.481,440.396 437.5,442.5C 394.837,443.667 352.171,443.833 309.5,443C 307.942,442.79 306.609,442.29 305.5,441.5C 310.473,442.164 315.473,442.497 320.5,442.5C 332.5,442.5 344.5,442.5 356.5,442.5C 364.5,442.5 372.5,442.5 380.5,442.5C 398.845,442.833 417.179,442.5 435.5,441.5C 434.691,439.929 434.357,438.262 434.5,436.5 Z"/></g>
<g><path style="opacity:1" fill="#0086ba" d="M 451.5,505.5 C 456.584,504.755 460.084,506.755 462,511.5C 462.667,545.167 462.667,578.833 462,612.5C 459.156,617.866 455.156,618.866 450,615.5C 448.438,613.043 447.438,610.376 447,607.5C 435.871,617.823 423.038,620.656 408.5,616C 384.123,604.74 375.957,586.24 384,560.5C 397.588,537.415 416.754,530.915 441.5,541C 443,542.5 444.5,544 446,545.5C 446.333,534.167 446.667,522.833 447,511.5C 447.599,508.746 449.099,506.746 451.5,505.5 Z M 418.5,551.5 C 440.044,552.921 448.878,564.254 445,585.5C 441.408,596.25 433.908,601.917 422.5,602.5C 402.491,599.662 394.325,588.329 398,568.5C 402.011,559.313 408.844,553.647 418.5,551.5 Z"/></g>
<g><path style="opacity:0.835" fill="#08b4bb" d="M 620.5,559.5 C 619.738,557.738 618.404,556.738 616.5,556.5C 614.051,553.444 611.051,551.111 607.5,549.5C 600.145,542.652 592.311,536.318 584,530.5C 580.958,523.915 582.458,518.748 588.5,515C 619.167,514.333 649.833,514.333 680.5,515C 685.155,517.897 686.655,522.063 685,527.5C 684.167,529.667 682.667,531.167 680.5,532C 662.153,532.952 643.819,533.952 625.5,535C 631.311,539.31 636.977,543.81 642.5,548.5C 644.718,557.635 641.051,562.635 631.5,563.5C 627.492,562.943 623.826,561.61 620.5,559.5 Z"/></g>
<g><path style="opacity:0.947" fill="#0086ba" d="M 38.5,575.5 C 31.4019,588.86 24.4019,602.36 17.5,616C 10.5231,617.774 4.52311,616.274 -0.5,611.5C -0.5,609.5 -0.5,607.5 -0.5,605.5C 13.165,577.498 26.3317,549.164 39,520.5C 41.536,517.234 44.8694,515.9 49,516.5C 52.4589,516.267 55.6255,517.101 58.5,519C 72.3824,547.311 85.8824,575.811 99,604.5C 100.006,612.503 96.3396,616.503 88,616.5C 85.4088,616.435 82.9088,615.935 80.5,615C 66.3799,604.548 52.5466,593.715 39,582.5C 38.5034,580.19 38.3367,577.857 38.5,575.5 Z M 38.5,575.5 C 41.6284,567.91 45.2951,560.577 49.5,553.5C 52.7567,559.681 55.7567,566.015 58.5,572.5C 58.3333,572.833 58.1667,573.167 58,573.5C 51.0825,569.647 44.5825,570.313 38.5,575.5 Z"/></g>
<g><path style="opacity:1" fill="#8fd4cc" d="M 664.5,517.5 C 669.628,517.112 674.628,517.612 679.5,519C 683.483,523.087 682.817,526.42 677.5,529C 656.471,529.192 635.471,530.025 614.5,531.5C 622.524,538.024 630.69,544.358 639,550.5C 640.337,556.462 637.837,559.462 631.5,559.5C 627.576,559.25 624.242,557.75 621.5,555C 611.12,546.285 600.453,537.952 589.5,530C 585.513,526.287 585.513,522.62 589.5,519C 614.67,518.832 639.67,518.332 664.5,517.5 Z"/></g>
<g><path style="opacity:1" fill="#0086ba" d="M 136.5,535.5 C 148.039,534.733 157.872,538.4 166,546.5C 167.746,538.925 172.246,536.425 179.5,539C 180.701,539.903 181.535,541.069 182,542.5C 182.667,567.167 182.667,591.833 182,616.5C 178.112,639.218 164.612,651.218 141.5,652.5C 133.302,652.425 130.135,648.425 132,640.5C 133.167,639.333 134.333,638.167 135.5,637C 155.151,638.008 164.984,628.842 165,609.5C 153.004,619.053 139.837,620.886 125.5,615C 104.999,605.166 96.8328,589 101,566.5C 107.112,549.551 118.945,539.218 136.5,535.5 Z M 137.5,551.5 C 157.927,552.43 167.093,563.096 165,583.5C 158.732,599.884 147.232,605.384 130.5,600C 117.919,593.001 113.419,582.501 117,568.5C 121.011,559.313 127.844,553.647 137.5,551.5 Z"/></g>
<g><path style="opacity:1" fill="#0086ba" d="M 233.5,535.5 C 252.274,534.966 266.441,542.632 276,558.5C 279.366,565.565 280.199,572.899 278.5,580.5C 277.335,581.584 276.002,582.417 274.5,583C 254.492,583.167 234.492,583.667 214.5,584.5C 220.423,598.986 231.09,604.486 246.5,601C 251.451,597.702 256.618,594.869 262,592.5C 268.418,593.992 270.751,597.992 269,604.5C 255.579,618.216 239.746,621.716 221.5,615C 199.433,602.811 192.266,584.644 200,560.5C 207.081,546.572 218.248,538.239 233.5,535.5 Z M 234.5,551.5 C 244.564,550.949 252.731,554.616 259,562.5C 260.707,564.909 261.54,567.575 261.5,570.5C 245.819,570.833 230.152,570.499 214.5,569.5C 218.406,560.253 225.072,554.253 234.5,551.5 Z"/></g>
<g><path style="opacity:1" fill="#0086ba" d="M 327.5,535.5 C 348.798,534.641 361.298,544.641 365,565.5C 365.667,581.167 365.667,596.833 365,612.5C 362.774,616.861 359.274,618.361 354.5,617C 352.333,616.167 350.833,614.667 350,612.5C 349.667,597.167 349.333,581.833 349,566.5C 346.955,556.791 340.955,551.791 331,551.5C 322.475,551.759 316.475,555.759 313,563.5C 312.015,580.525 311.015,597.525 310,614.5C 304.559,618.926 299.892,618.259 296,612.5C 295.333,589.167 295.333,565.833 296,542.5C 298.626,537.139 302.459,536.139 307.5,539.5C 308.439,541.053 309.606,542.387 311,543.5C 313.732,541.548 316.565,539.715 319.5,538C 322.379,537.454 325.046,536.621 327.5,535.5 Z"/></g>
<g><path style="opacity:1" fill="#0086ba" d="M 514.5,535.5 C 525.186,534.507 534.519,537.507 542.5,544.5C 544.067,541.557 546.4,539.39 549.5,538C 552.742,537.414 555.575,538.247 558,540.5C 559.636,564.103 559.97,587.77 559,611.5C 557.305,616.599 553.805,618.432 548.5,617C 545.547,614.937 543.714,612.104 543,608.5C 527.524,620.956 511.358,621.789 494.5,611C 477.935,597.033 473.602,579.866 481.5,559.5C 488.485,545.853 499.485,537.853 514.5,535.5 Z M 515.5,551.5 C 535.439,552.272 544.606,562.606 543,582.5C 536.517,601.489 524.017,606.989 505.5,599C 492.649,589.041 490.149,576.874 498,562.5C 502.578,556.638 508.411,552.972 515.5,551.5 Z"/></g>
<g><path style="opacity:1" fill="#00b1b9" d="M 767.5,536.5 C 786.274,535.966 800.441,543.632 810,559.5C 813.366,566.565 814.199,573.899 812.5,581.5C 811.335,582.584 810.002,583.417 808.5,584C 788.492,584.167 768.492,584.667 748.5,585.5C 754.423,599.986 765.09,605.486 780.5,602C 785.451,598.702 790.618,595.869 796,593.5C 802.418,594.992 804.751,598.992 803,605.5C 789.579,619.216 773.746,622.716 755.5,616C 733.433,603.811 726.266,585.644 734,561.5C 741.081,547.572 752.248,539.239 767.5,536.5 Z M 768.5,552.5 C 778.564,551.949 786.731,555.616 793,563.5C 794.707,565.909 795.54,568.575 795.5,571.5C 779.819,571.833 764.152,571.499 748.5,570.5C 752.406,561.253 759.072,555.253 768.5,552.5 Z"/></g>
<g><path style="opacity:1" fill="#00b1b9" d="M 909.5,568.5 C 909.5,572.5 909.5,576.5 909.5,580.5C 908.251,582.136 906.584,583.303 904.5,584C 884.492,584.167 864.492,584.667 844.5,585.5C 850.423,599.986 861.09,605.486 876.5,602C 881.451,598.702 886.618,595.869 892,593.5C 898.418,594.992 900.751,598.992 899,605.5C 885.579,619.216 869.746,622.716 851.5,616C 829.433,603.811 822.266,585.644 830,561.5C 840.325,541.826 856.491,533.993 878.5,538C 894.716,542.384 905.05,552.551 909.5,568.5 Z M 864.5,552.5 C 874.564,551.949 882.731,555.616 889,563.5C 890.707,565.909 891.54,568.575 891.5,571.5C 875.819,571.833 860.152,571.499 844.5,570.5C 848.406,561.253 855.072,555.253 864.5,552.5 Z"/></g>
<g><path style="opacity:1" fill="#00b1b9" d="M 688.5,538.5 C 694.447,537.946 697.947,540.613 699,546.5C 705.283,540.406 712.783,537.906 721.5,539C 724.997,540.323 726.664,542.823 726.5,546.5C 726.635,548.808 725.969,550.808 724.5,552.5C 717.552,553.738 710.886,555.905 704.5,559C 702.959,560.579 701.792,562.413 701,564.5C 699.711,580.767 699.044,597.1 699,613.5C 696.774,617.861 693.274,619.361 688.5,618C 686.43,617.052 684.93,615.552 684,613.5C 683.333,590.167 683.333,566.833 684,543.5C 685.025,541.313 686.525,539.646 688.5,538.5 Z"/></g>
<g><path style="opacity:0.826" fill="#05b3bb" d="M 607.5,549.5 C 609.949,552.556 612.949,554.889 616.5,556.5C 617.262,558.262 618.596,559.262 620.5,559.5C 627.476,565.636 634.643,571.636 642,577.5C 644.868,583.46 643.368,587.96 637.5,591C 627.146,591.296 616.813,591.796 606.5,592.5C 606.666,599.175 606.5,605.842 606,612.5C 601.078,617.202 595.245,618.702 588.5,617C 586.376,615.878 584.543,614.378 583,612.5C 582.5,601.839 582.333,591.172 582.5,580.5C 589.28,579.109 595.613,576.609 601.5,573C 595.667,568.5 589.833,564 584,559.5C 580.224,549.718 583.558,544.384 594,543.5C 596.253,543.631 598.419,544.131 600.5,545C 602.734,546.75 605.068,548.25 607.5,549.5 Z"/></g>
<g><path style="opacity:1" fill="#8ed4cc" d="M 590.5,547.5 C 593.649,547.211 596.649,547.711 599.5,549C 613.019,559.161 626.185,569.661 639,580.5C 639.913,583.352 639.08,585.519 636.5,587C 625.169,587.633 613.836,588.133 602.5,588.5C 602.666,595.841 602.5,603.174 602,610.5C 596.719,615.804 591.386,615.804 586,610.5C 585.5,601.506 585.334,592.506 585.5,583.5C 591.042,582.374 596.376,580.541 601.5,578C 603.968,576.784 605.968,575.117 607.5,573C 600.686,567.524 593.853,562.024 587,556.5C 585.312,552.523 586.479,549.523 590.5,547.5 Z"/></g>
</svg>
