<?xml version="1.0" encoding="UTF-8"?>
<!DOCTYPE svg PUBLIC "-//W3C//DTD SVG 1.1//EN" "http://www.w3.org/Graphics/SVG/1.1/DTD/svg11.dtd">
<svg xmlns="http://www.w3.org/2000/svg" version="1.1" width="1219px" height="331px" style="shape-rendering:geometricPrecision; text-rendering:geometricPrecision; image-rendering:optimizeQuality; fill-rule:evenodd; clip-rule:evenodd" xmlns:xlink="http://www.w3.org/1999/xlink">
<g><path style="opacity:1" fill="#12b4bd" d="M 169.5,64.5 C 174.635,63.4262 178.468,65.0928 181,69.5C 181.667,80.8333 181.667,92.1667 181,103.5C 177.446,108.451 172.946,109.618 167.5,107C 165.513,105.681 164.346,103.848 164,101.5C 163.069,90.4272 163.403,79.4272 165,68.5C 166.397,66.9297 167.897,65.5964 169.5,64.5 Z"/></g>
<g><path style="opacity:1" fill="#19b4bd" d="M 86.5,64.5 C 91.635,63.4262 95.4683,65.0928 98,69.5C 98.6667,80.8333 98.6667,92.1667 98,103.5C 94.6338,108.609 90.1338,109.776 84.5,107C 82.5125,105.681 81.3459,103.848 81,101.5C 80.0692,90.4272 80.4025,79.4272 82,68.5C 83.3968,66.9297 84.8968,65.5964 86.5,64.5 Z"/></g>
<g><path style="opacity:0.47" fill="#06c4cd" d="M 158.5,103.5 C 157.509,97.021 157.176,90.3543 157.5,83.5C 143.5,83.5 129.5,83.5 115.5,83.5C 112.5,83.5 109.5,83.5 106.5,83.5C 105.521,86.6248 105.187,89.9581 105.5,93.5C 105.5,94.8333 105.5,96.1667 105.5,97.5C 105.768,99.099 105.434,100.432 104.5,101.5C 104.5,95.1667 104.5,88.8333 104.5,82.5C 122.5,82.5 140.5,82.5 158.5,82.5C 158.5,89.5 158.5,96.5 158.5,103.5 Z"/></g>
<g><path style="opacity:1" fill="#05acb9" d="M 106.5,83.5 C 109.5,83.5 112.5,83.5 115.5,83.5C 113.958,84.1635 112.291,84.8302 110.5,85.5C 113.86,89.6931 117.027,94.0264 120,98.5C 124.61,113.849 120.277,125.516 107,133.5C 105.893,132.288 105.393,132.621 105.5,134.5C 100.167,134.5 94.8333,134.5 89.5,134.5C 89.1699,131.891 87.6699,130.224 85,129.5C 83.0627,129.821 81.5627,128.821 80.5,126.5C 80.7093,125.914 81.0426,125.414 81.5,125C 80.0036,121.851 78.5036,118.684 77,115.5C 76.8554,111.973 76.0221,108.64 74.5,105.5C 74.9698,104.537 75.6365,104.537 76.5,105.5C 77.7114,107.95 79.378,109.95 81.5,111.5C 80.7611,111.369 80.0944,111.536 79.5,112C 83.8685,128.184 93.8685,133.184 109.5,127C 116.192,121.75 118.692,114.917 117,106.5C 116.275,99.049 112.941,93.049 107,88.5C 106.506,86.8659 106.34,85.1992 106.5,83.5 Z"/></g>
<g><path style="opacity:1" fill="#00b1ba" d="M 115.5,83.5 C 129.5,83.5 143.5,83.5 157.5,83.5C 157.176,90.3543 157.509,97.021 158.5,103.5C 159.338,103.842 159.672,104.508 159.5,105.5C 158.637,104.537 157.97,104.537 157.5,105.5C 159.062,108.974 159.895,112.64 160,116.5C 162.018,123.046 165.852,128.213 171.5,132C 169.381,132.342 169.047,133.175 170.5,134.5C 148.833,134.5 127.167,134.5 105.5,134.5C 105.393,132.621 105.893,132.288 107,133.5C 120.277,125.516 124.61,113.849 120,98.5C 117.027,94.0264 113.86,89.6931 110.5,85.5C 112.291,84.8302 113.958,84.1635 115.5,83.5 Z"/></g>
<g><path style="opacity:1" fill="#01abb9" d="M 187.5,83.5 C 191.514,83.3345 195.514,83.5012 199.5,84C 197.167,84.3333 194.833,84.6667 192.5,85C 206.378,97.8493 208.045,112.016 197.5,127.5C 189.875,134.135 180.875,136.469 170.5,134.5C 169.047,133.175 169.381,132.342 171.5,132C 165.852,128.213 162.018,123.046 160,116.5C 159.895,112.64 159.062,108.974 157.5,105.5C 157.97,104.537 158.637,104.537 159.5,105.5C 160.124,107.754 161.457,109.421 163.5,110.5C 164.431,122.598 170.931,129.264 183,130.5C 197.582,126.009 202.748,116.342 198.5,101.5C 198.709,100.914 199.043,100.414 199.5,100C 196.8,96.5635 194.466,92.8968 192.5,89C 190.443,86.9193 188.777,87.086 187.5,89.5C 187.5,87.5 187.5,85.5 187.5,83.5 Z"/></g>
<g><path style="opacity:1" fill="#25b7c0" d="M 187.5,83.5 C 204.374,80.1894 216.207,86.5227 223,102.5C 223.5,113.495 223.667,124.495 223.5,135.5C 161.664,135.832 99.9977,135.499 38.5,134.5C 55.5,134.5 72.5,134.5 89.5,134.5C 94.8333,134.5 100.167,134.5 105.5,134.5C 127.167,134.5 148.833,134.5 170.5,134.5C 180.875,136.469 189.875,134.135 197.5,127.5C 208.045,112.016 206.378,97.8493 192.5,85C 194.833,84.6667 197.167,84.3333 199.5,84C 195.514,83.5012 191.514,83.3345 187.5,83.5 Z"/></g>
<g><path style="opacity:1" fill="#04b1ba" d="M 61.5,83.5 C 65.8333,83.5 70.1667,83.5 74.5,83.5C 74.1771,89.69 74.5104,95.69 75.5,101.5C 75.8333,102.833 76.1667,104.167 76.5,105.5C 75.6365,104.537 74.9698,104.537 74.5,105.5C 76.0221,108.64 76.8554,111.973 77,115.5C 78.5036,118.684 80.0036,121.851 81.5,125C 81.0426,125.414 80.7093,125.914 80.5,126.5C 81.5627,128.821 83.0627,129.821 85,129.5C 87.6699,130.224 89.1699,131.891 89.5,134.5C 72.5,134.5 55.5,134.5 38.5,134.5C 38.3335,124.494 38.5002,114.494 39,104.5C 42.1831,92.8152 49.6831,85.8152 61.5,83.5 Z"/></g>
<g><path style="opacity:0.547" fill="#18cdd4" d="M 61.5,83.5 C 65.97,82.5139 70.6367,82.1805 75.5,82.5C 75.5,88.8333 75.5,95.1667 75.5,101.5C 74.5104,95.69 74.1771,89.69 74.5,83.5C 70.1667,83.5 65.8333,83.5 61.5,83.5 Z"/></g>
<g><path style="opacity:1" fill="#0ba2b7" d="M 106.5,83.5 C 106.34,85.1992 106.506,86.8659 107,88.5C 112.941,93.049 116.275,99.049 117,106.5C 118.692,114.917 116.192,121.75 109.5,127C 93.8685,133.184 83.8685,128.184 79.5,112C 80.0944,111.536 80.7611,111.369 81.5,111.5C 84.9196,113.222 88.5863,113.889 92.5,113.5C 91.791,114.404 90.791,114.737 89.5,114.5C 87.8008,114.34 86.1341,114.506 84.5,115C 91.3386,125.871 99.8386,127.371 110,119.5C 114.852,109.61 113.352,100.943 105.5,93.5C 105.187,89.9581 105.521,86.6248 106.5,83.5 Z"/></g>
<g><path style="opacity:1" fill="#07a2b8" d="M 163.5,110.5 C 167.693,113.197 172.36,114.197 177.5,113.5C 177.158,114.338 176.492,114.672 175.5,114.5C 172.941,114.198 170.607,114.532 168.5,115.5C 170.184,120.683 173.684,124.016 179,125.5C 192.768,124.001 198.101,116.335 195,102.5C 192.059,98.9146 190.059,94.9146 189,90.5C 188.809,92.7078 188.309,94.7078 187.5,96.5C 187.5,94.1667 187.5,91.8333 187.5,89.5C 188.777,87.086 190.443,86.9193 192.5,89C 194.466,92.8968 196.8,96.5635 199.5,100C 199.043,100.414 198.709,100.914 198.5,101.5C 202.748,116.342 197.582,126.009 183,130.5C 170.931,129.264 164.431,122.598 163.5,110.5 Z"/></g>
<g><path style="opacity:1" fill="#0098b8" d="M 105.5,93.5 C 113.352,100.943 114.852,109.61 110,119.5C 99.8386,127.371 91.3386,125.871 84.5,115C 86.1341,114.506 87.8008,114.34 89.5,114.5C 88.2511,116.829 88.9177,118.662 91.5,120C 102.139,123.846 108.472,120.179 110.5,109C 110.243,104.445 108.576,100.611 105.5,97.5C 105.5,96.1667 105.5,94.8333 105.5,93.5 Z"/></g>
<g><path style="opacity:1" fill="#0099b8" d="M 168.5,115.5 C 171.268,117.087 173.935,118.92 176.5,121C 186.29,122.214 191.623,117.88 192.5,108C 192.526,104.077 191.359,100.577 189,97.5C 188.802,99.3817 188.302,101.048 187.5,102.5C 187.5,100.5 187.5,98.5 187.5,96.5C 188.309,94.7078 188.809,92.7078 189,90.5C 190.059,94.9146 192.059,98.9146 195,102.5C 198.101,116.335 192.768,124.001 179,125.5C 173.684,124.016 170.184,120.683 168.5,115.5 Z"/></g>
<g><path style="opacity:1" fill="#0a90ba" d="M 168.5,115.5 C 170.607,114.532 172.941,114.198 175.5,114.5C 178.6,116.95 181.934,117.117 185.5,115C 187.347,112.421 187.847,109.588 187,106.5C 186.617,107.056 186.117,107.389 185.5,107.5C 185.796,105.597 186.463,103.93 187.5,102.5C 188.302,101.048 188.802,99.3817 189,97.5C 191.359,100.577 192.526,104.077 192.5,108C 191.623,117.88 186.29,122.214 176.5,121C 173.935,118.92 171.268,117.087 168.5,115.5 Z"/></g>
<g><path style="opacity:1" fill="#168dba" d="M 105.5,97.5 C 108.576,100.611 110.243,104.445 110.5,109C 108.472,120.179 102.139,123.846 91.5,120C 88.9177,118.662 88.2511,116.829 89.5,114.5C 90.791,114.737 91.791,114.404 92.5,113.5C 98.8372,111.829 102.837,107.829 104.5,101.5C 105.434,100.432 105.768,99.099 105.5,97.5 Z"/></g>
<g><path style="opacity:1" fill="#2088bb" d="M 175.5,114.5 C 176.492,114.672 177.158,114.338 177.5,113.5C 180.426,111.916 183.092,109.916 185.5,107.5C 186.117,107.389 186.617,107.056 187,106.5C 187.847,109.588 187.347,112.421 185.5,115C 181.934,117.117 178.6,116.95 175.5,114.5 Z"/></g>
<g><path style="opacity:1" fill="#0086ba" d="M 730.5,118.5 C 735.584,117.755 739.084,119.755 741,124.5C 741.667,158.167 741.667,191.833 741,225.5C 738.156,230.866 734.156,231.866 729,228.5C 727.438,226.043 726.438,223.376 726,220.5C 714.871,230.823 702.038,233.656 687.5,229C 663.123,217.74 654.957,199.24 663,173.5C 676.588,150.415 695.754,143.915 720.5,154C 722,155.5 723.5,157 725,158.5C 725.333,147.167 725.667,135.833 726,124.5C 726.599,121.746 728.099,119.746 730.5,118.5 Z M 697.5,164.5 C 719.044,165.921 727.878,177.254 724,198.5C 720.408,209.25 712.908,214.917 701.5,215.5C 681.491,212.662 673.325,201.329 677,181.5C 681.011,172.313 687.844,166.647 697.5,164.5 Z"/></g>
<g><path style="opacity:0.924" fill="#03b2ba" d="M 866.5,126.5 C 897.502,126.333 928.502,126.5 959.5,127C 965.109,130.277 966.942,135.11 965,141.5C 963.833,144 962,145.833 959.5,147C 942.864,148.206 926.197,148.872 909.5,149C 909.167,149.333 908.833,149.667 908.5,150C 913.507,154.068 918.341,158.235 923,162.5C 923.989,172.856 919.156,178.356 908.5,179C 913,182.833 917.5,186.667 922,190.5C 925.129,197.411 923.296,202.578 916.5,206C 906.467,206.242 896.467,206.742 886.5,207.5C 891.467,225.674 884.801,233.841 866.5,232C 863.829,230.75 861.663,228.917 860,226.5C 859.333,215.5 859.333,204.5 860,193.5C 865.794,191.853 871.294,189.519 876.5,186.5C 872.956,182.793 868.956,179.626 864.5,177C 859.355,172.402 858.188,166.902 861,160.5C 864.787,157.086 869.287,155.253 874.5,155C 869.026,151.523 864.193,147.356 860,142.5C 858.062,135.389 860.229,130.056 866.5,126.5 Z"/></g>
<g><path style="opacity:0.947" fill="#0086ba" d="M 317.5,188.5 C 310.402,201.86 303.402,215.36 296.5,229C 291.713,229.879 287.047,229.545 282.5,228C 278.874,225.749 277.707,222.582 279,218.5C 292.274,190.286 305.274,161.953 318,133.5C 320.536,130.234 323.869,128.9 328,129.5C 331.459,129.267 334.626,130.101 337.5,132C 351.382,160.311 364.882,188.811 378,217.5C 379.71,223.469 377.543,227.303 371.5,229C 367.406,229.767 363.406,229.434 359.5,228C 345.38,217.548 331.547,206.715 318,195.5C 317.503,193.19 317.337,190.857 317.5,188.5 Z M 317.5,188.5 C 320.628,180.91 324.295,173.577 328.5,166.5C 331.757,172.681 334.757,179.015 337.5,185.5C 337.333,185.833 337.167,186.167 337,186.5C 330.082,182.647 323.582,183.313 317.5,188.5 Z"/></g>
<g><path style="opacity:1" fill="#8fd4cc" d="M 942.5,132.5 C 947.628,132.112 952.628,132.612 957.5,134C 960.341,137.159 959.674,139.492 955.5,141C 933.162,141.509 910.829,142.176 888.5,143C 897.5,150.167 906.5,157.333 915.5,164.5C 916.833,166.167 916.833,167.833 915.5,169.5C 909.882,172.564 904.882,171.73 900.5,167C 890.12,158.285 879.453,149.952 868.5,142C 865.833,139.333 865.833,136.667 868.5,134C 893.337,133.832 918.003,133.332 942.5,132.5 Z"/></g>
<g><path style="opacity:1" fill="#1087b7" d="M 223.5,164.5 C 222.046,163.48 221.713,162.313 222.5,161C 221.703,157.255 221.203,153.421 221,149.5C 219.833,150.667 218.667,151.833 217.5,153C 218.167,153.333 218.833,153.667 219.5,154C 217.167,157 214.5,159.667 211.5,162C 212.28,163.073 212.113,164.24 211,165.5C 209.494,167.174 207.661,168.174 205.5,168.5C 205.83,188.34 205.497,208.007 204.5,227.5C 204.203,201.141 204.536,174.808 205.5,148.5C 209.379,141.556 215.379,138.223 223.5,138.5C 223.5,147.167 223.5,155.833 223.5,164.5 Z"/></g>
<g><path style="opacity:1" fill="#0086ba" d="M 415.5,148.5 C 427.039,147.733 436.872,151.4 445,159.5C 446.746,151.925 451.246,149.425 458.5,152C 459.701,152.903 460.535,154.069 461,155.5C 461.667,180.167 461.667,204.833 461,229.5C 457.112,252.218 443.612,264.218 420.5,265.5C 412.302,265.425 409.135,261.425 411,253.5C 412.167,252.333 413.333,251.167 414.5,250C 434.151,251.008 443.984,241.842 444,222.5C 432.004,232.053 418.837,233.886 404.5,228C 383.999,218.166 375.833,202 380,179.5C 386.112,162.551 397.945,152.218 415.5,148.5 Z M 416.5,164.5 C 436.927,165.43 446.093,176.096 444,196.5C 437.732,212.884 426.232,218.384 409.5,213C 396.919,206.001 392.419,195.501 396,181.5C 400.011,172.313 406.844,166.647 416.5,164.5 Z"/></g>
<g><path style="opacity:1" fill="#0086ba" d="M 512.5,148.5 C 531.274,147.966 545.441,155.632 555,171.5C 558.366,178.565 559.199,185.899 557.5,193.5C 556.335,194.584 555.002,195.417 553.5,196C 533.492,196.167 513.492,196.667 493.5,197.5C 499.423,211.986 510.09,217.486 525.5,214C 530.451,210.702 535.618,207.869 541,205.5C 547.418,206.992 549.751,210.992 548,217.5C 534.579,231.216 518.746,234.716 500.5,228C 478.433,215.811 471.266,197.644 479,173.5C 486.081,159.572 497.248,151.239 512.5,148.5 Z M 513.5,164.5 C 523.564,163.949 531.731,167.616 538,175.5C 539.707,177.909 540.54,180.575 540.5,183.5C 524.819,183.833 509.152,183.499 493.5,182.5C 497.406,173.253 504.072,167.253 513.5,164.5 Z"/></g>
<g><path style="opacity:1" fill="#0086ba" d="M 606.5,148.5 C 627.798,147.641 640.298,157.641 644,178.5C 644.667,194.167 644.667,209.833 644,225.5C 641.774,229.861 638.274,231.361 633.5,230C 631.333,229.167 629.833,227.667 629,225.5C 628.667,210.167 628.333,194.833 628,179.5C 625.955,169.791 619.955,164.791 610,164.5C 601.475,164.759 595.475,168.759 592,176.5C 591.015,193.525 590.015,210.525 589,227.5C 583.559,231.926 578.892,231.259 575,225.5C 574.333,202.167 574.333,178.833 575,155.5C 577.626,150.139 581.459,149.139 586.5,152.5C 587.439,154.053 588.606,155.387 590,156.5C 592.732,154.548 595.565,152.715 598.5,151C 601.379,150.454 604.046,149.621 606.5,148.5 Z"/></g>
<g><path style="opacity:1" fill="#0086ba" d="M 793.5,148.5 C 804.186,147.507 813.519,150.507 821.5,157.5C 823.067,154.557 825.4,152.39 828.5,151C 831.742,150.414 834.575,151.247 837,153.5C 838.636,177.103 838.97,200.77 838,224.5C 836.305,229.599 832.805,231.432 827.5,230C 824.547,227.937 822.714,225.104 822,221.5C 806.524,233.956 790.358,234.789 773.5,224C 756.935,210.033 752.602,192.866 760.5,172.5C 767.485,158.853 778.485,150.853 793.5,148.5 Z M 794.5,164.5 C 814.439,165.272 823.606,175.606 822,195.5C 815.517,214.489 803.017,219.989 784.5,212C 771.649,202.041 769.149,189.874 777,175.5C 781.578,169.638 787.411,165.972 794.5,164.5 Z"/></g>
<g><path style="opacity:1" fill="#168fb8" d="M 223.5,164.5 C 223.667,192.502 223.5,220.502 223,248.5C 219.649,259.183 212.483,265.683 201.5,268C 177.16,268.833 152.826,268.666 128.5,267.5C 126.491,263.48 126.158,259.48 127.5,255.5C 127.674,258.874 128.174,262.207 129,265.5C 130.31,262.527 132.31,260.193 135,258.5C 135.344,255.208 136.178,251.874 137.5,248.5C 152.837,248.667 168.17,248.5 183.5,248C 167.503,247.5 151.503,247.333 135.5,247.5C 153.039,246.93 170.705,246.096 188.5,245C 196.624,241.718 201.624,235.885 203.5,227.5C 203.833,227.5 204.167,227.5 204.5,227.5C 205.497,208.007 205.83,188.34 205.5,168.5C 207.661,168.174 209.494,167.174 211,165.5C 212.113,164.24 212.28,163.073 211.5,162C 214.5,159.667 217.167,157 219.5,154C 218.833,153.667 218.167,153.333 217.5,153C 218.667,151.833 219.833,150.667 221,149.5C 221.203,153.421 221.703,157.255 222.5,161C 221.713,162.313 222.046,163.48 223.5,164.5 Z"/></g>
<g><path style="opacity:1" fill="#00b1b9" d="M 1046.5,149.5 C 1065.27,148.966 1079.44,156.632 1089,172.5C 1092.37,179.565 1093.2,186.899 1091.5,194.5C 1090.33,195.584 1089,196.417 1087.5,197C 1067.49,197.167 1047.49,197.667 1027.5,198.5C 1033.42,212.986 1044.09,218.486 1059.5,215C 1064.45,211.702 1069.62,208.869 1075,206.5C 1081.42,207.992 1083.75,211.992 1082,218.5C 1068.58,232.216 1052.75,235.716 1034.5,229C 1012.43,216.811 1005.27,198.644 1013,174.5C 1020.08,160.572 1031.25,152.239 1046.5,149.5 Z M 1047.5,165.5 C 1057.56,164.949 1065.73,168.616 1072,176.5C 1073.71,178.909 1074.54,181.575 1074.5,184.5C 1058.82,184.833 1043.15,184.499 1027.5,183.5C 1031.41,174.253 1038.07,168.253 1047.5,165.5 Z"/></g>
<g><path style="opacity:1" fill="#00b1b9" d="M 1142.5,149.5 C 1161.27,148.966 1175.44,156.632 1185,172.5C 1188.37,179.565 1189.2,186.899 1187.5,194.5C 1186.33,195.584 1185,196.417 1183.5,197C 1163.49,197.167 1143.49,197.667 1123.5,198.5C 1129.42,212.986 1140.09,218.486 1155.5,215C 1160.45,211.702 1165.62,208.869 1171,206.5C 1177.42,207.992 1179.75,211.992 1178,218.5C 1164.58,232.216 1148.75,235.716 1130.5,229C 1108.43,216.811 1101.27,198.644 1109,174.5C 1116.08,160.572 1127.25,152.239 1142.5,149.5 Z M 1143.5,165.5 C 1153.56,164.949 1161.73,168.616 1168,176.5C 1169.71,178.909 1170.54,181.575 1170.5,184.5C 1154.82,184.833 1139.15,184.499 1123.5,183.5C 1127.41,174.253 1134.07,168.253 1143.5,165.5 Z"/></g>
<g><path style="opacity:1" fill="#00b1b9" d="M 967.5,151.5 C 973.447,150.946 976.947,153.613 978,159.5C 984.283,153.406 991.783,150.906 1000.5,152C 1004,153.323 1005.66,155.823 1005.5,159.5C 1005.64,161.808 1004.97,163.808 1003.5,165.5C 996.552,166.738 989.886,168.905 983.5,172C 981.959,173.579 980.792,175.413 980,177.5C 978.711,193.767 978.044,210.1 978,226.5C 975.774,230.861 972.274,232.361 967.5,231C 965.43,230.052 963.93,228.552 963,226.5C 962.333,203.167 962.333,179.833 963,156.5C 964.025,154.313 965.525,152.646 967.5,151.5 Z"/></g>
<g><path style="opacity:1" fill="#03b7bd" d="M 94.5,155.5 C 110.503,155.333 126.503,155.5 142.5,156C 136.167,156.333 129.833,156.667 123.5,157C 121.455,158.667 119.622,160.5 118,162.5C 116.493,161.465 114.993,161.632 113.5,163C 110.869,165.977 107.869,168.477 104.5,170.5C 100.536,171.481 97.2026,173.481 94.5,176.5C 93.0353,175.391 92.0353,175.891 91.5,178C 89.508,178.574 88.008,179.741 87,181.5C 84.6389,180.934 82.8056,181.934 81.5,184.5C 80.3714,178.836 80.3714,173.169 81.5,167.5C 83.2807,160.719 87.6141,156.719 94.5,155.5 Z"/></g>
<g><path style="opacity:1" fill="#12c2c2" d="M 94.5,155.5 C 110.992,154.503 127.658,154.17 144.5,154.5C 150.679,155.167 157.012,155.833 163.5,156.5C 161.163,159.322 158.163,161.155 154.5,162C 155.833,163 157.167,164 158.5,165C 155.249,166.577 152.249,168.577 149.5,171C 147.833,171.333 146.167,171.667 144.5,172C 143.663,173.011 143.33,174.178 143.5,175.5C 131.322,175.172 119.322,175.505 107.5,176.5C 104.852,176.738 103.018,178.072 102,180.5C 101.501,186.491 101.334,192.491 101.5,198.5C 101.279,201.097 100.779,201.097 100,198.5C 94.5484,201.985 89.2151,205.652 84,209.5C 83.0546,209.095 82.3879,208.428 82,207.5C 81.6667,207.833 81.3333,208.167 81,208.5C 80.79,206.942 80.29,205.609 79.5,204.5C 79.3335,193.162 79.5001,181.828 80,170.5C 80.2321,169.263 80.7321,168.263 81.5,167.5C 80.3714,173.169 80.3714,178.836 81.5,184.5C 82.8056,181.934 84.6389,180.934 87,181.5C 88.008,179.741 89.508,178.574 91.5,178C 92.0353,175.891 93.0353,175.391 94.5,176.5C 97.2026,173.481 100.536,171.481 104.5,170.5C 107.869,168.477 110.869,165.977 113.5,163C 114.993,161.632 116.493,161.465 118,162.5C 119.622,160.5 121.455,158.667 123.5,157C 129.833,156.667 136.167,156.333 142.5,156C 126.503,155.5 110.503,155.333 94.5,155.5 Z"/></g>
<g><path style="opacity:1" fill="#8ed4cc" d="M 869.5,162.5 C 872.32,162.248 874.986,162.748 877.5,164C 888.833,172.667 900.167,181.333 911.5,190C 913.904,191.403 915.571,193.403 916.5,196C 916.241,197.261 915.574,198.261 914.5,199C 902.84,199.728 891.174,200.228 879.5,200.5C 879.666,208.174 879.5,215.841 879,223.5C 874.706,227.483 870.373,227.483 866,223.5C 865.168,215.147 865.335,206.813 866.5,198.5C 873.404,196.049 880.07,193.049 886.5,189.5C 887.466,187.604 887.799,185.604 887.5,183.5C 879.708,179.565 872.541,174.565 866,168.5C 865.651,165.669 866.817,163.669 869.5,162.5 Z"/></g>
<g><path style="opacity:1" fill="#6acdc9" d="M 180.5,166.5 C 181.338,166.842 181.672,167.508 181.5,168.5C 181.5,174.167 181.5,179.833 181.5,185.5C 180.834,182.311 180.167,178.977 179.5,175.5C 175.618,178.557 171.618,181.39 167.5,184C 166.207,184.49 164.873,184.657 163.5,184.5C 163.5,188.5 163.5,192.5 163.5,196.5C 162.833,191.5 162.167,186.5 161.5,181.5C 160.197,179.858 158.864,178.191 157.5,176.5C 162.628,174.096 167.295,170.929 171.5,167C 173.754,165.85 176.087,165.516 178.5,166C 177.833,166.667 177.167,167.333 176.5,168C 177.825,167.852 178.992,168.018 180,168.5C 180.464,167.906 180.631,167.239 180.5,166.5 Z"/></g>
<g><path style="opacity:1" fill="#5acdca" d="M 144.5,154.5 C 152.507,154.334 160.507,154.5 168.5,155C 174.344,157.012 178.344,160.846 180.5,166.5C 180.631,167.239 180.464,167.906 180,168.5C 178.992,168.018 177.825,167.852 176.5,168C 177.167,167.333 177.833,166.667 178.5,166C 176.087,165.516 173.754,165.85 171.5,167C 167.295,170.929 162.628,174.096 157.5,176.5C 140.833,176.5 124.167,176.5 107.5,176.5C 119.322,175.505 131.322,175.172 143.5,175.5C 143.33,174.178 143.663,173.011 144.5,172C 146.167,171.667 147.833,171.333 149.5,171C 152.249,168.577 155.249,166.577 158.5,165C 157.167,164 155.833,163 154.5,162C 158.163,161.155 161.163,159.322 163.5,156.5C 157.012,155.833 150.679,155.167 144.5,154.5 Z"/></g>
<g><path style="opacity:1" fill="#05b2bb" d="M 52.5,178.5 C 54.5,178.5 56.5,178.5 58.5,178.5C 58.5,184.833 58.5,191.167 58.5,197.5C 57.7784,197.918 57.2784,198.584 57,199.5C 56.2747,197.842 55.108,197.342 53.5,198C 50.4182,199.409 47.5849,201.242 45,203.5C 44.1841,202.177 43.0174,201.511 41.5,201.5C 40.8826,201.389 40.3826,201.056 40,200.5C 39.5014,196.848 39.3347,193.182 39.5,189.5C 41.6845,183.317 46.0179,179.65 52.5,178.5 Z"/></g>
<g><path style="opacity:1" fill="#7ed1cb" d="M 181.5,185.5 C 181.666,193.84 181.5,202.173 181,210.5C 180.667,202.5 180.333,194.5 180,186.5C 175.059,190.722 169.559,194.055 163.5,196.5C 163.5,192.5 163.5,188.5 163.5,184.5C 164.873,184.657 166.207,184.49 167.5,184C 171.618,181.39 175.618,178.557 179.5,175.5C 180.167,178.977 180.834,182.311 181.5,185.5 Z"/></g>
<g><path style="opacity:1" fill="#93d4cd" d="M 181.5,168.5 C 182.661,182.661 182.827,196.994 182,211.5C 179.526,217.974 175.026,222.474 168.5,225C 143.663,225.83 118.997,225.663 94.5,224.5C 101.5,224.5 108.5,224.5 115.5,224.5C 131.503,224.667 147.503,224.5 163.5,224C 151.833,223.667 140.167,223.333 128.5,223C 137.833,217.667 147.167,212.333 156.5,207C 157.337,205.989 157.67,204.822 157.5,203.5C 151.833,203.5 146.167,203.5 140.5,203.5C 136.958,203.813 133.625,203.479 130.5,202.5C 139.915,202.917 149.248,202.417 158.5,201C 159.893,199.829 160.727,198.329 161,196.5C 161.499,191.511 161.666,186.511 161.5,181.5C 162.167,186.5 162.833,191.5 163.5,196.5C 169.559,194.055 175.059,190.722 180,186.5C 180.333,194.5 180.667,202.5 181,210.5C 181.5,202.173 181.666,193.84 181.5,185.5C 181.5,179.833 181.5,174.167 181.5,168.5 Z"/></g>
<g><path style="opacity:1" fill="#00babf" d="M 58.5,197.5 C 58.5,202.167 58.5,206.833 58.5,211.5C 57.6773,214.977 57.1773,218.644 57,222.5C 54.3702,218.868 51.3702,215.535 48,212.5C 45.8104,208.778 43.6437,205.111 41.5,201.5C 43.0174,201.511 44.1841,202.177 45,203.5C 47.5849,201.242 50.4182,199.409 53.5,198C 55.108,197.342 56.2747,197.842 57,199.5C 57.2784,198.584 57.7784,197.918 58.5,197.5 Z"/></g>
<g><path style="opacity:0.992" fill="#12c4c3" d="M 39.5,189.5 C 39.3347,193.182 39.5014,196.848 40,200.5C 40.3826,201.056 40.8826,201.389 41.5,201.5C 43.6437,205.111 45.8104,208.778 48,212.5C 51.3702,215.535 54.3702,218.868 57,222.5C 57.1773,218.644 57.6773,214.977 58.5,211.5C 58.1832,215.702 58.5166,219.702 59.5,223.5C 59.5,223.833 59.5,224.167 59.5,224.5C 58.5318,226.607 58.1984,228.941 58.5,231.5C 56.0901,231.079 54.2568,229.746 53,227.5C 48.2717,219.309 43.4383,211.309 38.5,203.5C 38.1805,198.637 38.5139,193.97 39.5,189.5 Z"/></g>
<g><path style="opacity:1" fill="#85d2cb" d="M 140.5,203.5 C 146.167,203.5 151.833,203.5 157.5,203.5C 157.67,204.822 157.337,205.989 156.5,207C 147.167,212.333 137.833,217.667 128.5,223C 140.167,223.333 151.833,223.667 163.5,224C 147.503,224.5 131.503,224.667 115.5,224.5C 111.688,223.676 107.688,223.176 103.5,223C 112.772,217.392 121.772,211.392 130.5,205C 134.025,204.821 137.359,204.321 140.5,203.5 Z"/></g>
<g><path style="opacity:0.076" fill="#62d2d1" d="M 52.5,178.5 C 54.6074,177.532 56.9407,177.198 59.5,177.5C 59.5,192.833 59.5,208.167 59.5,223.5C 58.5166,219.702 58.1832,215.702 58.5,211.5C 58.5,206.833 58.5,202.167 58.5,197.5C 58.5,191.167 58.5,184.833 58.5,178.5C 56.5,178.5 54.5,178.5 52.5,178.5 Z"/></g>
<g><path style="opacity:1" fill="#4dc9c6" d="M 101.5,198.5 C 102.5,198.833 103.167,199.5 103.5,200.5C 103.577,201.75 104.244,202.583 105.5,203C 102.986,205.067 103.152,206.567 106,207.5C 106.49,206.207 106.657,204.873 106.5,203.5C 109.971,203.899 110.304,205.399 107.5,208C 99.9152,211.77 92.2485,215.27 84.5,218.5C 81.2541,214.431 79.5875,209.764 79.5,204.5C 80.29,205.609 80.79,206.942 81,208.5C 81.3333,208.167 81.6667,207.833 82,207.5C 82.3879,208.428 83.0546,209.095 84,209.5C 89.2151,205.652 94.5484,201.985 100,198.5C 100.779,201.097 101.279,201.097 101.5,198.5 Z"/></g>
<g><path style="opacity:0.566" fill="#6db2cd" d="M 205.5,148.5 C 204.536,174.808 204.203,201.141 204.5,227.5C 204.167,227.5 203.833,227.5 203.5,227.5C 203.333,202.164 203.5,176.831 204,151.5C 204.232,150.263 204.732,149.263 205.5,148.5 Z"/></g>
<g><path style="opacity:1" fill="#6dceca" d="M 103.5,200.5 C 104.473,200.987 105.473,201.487 106.5,202C 114.493,202.5 122.493,202.666 130.5,202.5C 133.625,203.479 136.958,203.813 140.5,203.5C 137.359,204.321 134.025,204.821 130.5,205C 121.772,211.392 112.772,217.392 103.5,223C 107.688,223.176 111.688,223.676 115.5,224.5C 108.5,224.5 101.5,224.5 94.5,224.5C 90.4023,223.728 87.069,221.728 84.5,218.5C 92.2485,215.27 99.9152,211.77 107.5,208C 110.304,205.399 109.971,203.899 106.5,203.5C 106.657,204.873 106.49,206.207 106,207.5C 103.152,206.567 102.986,205.067 105.5,203C 104.244,202.583 103.577,201.75 103.5,200.5 Z"/></g>
<g><path style="opacity:1" fill="#90d4cd" d="M 38.5,212.5 C 39.3138,214.631 39.8138,216.964 40,219.5C 49.5,235.167 59,250.833 68.5,266.5C 74.4724,267.664 80.4724,267.83 86.5,267C 81.6228,266.409 80.9561,265.076 84.5,263C 83.8333,262.667 83.1667,262.333 82.5,262C 83.4706,260.796 84.4706,260.296 85.5,260.5C 83.4632,257.807 82.6299,254.807 83,251.5C 83.9734,253.392 84.6401,255.392 85,257.5C 86.2759,254.634 86.4426,251.8 85.5,249C 93.1594,248.5 100.826,248.334 108.5,248.5C 109.017,251.582 109.85,254.582 111,257.5C 111.667,256.167 112.333,256.167 113,257.5C 114.793,260.917 116.959,264.084 119.5,267C 108.992,267.17 98.6585,267.67 88.5,268.5C 79.4938,268.666 70.4938,268.5 61.5,268C 49.7503,265.25 42.2503,258.083 39,246.5C 38.5001,235.172 38.3335,223.838 38.5,212.5 Z"/></g>
<g><path style="opacity:1" fill="#79d0ca" d="M 38.5,203.5 C 43.4383,211.309 48.2717,219.309 53,227.5C 54.2568,229.746 56.0901,231.079 58.5,231.5C 58.1984,228.941 58.5318,226.607 59.5,224.5C 60.0808,236.751 66.4141,244.084 78.5,246.5C 92.9943,247.331 107.661,247.831 122.5,248C 117.845,248.499 113.179,248.666 108.5,248.5C 100.826,248.334 93.1594,248.5 85.5,249C 86.4426,251.8 86.2759,254.634 85,257.5C 84.6401,255.392 83.9734,253.392 83,251.5C 82.6299,254.807 83.4632,257.807 85.5,260.5C 84.4706,260.296 83.4706,260.796 82.5,262C 83.1667,262.333 83.8333,262.667 84.5,263C 80.9561,265.076 81.6228,266.409 86.5,267C 80.4724,267.83 74.4724,267.664 68.5,266.5C 59,250.833 49.5,235.167 40,219.5C 39.8138,216.964 39.3138,214.631 38.5,212.5C 38.5,209.5 38.5,206.5 38.5,203.5 Z"/></g>
<g><path style="opacity:1" fill="#9dd8d1" d="M 88.5,268.5 C 98.6585,267.67 108.992,267.17 119.5,267C 116.959,264.084 114.793,260.917 113,257.5C 112.333,256.167 111.667,256.167 111,257.5C 109.85,254.582 109.017,251.582 108.5,248.5C 113.179,248.666 117.845,248.499 122.5,248C 107.661,247.831 92.9943,247.331 78.5,246.5C 94.4111,246.825 110.244,246.491 126,245.5C 123.736,249.749 122.236,254.415 121.5,259.5C 121.552,262.322 122.219,264.989 123.5,267.5C 111.852,268.499 100.186,268.832 88.5,268.5 Z"/></g>
<g><path style="opacity:1" fill="#1886b5" d="M 135.5,247.5 C 151.503,247.333 167.503,247.5 183.5,248C 168.17,248.5 152.837,248.667 137.5,248.5C 136.178,251.874 135.344,255.208 135,258.5C 132.31,260.193 130.31,262.527 129,265.5C 128.174,262.207 127.674,258.874 127.5,255.5C 128.5,251.167 131.167,248.5 135.5,247.5 Z"/></g>
</svg>
